<svg width="75" height="75" viewBox="0 0 75 75" fill="none" xmlns="http://www.w3.org/2000/svg">
<path d="M47.5 74.9951C62.6878 74.9951 75 62.6829 75 47.4951C75 32.3073 62.6878 19.9951 47.5 19.9951C32.3122 19.9951 20 32.3073 20 47.4951C20 62.6829 32.3122 74.9951 47.5 74.9951Z" fill="#EBEBEB"/>
<path d="M5.66406 21.7725C8.46676 15.819 13.3129 11.069 19.3214 8.38629C25.3299 5.70355 32.1015 5.2662 38.4052 7.15377C44.7088 9.04135 50.1258 13.1285 53.671 18.672C57.2163 24.2155 58.6543 30.8473 57.7237 37.3613L46.9351 29.9507L55.0164 23.3322" stroke="#151515" stroke-width="2.4" stroke-linecap="round" stroke-linejoin="round"/>
<path d="M55.0355 45.9835C52.2588 51.5183 47.694 55.9529 42.0811 58.5682C36.4683 61.1835 30.1366 61.8262 24.1127 60.392C18.0888 58.9579 12.7259 55.531 8.89375 50.667C5.06157 45.803 2.98479 39.7871 3.00008 33.5949C2.999 32.3759 3.08003 31.1583 3.24256 29.9502L14.1523 37.3608L6.4589 43.8904" stroke="#151515" stroke-width="2.4" stroke-linecap="round" stroke-linejoin="round"/>
<path d="M30.0356 44.6927C25.1151 44.4361 22.0043 42.0178 21.875 37.6089H26.44C26.5854 39.5295 27.9914 40.6337 30.0356 40.8747V35.1673L28.6298 34.8407C24.8161 33.9387 22.4729 32.1036 22.4729 28.9077C22.4729 25.2297 25.5998 22.687 30.0356 22.3526V19.8877H31.8536V22.3526C36.4186 22.6248 39.3515 25.2142 39.4161 28.8533H34.9156C34.7621 27.3448 33.6473 26.3805 31.8536 26.155V31.5437L32.9442 31.8003C36.8225 32.6557 39.7152 34.553 39.7313 38.1765C39.7313 41.9556 36.8388 44.3972 31.8536 44.6927V47.1421H30.0356V44.6927ZM30.0356 31.1083V26.1706C28.2742 26.4272 27.3045 27.3759 27.2884 28.6122C27.2722 29.8486 28.4762 30.6339 30.0356 31.1083ZM34.9803 38.1765C34.9803 36.8546 33.8493 36.147 31.8536 35.6027V40.8592C33.7765 40.6182 34.9803 39.5917 34.9803 38.1765Z" fill="#B51717"/>
<path d="M4.43815 32.1743L12.2522 37.482L6.20475 43.2755C5.27538 40.6496 4.81763 37.6825 4.60243 35.1752C4.50486 34.0383 4.45831 33.0111 4.43815 32.1743Z" fill="#151515" stroke="#151515" stroke-width="2.4"/>
<path d="M56.3836 35.1174L48.9254 29.8852L54.905 25.0731L56.3836 35.1174Z" fill="#151515" stroke="#151515" stroke-width="2.4"/>
</svg>
