<svg width="75" height="75" viewBox="0 0 75 75" fill="none" xmlns="http://www.w3.org/2000/svg">
<g clip-path="url(#clip0_19311_399)">
<path d="M47.5 75.9971C62.6878 75.9971 75 63.6849 75 48.4971C75 33.3092 62.6878 20.9971 47.5 20.9971C32.3122 20.9971 20 33.3092 20 48.4971C20 63.6849 32.3122 75.9971 47.5 75.9971Z" fill="#EBEBEB"/>
<path d="M51.7055 40.9084C51.3984 41.8344 51.0283 42.7384 50.5978 43.6138C50.4229 43.9761 50.3641 44.3837 50.4296 44.7806C50.495 45.1776 50.6815 45.5446 50.9634 45.8314L52.3151 47.1952C52.5334 47.4136 52.7064 47.6728 52.8246 47.9582C52.9428 48.2436 53.0036 48.5495 53.0036 48.8585C53.0036 49.1674 52.9428 49.4733 52.8246 49.7587C52.7064 50.0441 52.5334 50.3033 52.3151 50.5217L47.3525 55.4891C47.1344 55.7077 46.875 55.8811 46.5899 55.9994C46.3048 56.1177 45.9996 56.1786 45.6909 56.1786C45.3823 56.1786 45.0766 56.1177 44.7915 55.9994C44.5064 55.8811 44.2475 55.7077 44.0294 55.4891L42.6669 54.1253C42.3787 53.8459 42.0118 53.6612 41.616 53.5958C41.2201 53.5305 40.8141 53.5875 40.4515 53.7594C39.5747 54.1855 38.6715 54.5559 37.7482 54.8682C37.3586 54.9965 37.0195 55.2445 36.7789 55.5769C36.5383 55.9094 36.4083 56.3093 36.4079 56.7199V58.6381C36.4093 58.9477 36.35 59.2546 36.2326 59.5411C36.1153 59.8276 35.9424 60.088 35.7242 60.3075C35.506 60.5269 35.2467 60.7011 34.961 60.8199C34.6754 60.9387 34.3692 60.9998 34.0599 60.9998H27.0366C26.7273 60.9998 26.4212 60.9387 26.1355 60.8199C25.8499 60.7011 25.5906 60.5269 25.3723 60.3075C25.1541 60.088 24.9813 59.8276 24.8639 59.5411C24.7466 59.2546 24.6867 58.9477 24.6881 58.6381V56.7199C24.6877 56.3093 24.5583 55.9094 24.3176 55.5769C24.077 55.2445 23.7374 54.9965 23.3478 54.8682C22.4255 54.5532 21.523 54.1829 20.6451 53.7594C20.2774 53.5718 19.8602 53.5051 19.4524 53.5688C19.0447 53.6325 18.6675 53.8233 18.3745 54.1142L17.0228 55.478C16.5809 55.9168 15.9837 56.163 15.3612 56.163C14.7388 56.163 14.1416 55.9168 13.6997 55.478L8.73711 50.5106C8.51874 50.2922 8.3458 50.033 8.22761 49.7476C8.10941 49.4623 8.04858 49.1563 8.04858 48.8474C8.04858 48.5384 8.10941 48.2325 8.22761 47.9471C8.3458 47.6617 8.51874 47.4025 8.73711 47.1842L10.0888 45.8203C10.3706 45.5335 10.5572 45.1665 10.6226 44.7695C10.688 44.3726 10.6293 43.965 10.4544 43.6027C10.0239 42.7273 9.65377 41.8234 9.34668 40.8973C9.21688 40.5052 8.96711 40.1639 8.63326 39.9212C8.29941 39.6785 7.89811 39.5468 7.48552 39.5446H5.56919C4.94637 39.5446 4.3491 39.2969 3.9087 38.856C3.4683 38.4152 3.2207 37.8173 3.2207 37.1939V30.1752C3.2207 29.5517 3.4683 28.9538 3.9087 28.513C4.3491 28.0722 4.94637 27.8245 5.56919 27.8245H7.48552C7.89675 27.8231 8.29741 27.6929 8.6311 27.4524C8.96479 27.2118 9.215 26.8728 9.34668 26.4828C9.65179 25.556 10.0219 24.6519 10.4544 23.7774C10.6261 23.4144 10.6831 23.0076 10.6177 22.6114C10.5524 22.2151 10.3679 21.8483 10.0888 21.5598L8.73711 20.2071C8.29878 19.7647 8.0529 19.1669 8.0529 18.5439C8.0529 17.9208 8.29878 17.323 8.73711 16.8807L13.6997 11.9243C13.9178 11.7057 14.1772 11.5323 14.4623 11.414C14.7474 11.2957 15.0526 11.2348 15.3612 11.2348C15.6699 11.2348 15.9756 11.2957 16.2607 11.414C16.5458 11.5323 16.8047 11.7057 17.0228 11.9243L18.3745 13.277C18.668 13.5668 19.0444 13.7577 19.4514 13.8233C19.8583 13.8888 20.2755 13.8258 20.6451 13.6429C21.521 13.2148 22.4237 12.8444 23.3478 12.5341C23.7374 12.4058 24.077 12.1578 24.3176 11.8254C24.5583 11.4929 24.6877 11.093 24.6881 10.6824V8.68659C24.6881 8.06316 24.9357 7.46524 25.3761 7.0244C25.8165 6.58357 26.4138 6.33594 27.0366 6.33594H34.0599C34.6827 6.33594 35.28 6.58357 35.7204 7.0244C36.1608 7.46524 36.4079 8.06316 36.4079 8.68659V10.6048C36.4083 11.0153 36.5383 11.4153 36.7789 11.7478C37.0195 12.0802 37.3586 12.3283 37.7482 12.4565C39.1156 12.9266 40.436 13.5242 41.6917 14.2417L41.0161 14.9181L37.826 18.1114C34.1611 16.3939 30.0082 16.0246 26.0982 17.0685C22.1882 18.1124 18.771 20.5026 16.4473 23.8189C14.1237 27.1352 13.0424 31.1654 13.3935 35.2008C13.7447 39.2362 15.506 43.0184 18.3674 45.8827C21.2289 48.7469 25.0075 50.5098 29.0389 50.8613C33.0704 51.2128 37.0967 50.1304 40.4098 47.8045C43.7229 45.4786 46.1106 42.0581 47.1535 38.1442C48.1963 34.2304 47.8276 30.0737 46.1117 26.4052L49.3018 23.2119L49.9774 22.5466C50.7031 23.7989 51.301 25.1214 51.7612 26.4939C51.8929 26.8839 52.1431 27.2229 52.4768 27.4635C52.8105 27.704 53.2106 27.8342 53.6218 27.8356H55.5382C56.161 27.8356 56.7582 28.0832 57.1987 28.5241C57.6391 28.9649 57.8866 29.5628 57.8866 30.1863V37.2049C57.8866 37.8284 57.6391 38.4263 57.1987 38.8671C56.7582 39.308 56.161 39.5557 55.5382 39.5557H53.6218C53.1998 39.5461 52.7861 39.6723 52.4411 39.9158C52.0961 40.1593 51.8382 40.5073 51.7055 40.9084Z" stroke="#151515" stroke-width="2.4" stroke-miterlimit="10"/>
<path d="M37.7689 18.1104C34.4008 16.5338 30.613 16.0935 26.9736 16.8556C23.3341 17.6178 20.0399 19.5411 17.5856 22.337C15.1312 25.1328 13.6489 28.6502 13.3618 32.361C13.0748 36.0718 13.9981 39.7756 15.9932 42.9163C17.9883 46.0571 20.9477 48.4651 24.4266 49.779C27.9054 51.0929 31.7158 51.2416 35.2863 50.2029C38.8568 49.1641 41.9942 46.994 44.2276 44.0183C46.4609 41.0426 47.6694 37.422 47.6719 33.7001C47.6768 31.1785 47.1246 28.687 46.0546 26.4042" stroke="#151515" stroke-width="2.4" stroke-miterlimit="10"/>
<path d="M32.155 40.047C32.2149 40.1069 32.1836 40.2094 32.1005 40.2257L22.756 42.0643C22.3868 42.1369 22.0618 41.8121 22.1343 41.4428L23.9712 32.0886C23.9876 32.0054 24.0901 31.9742 24.15 32.0342L32.155 40.047Z" stroke="#B51717" stroke-width="2.4" stroke-miterlimit="10"/>
<path d="M54.532 17.7795C54.5734 17.8208 54.5733 17.8879 54.5319 17.9292L49.9212 22.5335L49.2455 23.2099L46.0553 26.4032L32.3723 40.1106C32.331 40.152 32.2639 40.152 32.2225 40.1106L24.0865 31.9666C24.0452 31.9253 24.0452 31.8583 24.0865 31.817L37.7806 18.1094L40.9598 14.9161L41.6316 14.2436C41.6341 14.2411 41.6375 14.2397 41.641 14.2397V14.2397C41.6446 14.2397 41.648 14.2383 41.6505 14.2358L46.2462 9.63552C46.2876 9.59413 46.3547 9.59413 46.396 9.63552L54.532 17.7795Z" stroke="#B51717" stroke-width="2.4" stroke-miterlimit="10"/>
<path d="M57.0757 15.428L54.6607 17.8562L46.375 9.56236L48.79 7.14518C49.5251 6.41121 50.521 5.99902 51.5593 5.99902C52.5976 5.99902 53.5935 6.41121 54.3286 7.14518L57.0757 9.88396C57.809 10.6198 58.2208 11.6167 58.2208 12.656C58.2208 13.6953 57.809 14.6921 57.0757 15.428Z" stroke="#B51717" stroke-width="2.4" stroke-miterlimit="10"/>
<path d="M46.0535 18.1094L32.2402 31.9361" stroke="#B51717" stroke-width="2.4" stroke-miterlimit="10" stroke-linecap="round"/>
</g>
<defs>
<clipPath id="clip0_19311_399">
<rect width="75" height="75" fill="white"/>
</clipPath>
</defs>
</svg>
