<svg width="75" height="75" viewBox="0 0 75 75" fill="none" xmlns="http://www.w3.org/2000/svg">
<g clip-path="url(#clip0_19311_379)">
<path d="M47.5176 75C62.7054 75 75.0176 62.6878 75.0176 47.5C75.0176 32.3122 62.7054 20 47.5176 20C32.3297 20 20.0176 32.3122 20.0176 47.5C20.0176 62.6878 32.3297 75 47.5176 75Z" fill="#EBEBEB"/>
<path d="M22.0371 61.9181H50.8237C51.8917 61.9176 52.9463 61.6806 53.9119 61.2243C54.8776 60.768 55.7303 60.1036 56.4088 59.2787L66.6258 46.8565C67.5783 45.7011 68.066 44.2322 67.9936 42.7365C67.9212 41.2409 67.2938 39.826 66.2342 38.768C65.6331 38.1655 64.911 37.6973 64.1157 37.3943C63.3203 37.0914 62.4697 36.9605 61.62 37.0103C60.7704 37.0602 59.941 37.2898 59.1865 37.6837C58.4321 38.0777 57.7697 38.6272 57.2432 39.2959L50.1425 48.3039C49.7064 48.8552 49.1513 49.3008 48.5188 49.6074C47.8864 49.9141 47.1928 50.0739 46.4899 50.0749H35.1148" stroke="#151515" stroke-width="2.4" stroke-miterlimit="10" stroke-linecap="round"/>
<path d="M12.793 44.5473C12.793 44.5473 18.3958 37.6993 29.8214 39.4381C29.8214 39.4381 32.7481 39.8562 34.8386 41.6142C34.8752 41.645 34.9215 41.6623 34.9693 41.6623H46.4746C47.6036 41.6623 48.6865 42.1107 49.4849 42.9091C50.2832 43.7075 50.7316 44.7903 50.7316 45.9194C50.7316 47.0484 50.2832 48.1312 49.4849 48.9296C48.6865 49.7279 47.6036 50.1765 46.4746 50.1765H35.1165" stroke="#151515" stroke-width="2.4" stroke-miterlimit="10" stroke-linecap="round"/>
<path d="M3.75778 46.1752L7.87372 44.0143C8.35187 43.7632 8.87481 43.6088 9.41263 43.5599C9.95045 43.511 10.4928 43.5684 11.0084 43.729C11.524 43.8896 12.0028 44.1502 12.4177 44.4959C12.8327 44.8416 13.1754 45.2656 13.4264 45.7437L21.7179 61.5367C22.2249 62.5024 22.3276 63.6299 22.0033 64.6712C21.679 65.7125 20.9541 66.5824 19.9884 67.0894L15.8725 69.2503C15.6726 69.3553 15.4392 69.3765 15.2236 69.3093C15.008 69.2422 14.8278 69.0922 14.7229 68.8923L3.39578 47.3173C3.29081 47.1174 3.2696 46.8839 3.33675 46.6683C3.4039 46.4527 3.55391 46.2727 3.75384 46.1677L3.75778 46.1752Z" stroke="#151515" stroke-width="2.4" stroke-miterlimit="10"/>
<path d="M41.762 20.0034C41.687 19.9786 41.6766 19.875 41.7447 19.8352C43.1049 19.0408 44.1789 17.8331 44.8085 16.3853C45.4662 14.8729 45.6016 13.1846 45.1934 11.5867C44.7852 9.9888 43.8566 8.57231 42.5541 7.56071C41.2516 6.54911 39.6492 6 38 6C36.3508 6 34.7487 6.54911 33.4461 7.56071C32.1436 8.57231 31.2148 9.9888 30.8066 11.5867C30.3984 13.1846 30.534 14.8729 31.1917 16.3853C31.8214 17.8331 32.8953 19.0408 34.2555 19.8352C34.3236 19.875 34.3132 19.9786 34.2383 20.0034C31.8763 20.7831 29.8131 22.2784 28.3364 24.2843C26.8179 26.3469 25.9992 28.8412 26 31.4024V31.9472C26 31.9965 26.04 32.0365 26.0894 32.0365H49.9106C49.96 32.0365 50 31.9965 50 31.9472V31.4024C50.0008 28.8412 49.1821 26.3469 47.6636 24.2843C46.1869 22.2784 44.124 20.7831 41.762 20.0034Z" stroke="#B51717" stroke-width="2.6" stroke-miterlimit="10"/>
</g>
<defs>
<clipPath id="clip0_19311_379">
<rect width="75" height="75" fill="white"/>
</clipPath>
</defs>
</svg>
