<svg width="75" height="75" viewBox="0 0 75 75" fill="none" xmlns="http://www.w3.org/2000/svg">
<g clip-path="url(#clip0_19311_365)">
<path d="M47.5059 75C62.6937 75 75.0059 62.6878 75.0059 47.5C75.0059 32.3122 62.6937 20 47.5059 20C32.318 20 20.0059 32.3122 20.0059 47.5C20.0059 62.6878 32.318 75 47.5059 75Z" fill="#EBEBEB"/>
<path d="M53.4232 19.8999L62.3726 14.733" stroke="#B51717" stroke-width="3" stroke-linecap="round" stroke-linejoin="round"/>
<path d="M50.2571 13.7749L57.2209 5.80994" stroke="#B51717" stroke-width="3" stroke-linecap="round" stroke-linejoin="round"/>
<path d="M57.153 25.716L67.5249 23.6541" stroke="#B51717" stroke-width="3" stroke-linecap="round" stroke-linejoin="round"/>
<path d="M9.80086 30.888L36.0875 15.9446L48.6358 38.0181L22.3492 52.9615C20.8983 53.7864 19.2988 54.3165 17.6425 54.5215C15.9862 54.7265 14.3057 54.6023 12.6975 54.1561C11.0893 53.7099 9.58508 52.9504 8.27118 51.9213C6.95728 50.8922 5.85959 49.6137 5.04111 48.1593C3.38348 45.2374 2.9537 41.777 3.8462 38.5385C4.73871 35.2999 6.88048 32.5482 9.80086 30.888Z" stroke="#151515" stroke-width="2.4" stroke-miterlimit="10"/>
<path d="M25.1574 51.3134L12.6309 29.2783" stroke="#151515" stroke-width="2.4" stroke-miterlimit="10"/>
<path d="M28.2122 49.5797L35.9763 45.166L42.8506 57.2584C43.3469 58.1315 43.4761 59.1659 43.2097 60.1342C42.9433 61.1025 42.3032 61.9253 41.4301 62.4216L40.2113 63.1145C39.3383 63.6108 38.3038 63.74 37.3355 63.4736C36.3672 63.2072 35.5444 62.567 35.0481 61.694L28.1738 49.6016L28.2122 49.5797Z" stroke="#151515" stroke-width="2.4" stroke-miterlimit="10"/>
<path d="M36.0881 15.9445L48.6364 38.018C52.9743 35.552 58.6237 40.62 58.6237 40.62L38.9828 6.07023C38.9828 6.07023 40.426 13.4785 36.0881 15.9445Z" stroke="#151515" stroke-width="2.4" stroke-linecap="round" stroke-linejoin="round"/>
</g>
<defs>
<clipPath id="clip0_19311_365">
<rect width="75" height="75" fill="white"/>
</clipPath>
</defs>
</svg>
