<svg width="1920" height="825" viewBox="0 0 1920 825" fill="none" xmlns="http://www.w3.org/2000/svg">
<g clip-path="url(#clip0_14020_1878)">
<rect width="1920" height="825" fill="white"/>
<rect y="-0.636719" width="1798.68" height="94.9451" fill="#F4F4F4"/>
<path d="M63.3999 37.6584V51.2161H61.7721V44.1694H57.4452V48.0842H49.1416V38.874H50.7488V42.1295H55.8586V38.874H57.4452V42.8095H61.7721V37.6584H63.3999ZM63.8119 54.2037V55.5636H51.5523V49.8768H53.1801V54.2037H63.8119ZM50.7488 46.7449H55.8586V43.407H50.7488V46.7449ZM82.2735 40.3576V41.6968H67.2735V40.3576H73.9905V37.9468H75.577V40.3576H82.2735ZM83.2213 52.4729V53.8122H66.4493V52.4729H73.9905V49.8974C70.735 49.7223 68.757 48.4551 68.7776 46.3946C68.757 44.2106 71.0647 42.9331 74.7941 42.9537C78.4823 42.9331 80.8106 44.2106 80.8106 46.3946C80.8106 48.4551 78.8119 49.7223 75.577 49.8974V52.4729H83.2213ZM74.7941 44.2312C72.0537 44.2312 70.3847 45.0348 70.4053 46.3946C70.3847 47.7957 72.0537 48.5787 74.7941 48.5993C77.4933 48.5787 79.1622 47.7957 79.1622 46.3946C79.1622 45.0348 77.4933 44.2312 74.7941 44.2312Z" fill="black"/>
<path d="M851.127 37.6378V55.9551H849.581V37.6378H851.127ZM847.418 38.0911V55.0073H845.893V45.5705H842.803V44.2518H845.893V38.0911H847.418ZM840.845 42.8713C840.845 46.0444 842.267 49.1968 844.801 50.6598L843.812 51.8548C842.009 50.7731 840.732 48.7951 840.103 46.4565C839.434 48.9805 838.105 51.1337 836.271 52.2875L835.241 51.0718C837.796 49.5471 839.279 46.2092 839.279 42.8713V41.1405H835.756V39.8012H844.204V41.1405H840.845V42.8713ZM868.27 38.4207V44.6021H862.851V46.951H870.392V48.2696H853.702V46.951H861.243V44.6021H855.866V38.4207H868.27ZM857.452 39.7188V43.304H866.662V39.7188H857.452ZM868.331 50.1859V55.9551H866.704V51.4839H855.557V50.1859H868.331Z" fill="black"/>
<path d="M1481.23 41.0375C1481.23 43.4688 1483.02 45.6941 1485.74 46.6419L1484.92 47.8988C1482.83 47.157 1481.23 45.6529 1480.45 43.7573C1479.66 45.8383 1477.98 47.4558 1475.83 48.249L1474.97 46.9922C1477.71 46.0238 1479.62 43.6543 1479.64 41.0375V40.2545H1475.46V38.9359H1485.35V40.2545H1481.23V41.0375ZM1489.35 37.6378V42.4798H1492.11V43.8603H1489.35V48.6817H1487.74V37.6378H1489.35ZM1489.35 49.6501V55.9551H1487.74V50.9688H1477.36V49.6501H1489.35ZM1499.57 40.5224C1499.55 43.1392 1501.4 45.4468 1504.1 46.3534L1503.19 47.6103C1501.17 46.8479 1499.59 45.3644 1498.8 43.4276C1498.01 45.622 1496.33 47.3321 1494.13 48.1666L1493.24 46.8479C1496.06 45.8589 1497.94 43.4276 1497.96 40.5842V38.6886H1499.57V40.5224ZM1508.45 37.6378V48.4963H1506.82V42.9125H1502.74V41.5732H1506.82V37.6378H1508.45ZM1502.37 49.032C1506.18 49.032 1508.51 50.2889 1508.51 52.4936C1508.51 54.6776 1506.18 55.9139 1502.37 55.9139C1498.56 55.9139 1496.23 54.6776 1496.23 52.4936C1496.23 50.2889 1498.56 49.032 1502.37 49.032ZM1502.37 50.3095C1499.57 50.3095 1497.82 51.1337 1497.84 52.4936C1497.82 53.8122 1499.57 54.6158 1502.37 54.6158C1505.17 54.6158 1506.9 53.8122 1506.9 52.4936C1506.9 51.1337 1505.17 50.3095 1502.37 50.3095ZM1517.7 43.2628C1517.68 46.2092 1519.8 49.4441 1522.46 50.701L1521.53 51.9784C1519.47 50.9791 1517.73 48.7951 1516.92 46.3122C1516.07 49.0114 1514.23 51.3809 1512.18 52.4317L1511.19 51.1543C1513.83 49.8768 1516.09 46.3946 1516.11 43.2628V40.8727H1511.85V39.5334H1521.82V40.8727H1517.7V43.2628ZM1525.67 37.6378V45.0554H1528.74V46.4359H1525.67V55.9551H1524.07V37.6378H1525.67Z" fill="black"/>
<path d="M1672.44 41.0375C1672.44 43.4688 1674.23 45.6941 1676.95 46.6419L1676.13 47.8988C1674.04 47.157 1672.44 45.6529 1671.66 43.7573C1670.87 45.8383 1669.19 47.4558 1667.04 48.249L1666.17 46.9922C1668.91 46.0238 1670.83 43.6543 1670.85 41.0375V40.2545H1666.67V38.9359H1676.56V40.2545H1672.44V41.0375ZM1680.56 37.6378V42.4798H1683.32V43.8603H1680.56V48.6817H1678.95V37.6378H1680.56ZM1680.56 49.6501V55.9551H1678.95V50.9688H1668.56V49.6501H1680.56ZM1690.78 40.5224C1690.76 43.1392 1692.61 45.4468 1695.31 46.3534L1694.4 47.6103C1692.38 46.8479 1690.8 45.3644 1690.01 43.4276C1689.22 45.622 1687.54 47.3321 1685.34 48.1666L1684.45 46.8479C1687.27 45.8589 1689.15 43.4276 1689.17 40.5842V38.6886H1690.78V40.5224ZM1699.66 37.6378V48.4963H1698.03V42.9125H1693.95V41.5732H1698.03V37.6378H1699.66ZM1693.58 49.032C1697.39 49.032 1699.72 50.2889 1699.72 52.4936C1699.72 54.6776 1697.39 55.9139 1693.58 55.9139C1689.77 55.9139 1687.44 54.6776 1687.44 52.4936C1687.44 50.2889 1689.77 49.032 1693.58 49.032ZM1693.58 50.3095C1690.78 50.3095 1689.02 51.1337 1689.05 52.4936C1689.02 53.8122 1690.78 54.6158 1693.58 54.6158C1696.38 54.6158 1698.11 53.8122 1698.11 52.4936C1698.11 51.1337 1696.38 50.3095 1693.58 50.3095ZM1707.9 38.3177C1710.64 38.3383 1712.64 39.9867 1712.64 42.3768C1712.64 44.7669 1710.64 46.4153 1707.9 46.4153C1705.12 46.4153 1703.14 44.7669 1703.14 42.3768C1703.14 39.9867 1705.12 38.3383 1707.9 38.3177ZM1707.9 39.6776C1706.06 39.6776 1704.7 40.7903 1704.73 42.3768C1704.7 43.9839 1706.06 45.0966 1707.9 45.0966C1709.71 45.0966 1711.07 43.9839 1711.07 42.3768C1711.07 40.7903 1709.71 39.6776 1707.9 39.6776ZM1717.83 37.6378V47.054H1716.22V37.6378H1717.83ZM1717.83 47.94V52.3493H1707.55V54.4098H1718.49V55.7078H1705.96V51.1337H1716.22V49.2381H1705.92V47.94H1717.83Z" fill="black"/>
<path d="M184.306 39.554C184.286 44.8493 182.493 49.6914 175.9 52.9262L174.993 51.69C178.444 50.021 180.515 47.8988 181.628 45.4262L175.343 46.0238L175.076 44.6021L182.122 44.1282C182.442 43.0979 182.627 42.0162 182.699 40.8933H176.003V39.554H184.306ZM188.983 37.6378V45.0966H191.951V46.4565H188.983V55.9551H187.376V37.6378H188.983ZM200.584 39.8837V41.1817H195.309V44.8081H199.739V46.1062H195.309V50.2271C197.936 50.1962 199.543 50.1034 201.532 49.7326L201.676 51.0512C199.554 51.4839 197.823 51.5251 194.918 51.5457H193.764V39.8837H200.584ZM208.723 37.6378V55.9551H207.157V37.6378H208.723ZM204.973 38.0911V55.0073H203.427V45.9414H200.728V44.6021H203.427V38.0911H204.973ZM225.968 39.4922V41.326C225.948 43.5718 225.948 46.0856 225.288 49.7738L223.64 49.5883C224.341 46.0856 224.341 43.51 224.341 41.326V40.8315H213.049V39.4922H225.968ZM227.967 52.0196V53.3589H211.277V52.0196H217.83V45.4675H219.416V52.0196H227.967ZM244.636 37.6378V55.9963H243.029V37.6378H244.636ZM239.073 39.3479V45.8589H232.232V50.1859C235.271 50.1859 237.981 50.0519 241.257 49.5265L241.422 50.8864C238.043 51.4221 235.261 51.5457 232.108 51.5457H230.584V44.5403H237.445V40.6872H230.543V39.3479H239.073Z" fill="black"/>
<mask id="path-7-inside-1_14020_1878" fill="white">
<path d="M0 199.804H131.868V94.3092H0V199.804Z"/>
</mask>
<path d="M0 199.804H131.868V94.3092H0V199.804Z" fill="white"/>
<path d="M0 198.485H131.868V201.122H0V198.485Z" fill="#CFCFCF" mask="url(#path-7-inside-1_14020_1878)"/>
<path d="M65.8928 154.712C62.9257 154.712 60.8035 153.125 60.7005 150.756H62.5755C62.6785 152.178 64.1002 153.064 65.8722 153.064C67.8296 153.064 69.2719 151.992 69.2719 150.447C69.2719 148.819 67.9738 147.665 65.6455 147.665H64.4299V146.037H65.6455C67.4587 146.037 68.7156 145.028 68.7156 143.483C68.7156 141.999 67.6235 140.989 65.934 140.989C64.3474 140.989 62.8845 141.875 62.8021 143.338H61.0095C61.1126 140.969 63.2966 139.382 65.9546 139.382C68.798 139.382 70.5288 141.237 70.5082 143.379C70.5288 145.069 69.5398 146.326 67.9738 146.759V146.862C69.9106 147.171 71.1057 148.551 71.0851 150.447C71.1057 152.899 68.8598 154.712 65.8928 154.712Z" fill="black"/>
<mask id="path-10-inside-2_14020_1878" fill="white">
<path d="M290.11 199.804H1416.26V94.3092H290.11V199.804Z"/>
</mask>
<path d="M290.11 199.804H1416.26V94.3092H290.11V199.804Z" fill="white"/>
<path d="M290.11 198.485H1416.26V201.122H290.11V198.485Z" fill="#CFCFCF" mask="url(#path-10-inside-2_14020_1878)"/>
<path d="M338.921 137.858V156.216H337.294V137.858H338.921ZM329.176 139.279C331.895 139.3 333.853 141.772 333.853 145.667C333.853 149.561 331.895 152.033 329.176 152.033C326.435 152.033 324.498 149.561 324.498 145.667C324.498 141.772 326.435 139.3 329.176 139.279ZM329.176 140.722C327.342 140.742 326.064 142.679 326.064 145.667C326.064 148.654 327.342 150.591 329.176 150.591C331.009 150.591 332.287 148.654 332.287 145.667C332.287 142.679 331.009 140.742 329.176 140.722ZM353.942 140.886C353.942 143.276 355.941 145.399 358.66 146.223L357.836 147.5C355.693 146.82 353.973 145.347 353.138 143.462C352.335 145.481 350.604 147.057 348.42 147.809L347.575 146.532C350.336 145.667 352.314 143.4 352.314 140.886V140.412H348.029V139.094H358.166V140.412H353.942V140.886ZM362.472 137.858V147.768H360.865V137.858H362.472ZM352.211 148.675V150.9H360.865V148.675H362.472V155.928H350.604V148.675H352.211ZM352.211 154.609H360.865V152.198H352.211V154.609ZM380.707 139.774C380.687 145.069 378.77 149.952 372.156 153.187L371.25 151.889C374.68 150.241 376.803 148.129 377.967 145.646L371.6 146.264L371.332 144.822L378.482 144.348C378.812 143.328 379.007 142.246 379.079 141.113H372.259V139.774H380.707ZM386.023 137.858V156.175H384.395V137.858H386.023ZM405.886 152.487V153.826H389.114V152.487H396.655V148.531H391.092V139.156H392.72V142.473H402.239V139.156H403.825V148.531H398.241V152.487H405.886ZM392.72 147.212H402.239V143.792H392.72V147.212ZM422.143 146.676V148.015H409.491V139.568H421.957V140.907H411.099V146.676H422.143ZM424.121 152.322V153.682H407.349V152.322H424.121ZM439.945 139.259V147.397H431.662V139.259H439.945ZM433.248 140.598V146.079H438.338V140.598H433.248ZM445.199 137.858V142.885H447.96V144.245H445.199V150.055H443.592V137.858H445.199ZM440.439 149.705C440.419 152.342 443.406 154.279 446.641 154.815L445.982 156.092C443.272 155.598 440.748 154.197 439.656 152.095C438.544 154.197 436.009 155.598 433.29 156.092L432.651 154.815C435.886 154.279 438.832 152.342 438.832 149.705V149.149H440.439V149.705ZM455.707 140.886C455.707 143.276 457.706 145.399 460.426 146.223L459.601 147.5C457.459 146.82 455.738 145.347 454.904 143.462C454.1 145.481 452.369 147.057 450.185 147.809L449.34 146.532C452.101 145.667 454.079 143.4 454.079 140.886V140.412H449.794V139.094H459.931V140.412H455.707V140.886ZM464.237 137.858V147.768H462.63V137.858H464.237ZM453.976 148.675V150.9H462.63V148.675H464.237V155.928H452.369V148.675H453.976ZM453.976 154.609H462.63V152.198H453.976V154.609ZM482.452 137.858V156.216H480.824V137.858H482.452ZM472.706 139.279C475.426 139.3 477.383 141.772 477.383 145.667C477.383 149.561 475.426 152.033 472.706 152.033C469.965 152.033 468.029 149.561 468.029 145.667C468.029 141.772 469.965 139.3 472.706 139.279ZM472.706 140.722C470.872 140.742 469.595 142.679 469.595 145.667C469.595 148.654 470.872 150.591 472.706 150.591C474.54 150.591 475.817 148.654 475.817 145.667C475.817 142.679 474.54 140.742 472.706 140.722ZM488.097 139.856V150.117C490.075 150.097 491.95 149.983 494.155 149.52L494.382 150.921C491.93 151.436 489.89 151.539 487.644 151.539H486.49V139.856H488.097ZM501.263 137.858V156.175H499.718V137.858H501.263ZM497.349 138.311V155.248H495.803V145.378H491.621V144.039H495.803V138.311H497.349ZM506.785 139.588L506.641 150.303H504.91L504.766 139.588H506.785ZM505.776 154.629C505.055 154.629 504.437 154.032 504.457 153.29C504.437 152.569 505.055 151.972 505.776 151.972C506.497 151.972 507.095 152.569 507.095 153.29C507.095 154.032 506.497 154.629 505.776 154.629ZM515.666 148.819C515.687 144.925 516.737 141.69 518.633 138.95H520.199C518.798 140.989 517.5 145.151 517.5 148.819C517.5 152.487 518.798 156.669 520.199 158.709H518.633C516.737 155.948 515.687 152.713 515.666 148.819ZM526.627 139.279C529.327 139.3 531.243 141.772 531.263 145.667C531.243 149.561 529.327 152.033 526.627 152.033C523.908 152.033 522.012 149.561 522.012 145.667C522.012 141.772 523.908 139.3 526.627 139.279ZM526.627 140.722C524.814 140.742 523.537 142.679 523.537 145.667C523.537 148.654 524.814 150.591 526.627 150.591C528.461 150.591 529.698 148.654 529.698 145.667C529.698 142.679 528.461 140.742 526.627 140.722ZM535.899 137.858V145.172H538.969V146.573H535.899V156.175H534.292V137.858H535.899ZM555.062 137.858V156.216H553.434V137.858H555.062ZM545.316 139.279C548.035 139.3 549.993 141.772 549.993 145.667C549.993 149.561 548.035 152.033 545.316 152.033C542.575 152.033 540.638 149.561 540.638 145.667C540.638 141.772 542.575 139.3 545.316 139.279ZM545.316 140.722C543.482 140.742 542.204 142.679 542.204 145.667C542.204 148.654 543.482 150.591 545.316 150.591C547.149 150.591 548.427 148.654 548.427 145.667C548.427 142.679 547.149 140.742 545.316 140.722ZM572.802 138.764V140.289C572.802 141.999 572.802 143.853 572.307 146.367L570.7 146.223C570.927 145.151 571.051 144.193 571.133 143.318L559.965 143.853L559.739 142.473L571.195 142.102C571.215 141.463 571.215 140.866 571.215 140.289V140.083H560.192V138.764H572.802ZM574.883 147.603V148.922H558.214V147.603H565.013V144.904H566.641V147.603H574.883ZM573.235 154.568V155.886H560.336V150.488H561.964V154.568H573.235ZM581.002 148.819C580.982 152.713 579.931 155.948 578.035 158.709H576.469C577.871 156.669 579.169 152.487 579.169 148.819C579.169 145.151 577.871 140.989 576.469 138.95H578.035C579.931 141.69 580.982 144.925 581.002 148.819Z" fill="black"/>
<mask id="path-13-inside-3_14020_1878" fill="white">
<path d="M1416.26 199.804H1587.69V94.3092H1416.26V199.804Z"/>
</mask>
<path d="M1416.26 199.804H1587.69V94.3092H1416.26V199.804Z" fill="white"/>
<path d="M1416.26 198.485H1587.69V201.122H1416.26V198.485Z" fill="#CFCFCF" mask="url(#path-13-inside-3_14020_1878)"/>
<path d="M1473.34 152.466V153.826H1456.57V152.466H1464.13V148.015H1465.76V152.466H1473.34ZM1465.76 141.34C1465.76 144.265 1469.38 146.779 1472.53 147.294L1471.88 148.572C1469.07 148.026 1466.12 146.243 1464.95 143.689C1463.77 146.254 1460.82 148.077 1458.07 148.654L1457.39 147.356C1460.48 146.82 1464.09 144.265 1464.09 141.34V140.886H1457.95V139.526H1471.9V140.886H1465.76V141.34ZM1481.06 141.319C1481.06 143.874 1482.92 146.285 1485.6 147.253L1484.69 148.51C1482.68 147.706 1481.09 146.11 1480.3 144.121C1479.52 146.336 1477.85 148.098 1475.69 148.963L1474.82 147.645C1477.56 146.635 1479.46 144.08 1479.48 141.257V138.991H1481.06V141.319ZM1489.99 137.878V151.601H1488.36V143.544H1484.28V142.184H1488.36V137.878H1489.99ZM1490.4 154.423V155.783H1478.14V150.035H1479.77V154.423H1490.4ZM1502.43 139.526V140.886H1495.47V144.678H1502.02V145.996H1495.47V150.426C1498.76 150.426 1501.08 150.292 1503.83 149.829L1504.02 151.168C1501.15 151.642 1498.74 151.745 1495.28 151.765H1493.84V139.526H1502.43ZM1507.21 137.858V145.234H1510.28V146.614H1507.21V156.175H1505.6V137.858H1507.21ZM1517.47 143.483C1517.45 146.429 1519.57 149.664 1522.23 150.921L1521.3 152.198C1519.24 151.199 1517.5 149.015 1516.69 146.532C1515.84 149.231 1514 151.601 1511.95 152.651L1510.96 151.374C1513.6 150.097 1515.87 146.614 1515.89 143.483V141.092H1511.62V139.753H1521.59V141.092H1517.47V143.483ZM1525.45 137.858V145.275H1528.52V146.656H1525.45V156.175H1523.84V137.858H1525.45ZM1544.65 137.858V156.175H1543.02V137.858H1544.65ZM1539.23 139.856C1539.21 145.131 1536.76 149.787 1530.62 152.734L1529.73 151.415C1534.69 149.066 1537.21 145.553 1537.58 141.175H1530.58V139.856H1539.23Z" fill="#4E4E4E"/>
<mask id="path-16-inside-4_14020_1878" fill="white">
<path d="M1587.69 199.804H1798.68V94.3092H1587.69V199.804Z"/>
</mask>
<path d="M1587.69 199.804H1798.68V94.3092H1587.69V199.804Z" fill="white"/>
<path d="M1587.69 198.485H1798.68V201.122H1587.69V198.485Z" fill="#CFCFCF" mask="url(#path-16-inside-4_14020_1878)"/>
<path d="M1636.57 154.506L1636.55 153.146L1641.63 147.789C1643.41 145.914 1644.25 144.904 1644.25 143.524C1644.25 141.999 1642.95 140.989 1641.28 140.989C1639.51 140.989 1638.38 142.123 1638.38 143.792H1636.63C1636.61 141.154 1638.65 139.382 1641.35 139.382C1644.05 139.382 1645.98 141.195 1645.98 143.524C1645.98 145.193 1645.2 146.491 1642.56 149.211L1639.14 152.734V152.858H1646.25V154.506H1636.57ZM1653.83 154.712C1650.52 154.712 1648.62 151.93 1648.62 147.047C1648.62 142.205 1650.56 139.382 1653.83 139.382C1657.11 139.382 1659.05 142.205 1659.05 147.047C1659.05 151.93 1657.13 154.712 1653.83 154.712ZM1653.83 153.064C1655.98 153.064 1657.23 150.9 1657.23 147.047C1657.23 143.194 1655.98 140.989 1653.83 140.989C1651.69 140.989 1650.41 143.194 1650.41 147.047C1650.41 150.9 1651.67 153.064 1653.83 153.064ZM1661.52 154.506L1661.5 153.146L1666.59 147.789C1668.36 145.914 1669.2 144.904 1669.2 143.524C1669.2 141.999 1667.91 140.989 1666.24 140.989C1664.46 140.989 1663.33 142.123 1663.33 143.792H1661.58C1661.56 141.154 1663.6 139.382 1666.3 139.382C1669 139.382 1670.93 141.195 1670.93 143.524C1670.93 145.193 1670.15 146.491 1667.51 149.211L1664.09 152.734V152.858H1671.2V154.506H1661.52ZM1679.05 154.712C1676.09 154.712 1673.96 153.125 1673.86 150.756H1675.74C1675.84 152.178 1677.26 153.064 1679.03 153.064C1680.99 153.064 1682.43 151.992 1682.43 150.447C1682.43 148.819 1681.13 147.665 1678.81 147.665H1677.59V146.037H1678.81C1680.62 146.037 1681.88 145.028 1681.88 143.483C1681.88 141.999 1680.78 140.989 1679.09 140.989C1677.51 140.989 1676.04 141.875 1675.96 143.338H1674.17C1674.27 140.969 1676.46 139.382 1679.11 139.382C1681.96 139.382 1683.69 141.237 1683.67 143.379C1683.69 145.069 1682.7 146.326 1681.13 146.759V146.862C1683.07 147.171 1684.27 148.551 1684.24 150.447C1684.27 152.899 1682.02 154.712 1679.05 154.712ZM1693.35 146.243V147.871H1686.82V146.243H1693.35ZM1700.93 154.712C1697.62 154.712 1695.72 151.93 1695.72 147.047C1695.72 142.205 1697.66 139.382 1700.93 139.382C1704.21 139.382 1706.15 142.205 1706.15 147.047C1706.15 151.93 1704.23 154.712 1700.93 154.712ZM1700.93 153.064C1703.08 153.064 1704.33 150.9 1704.33 147.047C1704.33 143.194 1703.08 140.989 1700.93 140.989C1698.79 140.989 1697.51 143.194 1697.51 147.047C1697.51 150.9 1698.77 153.064 1700.93 153.064ZM1713.89 139.588V154.506H1712.02V141.525H1711.94L1708.31 143.936V142.061L1712.02 139.588H1713.89ZM1724.3 146.243V147.871H1717.77V146.243H1724.3ZM1731.88 154.712C1728.56 154.712 1726.67 151.93 1726.67 147.047C1726.67 142.205 1728.61 139.382 1731.88 139.382C1735.16 139.382 1737.09 142.205 1737.09 147.047C1737.09 151.93 1735.18 154.712 1731.88 154.712ZM1731.88 153.064C1734.02 153.064 1735.28 150.9 1735.28 147.047C1735.28 143.194 1734.02 140.989 1731.88 140.989C1729.74 140.989 1728.46 143.194 1728.46 147.047C1728.46 150.9 1729.72 153.064 1731.88 153.064ZM1744.53 139.382C1747.11 139.403 1749.95 140.948 1749.95 146.45C1749.95 151.745 1747.79 154.712 1744.29 154.712C1741.67 154.712 1739.81 153.105 1739.44 150.735H1741.28C1741.61 152.075 1742.62 153.064 1744.29 153.064C1746.72 153.064 1748.2 150.962 1748.22 147.336H1748.02C1747.15 148.572 1745.79 149.314 1744.2 149.314C1741.52 149.314 1739.32 147.274 1739.32 144.389C1739.32 141.608 1741.36 139.362 1744.53 139.382ZM1744.53 141.01C1742.58 141.01 1741.11 142.535 1741.13 144.368C1741.13 146.223 1742.51 147.686 1744.47 147.686C1746.41 147.686 1747.93 146.079 1747.93 144.327C1747.93 142.617 1746.51 141.01 1744.53 141.01Z" fill="#4E4E4E"/>
<mask id="path-19-inside-5_14020_1878" fill="white">
<path d="M131.868 199.804H290.11V94.3092H131.868V199.804Z"/>
</mask>
<path d="M131.868 199.804H290.11V94.3092H131.868V199.804Z" fill="white"/>
<path d="M131.868 198.485H290.11V201.122H131.868V198.485Z" fill="#CFCFCF" mask="url(#path-19-inside-5_14020_1878)"/>
<path d="M199.739 137.858V156.175H198.173V146.47H195.618V155.248H194.073V138.249H195.618V145.131H198.173V137.858H199.739ZM191.724 140V151.25H184.718V140H191.724ZM186.243 141.298V149.952H190.199V141.298H186.243ZM217.005 144.059V145.399H204.396V138.805H206.044V144.059H217.005ZM218.963 148.057V149.396H214.615V156.175H213.008V149.396H208.249V156.175H206.641V149.396H202.273V148.057H218.963ZM235.673 137.858V147.191H234.066V143.297H230.254C229.904 145.409 228.029 146.82 225.556 146.82C222.795 146.82 220.797 145.11 220.797 142.638C220.797 140.206 222.795 138.517 225.556 138.517C228.008 138.517 229.873 139.887 230.233 141.937H234.066V137.858H235.673ZM225.556 139.856C223.681 139.836 222.342 141.01 222.342 142.638C222.342 144.307 223.681 145.481 225.556 145.481C227.369 145.481 228.729 144.307 228.729 142.638C228.729 141.01 227.369 139.836 225.556 139.856ZM235.673 148.201V152.59H225.453V154.629H236.374V155.928H223.846V151.353H234.066V149.499H223.805V148.201H235.673Z" fill="#4E4E4E"/>
<mask id="path-22-inside-6_14020_1878" fill="white">
<path d="M0 305.297H131.868V199.802H0V305.297Z"/>
</mask>
<path d="M0 305.297H131.868V199.802H0V305.297Z" fill="white"/>
<path d="M0 303.978H131.868V306.616H0V303.978Z" fill="#CFCFCF" mask="url(#path-22-inside-6_14020_1878)"/>
<path d="M60.7417 260L60.7211 258.64L65.8104 253.283C67.5823 251.408 68.4271 250.398 68.4271 249.018C68.4271 247.493 67.129 246.484 65.4601 246.484C63.6881 246.484 62.5549 247.617 62.5549 249.286H60.8035C60.7829 246.648 62.8227 244.876 65.5219 244.876C68.2211 244.876 70.1579 246.69 70.1579 249.018C70.1579 250.687 69.3749 251.985 66.7376 254.705L63.3172 258.228V258.352H70.4257V260H60.7417Z" fill="black"/>
<mask id="path-25-inside-7_14020_1878" fill="white">
<path d="M290.11 305.297H1416.26V199.802H290.11V305.297Z"/>
</mask>
<path d="M290.11 305.297H1416.26V199.802H290.11V305.297Z" fill="white"/>
<path d="M290.11 303.978H1416.26V306.616H290.11V303.978Z" fill="#CFCFCF" mask="url(#path-25-inside-7_14020_1878)"/>
<path d="M338.922 243.352V261.71H337.294V243.352H338.922ZM329.176 244.773C331.896 244.794 333.853 247.266 333.853 251.161C333.853 255.055 331.896 257.527 329.176 257.527C326.435 257.527 324.499 255.055 324.499 251.161C324.499 247.266 326.435 244.794 329.176 244.773ZM329.176 246.216C327.342 246.236 326.065 248.173 326.065 251.161C326.065 254.148 327.342 256.085 329.176 256.085C331.01 256.085 332.287 254.148 332.287 251.161C332.287 248.173 331.01 246.236 329.176 246.216ZM353.942 246.38C353.942 248.771 355.941 250.893 358.661 251.717L357.837 252.995C355.694 252.315 353.973 250.841 353.139 248.956C352.335 250.975 350.604 252.552 348.42 253.304L347.576 252.026C350.337 251.161 352.315 248.894 352.315 246.38V245.907H348.029V244.588H358.166V245.907H353.942V246.38ZM362.473 243.352V253.262H360.865V243.352H362.473ZM352.212 254.169V256.394H360.865V254.169H362.473V261.422H350.604V254.169H352.212ZM352.212 260.103H360.865V257.692H352.212V260.103ZM380.707 245.268C380.687 250.563 378.771 255.446 372.157 258.681L371.25 257.383C374.681 255.735 376.803 253.623 377.967 251.14L371.6 251.758L371.332 250.316L378.482 249.842C378.812 248.822 379.008 247.74 379.08 246.607H372.26V245.268H380.707ZM386.023 243.352V261.669H384.396V243.352H386.023ZM405.886 257.981V259.32H389.114V257.981H396.655V254.025H391.092V244.65H392.72V247.967H402.239V244.65H403.826V254.025H398.242V257.981H405.886ZM392.72 252.706H402.239V249.286H392.72V252.706ZM422.143 252.17V253.51H409.492V245.062H421.957V246.401H411.099V252.17H422.143ZM424.121 257.816V259.176H407.349V257.816H424.121ZM439.945 244.753V252.891H431.662V244.753H439.945ZM433.249 246.092V251.573H438.338V246.092H433.249ZM445.199 243.352V248.379H447.96V249.739H445.199V255.549H443.592V243.352H445.199ZM440.44 255.199C440.419 257.837 443.407 259.773 446.641 260.309L445.982 261.587C443.273 261.092 440.749 259.691 439.657 257.589C438.544 259.691 436.01 261.092 433.29 261.587L432.651 260.309C435.886 259.773 438.832 257.837 438.832 255.199V254.643H440.44V255.199ZM455.707 246.38C455.707 248.771 457.706 250.893 460.426 251.717L459.602 252.995C457.459 252.315 455.738 250.841 454.904 248.956C454.1 250.975 452.369 252.552 450.185 253.304L449.341 252.026C452.102 251.161 454.08 248.894 454.08 246.38V245.907H449.794V244.588H459.931V245.907H455.707V246.38ZM464.238 243.352V253.262H462.63V243.352H464.238ZM453.977 254.169V256.394H462.63V254.169H464.238V261.422H452.369V254.169H453.977ZM453.977 260.103H462.63V257.692H453.977V260.103ZM482.452 243.352V261.71H480.824V243.352H482.452ZM472.706 244.773C475.426 244.794 477.383 247.266 477.383 251.161C477.383 255.055 475.426 257.527 472.706 257.527C469.966 257.527 468.029 255.055 468.029 251.161C468.029 247.266 469.966 244.794 472.706 244.773ZM472.706 246.216C470.872 246.236 469.595 248.173 469.595 251.161C469.595 254.148 470.872 256.085 472.706 256.085C474.54 256.085 475.817 254.148 475.817 251.161C475.817 248.173 474.54 246.236 472.706 246.216ZM488.097 245.35V255.611C490.076 255.591 491.951 255.477 494.155 255.014L494.382 256.415C491.93 256.93 489.89 257.033 487.644 257.033H486.49V245.35H488.097ZM501.264 243.352V261.669H499.718V243.352H501.264ZM497.349 243.805V260.742H495.804V250.872H491.621V249.533H495.804V243.805H497.349ZM506.786 245.082L506.641 255.797H504.911L504.766 245.082H506.786ZM505.776 260.124C505.055 260.124 504.437 259.526 504.457 258.784C504.437 258.063 505.055 257.466 505.776 257.466C506.497 257.466 507.095 258.063 507.095 258.784C507.095 259.526 506.497 260.124 505.776 260.124ZM515.666 254.313C515.687 250.419 516.738 247.184 518.633 244.444H520.199C518.798 246.484 517.5 250.646 517.5 254.313C517.5 257.981 518.798 262.163 520.199 264.203H518.633C516.738 261.442 515.687 258.207 515.666 254.313ZM526.628 244.773C529.327 244.794 531.243 247.266 531.264 251.161C531.243 255.055 529.327 257.527 526.628 257.527C523.908 257.527 522.012 255.055 522.012 251.161C522.012 247.266 523.908 244.794 526.628 244.773ZM526.628 246.216C524.815 246.236 523.537 248.173 523.537 251.161C523.537 254.148 524.815 256.085 526.628 256.085C528.461 256.085 529.698 254.148 529.698 251.161C529.698 248.173 528.461 246.236 526.628 246.216ZM535.9 243.352V250.666H538.97V252.067H535.9V261.669H534.293V243.352H535.9ZM555.062 243.352V261.71H553.434V243.352H555.062ZM545.316 244.773C548.036 244.794 549.993 247.266 549.993 251.161C549.993 255.055 548.036 257.527 545.316 257.527C542.576 257.527 540.639 255.055 540.639 251.161C540.639 247.266 542.576 244.794 545.316 244.773ZM545.316 246.216C543.482 246.236 542.205 248.173 542.205 251.161C542.205 254.148 543.482 256.085 545.316 256.085C547.15 256.085 548.427 254.148 548.427 251.161C548.427 248.173 547.15 246.236 545.316 246.216ZM572.802 244.258V245.783C572.802 247.493 572.802 249.348 572.308 251.861L570.7 251.717C570.927 250.646 571.051 249.688 571.133 248.812L559.966 249.348L559.739 247.967L571.195 247.596C571.216 246.957 571.216 246.36 571.216 245.783V245.577H560.192V244.258H572.802ZM574.883 253.098V254.416H558.214V253.098H565.014V250.398H566.641V253.098H574.883ZM573.235 260.062V261.38H560.336V255.982H561.964V260.062H573.235ZM581.003 254.313C580.982 258.207 579.931 261.442 578.036 264.203H576.47C577.871 262.163 579.169 257.981 579.169 254.313C579.169 250.646 577.871 246.484 576.47 244.444H578.036C579.931 247.184 580.982 250.419 581.003 254.313Z" fill="black"/>
<mask id="path-28-inside-8_14020_1878" fill="white">
<path d="M1416.26 305.297H1587.69V199.802H1416.26V305.297Z"/>
</mask>
<path d="M1416.26 305.297H1587.69V199.802H1416.26V305.297Z" fill="white"/>
<path d="M1416.26 303.978H1587.69V306.616H1416.26V303.978Z" fill="#CFCFCF" mask="url(#path-28-inside-8_14020_1878)"/>
<path d="M1473.34 257.96V259.32H1456.57V257.96H1464.13V253.51H1465.76V257.96H1473.34ZM1465.76 246.834C1465.76 249.76 1469.38 252.273 1472.53 252.788L1471.88 254.066C1469.07 253.52 1466.12 251.738 1464.95 249.183C1463.77 251.748 1460.82 253.571 1458.07 254.148L1457.39 252.85C1460.48 252.315 1464.09 249.76 1464.09 246.834V246.38H1457.95V245.021H1471.9V246.38H1465.76V246.834ZM1481.06 246.813C1481.06 249.368 1482.92 251.779 1485.6 252.747L1484.69 254.004C1482.68 253.201 1481.09 251.604 1480.3 249.615C1479.52 251.83 1477.85 253.592 1475.69 254.457L1474.82 253.139C1477.56 252.129 1479.46 249.574 1479.48 246.751V244.485H1481.06V246.813ZM1489.99 243.372V257.095H1488.36V249.038H1484.28V247.679H1488.36V243.372H1489.99ZM1490.4 259.918V261.277H1478.14V255.529H1479.77V259.918H1490.4ZM1502.43 245.021V246.38H1495.47V250.172H1502.02V251.49H1495.47V255.92C1498.76 255.92 1501.08 255.786 1503.83 255.323L1504.02 256.662C1501.15 257.136 1498.74 257.239 1495.28 257.26H1493.84V245.021H1502.43ZM1507.21 243.352V250.728H1510.28V252.109H1507.21V261.669H1505.6V243.352H1507.21ZM1517.47 248.977C1517.45 251.923 1519.57 255.158 1522.23 256.415L1521.3 257.692C1519.24 256.693 1517.5 254.509 1516.69 252.026C1515.84 254.725 1514 257.095 1511.95 258.146L1510.96 256.868C1513.6 255.591 1515.87 252.109 1515.89 248.977V246.587H1511.62V245.247H1521.59V246.587H1517.47V248.977ZM1525.45 243.352V250.769H1528.52V252.15H1525.45V261.669H1523.84V243.352H1525.45ZM1544.65 243.352V261.669H1543.02V243.352H1544.65ZM1539.23 245.35C1539.21 250.625 1536.76 255.282 1530.62 258.228L1529.73 256.909C1534.69 254.56 1537.21 251.047 1537.58 246.669H1530.58V245.35H1539.23Z" fill="#4E4E4E"/>
<mask id="path-31-inside-9_14020_1878" fill="white">
<path d="M1587.69 305.297H1798.68V199.802H1587.69V305.297Z"/>
</mask>
<path d="M1587.69 305.297H1798.68V199.802H1587.69V305.297Z" fill="white"/>
<path d="M1587.69 303.978H1798.68V306.616H1587.69V303.978Z" fill="#CFCFCF" mask="url(#path-31-inside-9_14020_1878)"/>
<path d="M1636.57 260L1636.55 258.64L1641.63 253.283C1643.41 251.408 1644.25 250.398 1644.25 249.018C1644.25 247.493 1642.95 246.484 1641.28 246.484C1639.51 246.484 1638.38 247.617 1638.38 249.286H1636.63C1636.61 246.648 1638.65 244.876 1641.35 244.876C1644.05 244.876 1645.98 246.69 1645.98 249.018C1645.98 250.687 1645.2 251.985 1642.56 254.705L1639.14 258.228V258.352H1646.25V260H1636.57ZM1653.83 260.206C1650.51 260.206 1648.62 257.424 1648.62 252.541C1648.62 247.699 1650.56 244.876 1653.83 244.876C1657.11 244.876 1659.05 247.699 1659.05 252.541C1659.05 257.424 1657.13 260.206 1653.83 260.206ZM1653.83 258.558C1655.97 258.558 1657.23 256.394 1657.23 252.541C1657.23 248.688 1655.97 246.484 1653.83 246.484C1651.69 246.484 1650.41 248.688 1650.41 252.541C1650.41 256.394 1651.67 258.558 1653.83 258.558ZM1661.52 260L1661.5 258.64L1666.59 253.283C1668.36 251.408 1669.2 250.398 1669.2 249.018C1669.2 247.493 1667.9 246.484 1666.24 246.484C1664.46 246.484 1663.33 247.617 1663.33 249.286H1661.58C1661.56 246.648 1663.6 244.876 1666.3 244.876C1669 244.876 1670.93 246.69 1670.93 249.018C1670.93 250.687 1670.15 251.985 1667.51 254.705L1664.09 258.228V258.352H1671.2V260H1661.52ZM1679.05 260.206C1676.08 260.206 1673.96 258.62 1673.86 256.25H1675.73C1675.84 257.672 1677.26 258.558 1679.03 258.558C1680.99 258.558 1682.43 257.486 1682.43 255.941C1682.43 254.313 1681.13 253.159 1678.8 253.159H1677.59V251.532H1678.8C1680.62 251.532 1681.87 250.522 1681.87 248.977C1681.87 247.493 1680.78 246.484 1679.09 246.484C1677.51 246.484 1676.04 247.37 1675.96 248.832H1674.17C1674.27 246.463 1676.46 244.876 1679.11 244.876C1681.96 244.876 1683.69 246.731 1683.67 248.874C1683.69 250.563 1682.7 251.82 1681.13 252.253V252.356C1683.07 252.665 1684.26 254.045 1684.24 255.941C1684.26 258.393 1682.02 260.206 1679.05 260.206ZM1693.35 251.738V253.365H1686.82V251.738H1693.35ZM1700.93 260.206C1697.62 260.206 1695.72 257.424 1695.72 252.541C1695.72 247.699 1697.66 244.876 1700.93 244.876C1704.21 244.876 1706.15 247.699 1706.15 252.541C1706.15 257.424 1704.23 260.206 1700.93 260.206ZM1700.93 258.558C1703.08 258.558 1704.33 256.394 1704.33 252.541C1704.33 248.688 1703.08 246.484 1700.93 246.484C1698.79 246.484 1697.51 248.688 1697.51 252.541C1697.51 256.394 1698.77 258.558 1700.93 258.558ZM1713.89 245.082V260H1712.02V247.019H1711.94L1708.31 249.43V247.555L1712.02 245.082H1713.89ZM1724.3 251.738V253.365H1717.77V251.738H1724.3ZM1731.88 260.206C1728.56 260.206 1726.67 257.424 1726.67 252.541C1726.67 247.699 1728.61 244.876 1731.88 244.876C1735.16 244.876 1737.09 247.699 1737.09 252.541C1737.09 257.424 1735.18 260.206 1731.88 260.206ZM1731.88 258.558C1734.02 258.558 1735.28 256.394 1735.28 252.541C1735.28 248.688 1734.02 246.484 1731.88 246.484C1729.74 246.484 1728.46 248.688 1728.46 252.541C1728.46 256.394 1729.72 258.558 1731.88 258.558ZM1744.53 244.876C1747.11 244.897 1749.95 246.442 1749.95 251.944C1749.95 257.239 1747.79 260.206 1744.29 260.206C1741.67 260.206 1739.81 258.599 1739.44 256.229H1741.28C1741.61 257.569 1742.62 258.558 1744.29 258.558C1746.72 258.558 1748.2 256.456 1748.22 252.83H1748.01C1747.15 254.066 1745.79 254.808 1744.2 254.808C1741.52 254.808 1739.32 252.768 1739.32 249.883C1739.32 247.102 1741.36 244.856 1744.53 244.876ZM1744.53 246.504C1742.58 246.504 1741.11 248.029 1741.13 249.863C1741.13 251.717 1742.51 253.18 1744.47 253.18C1746.41 253.18 1747.93 251.573 1747.93 249.821C1747.93 248.111 1746.51 246.504 1744.53 246.504Z" fill="#4E4E4E"/>
<mask id="path-34-inside-10_14020_1878" fill="white">
<path d="M131.868 305.297H290.11V199.802H131.868V305.297Z"/>
</mask>
<path d="M131.868 305.297H290.11V199.802H131.868V305.297Z" fill="white"/>
<path d="M131.868 303.978H290.11V306.616H131.868V303.978Z" fill="#CFCFCF" mask="url(#path-34-inside-10_14020_1878)"/>
<path d="M182.349 257.94V259.279H165.577V257.94H173.077V253.448H174.664V257.94H182.349ZM174.705 246.01C174.705 249.08 178.331 251.758 181.525 252.315L180.804 253.654C178.012 253.087 175.065 251.192 173.881 248.544C172.675 251.181 169.749 253.087 166.957 253.654L166.236 252.315C169.43 251.758 173.015 249.08 173.015 246.01V244.609H174.705V246.01ZM200.584 258.022V259.402H183.812V258.022H191.332V253.798H185.337V252.5H188.201V246.484H185.295V245.144H198.977V246.484H196.071V252.5H198.935V253.798H192.919V258.022H200.584ZM189.808 252.5H194.485V246.484H189.808V252.5ZM216.882 253.262V254.581H204.21V244.938H216.676V246.298H205.859V249.018H216.284V250.316H205.859V253.262H216.882ZM218.819 257.94V259.279H202.047V257.94H218.819ZM224.938 244.526C227.267 244.547 228.935 245.907 228.956 247.926C228.935 249.924 227.267 251.305 224.938 251.284C222.61 251.305 220.92 249.924 220.941 247.926C220.92 245.907 222.61 244.547 224.938 244.526ZM224.938 245.783C223.455 245.762 222.404 246.669 222.404 247.926C222.404 249.183 223.455 250.069 224.938 250.069C226.422 250.069 227.493 249.183 227.493 247.926C227.493 246.669 226.422 245.762 224.938 245.783ZM235.879 243.352V261.669H234.334V243.352H235.879ZM232.376 243.764V260.701H230.852V256.641H227.37V255.364H230.852V243.764H232.376ZM220.034 252.706C222.569 252.706 226.669 252.706 229.657 252.212L229.78 253.448C228.482 253.695 227.04 253.85 225.618 253.942V260.165H224.093V254.025C222.672 254.076 221.332 254.087 220.261 254.087L220.034 252.706ZM243.441 244.773C245.934 244.794 247.727 246.927 247.995 250.357H252.095V243.352H253.702V261.71H252.095V251.696H248.015C247.819 255.282 245.996 257.527 243.441 257.527C240.742 257.527 238.846 255.055 238.846 251.161C238.846 247.266 240.742 244.794 243.441 244.773ZM243.441 246.216C241.628 246.236 240.392 248.173 240.392 251.161C240.392 254.148 241.628 256.085 243.441 256.085C245.234 256.085 246.49 254.148 246.49 251.161C246.49 248.173 245.234 246.236 243.441 246.216Z" fill="#4E4E4E"/>
<mask id="path-37-inside-11_14020_1878" fill="white">
<path d="M0 410.792H131.868V305.297H0V410.792Z"/>
</mask>
<path d="M0 410.792H131.868V305.297H0V410.792Z" fill="white"/>
<path d="M0 409.473H131.868V412.111H0V409.473Z" fill="#CFCFCF" mask="url(#path-37-inside-11_14020_1878)"/>
<path d="M66.0164 350.578V365.495H64.1414V352.514H64.059L60.4326 354.925V353.05L64.1414 350.578H66.0164Z" fill="black"/>
<mask id="path-40-inside-12_14020_1878" fill="white">
<path d="M290.11 410.792H1416.26V305.297H290.11V410.792Z"/>
</mask>
<path d="M290.11 410.792H1416.26V305.297H290.11V410.792Z" fill="white"/>
<path d="M290.11 409.473H1416.26V412.111H290.11V409.473Z" fill="#CFCFCF" mask="url(#path-40-inside-12_14020_1878)"/>
<path d="M338.922 348.847V367.205H337.294V348.847H338.922ZM329.176 350.268C331.896 350.289 333.853 352.762 333.853 356.656C333.853 360.55 331.896 363.023 329.176 363.023C326.435 363.023 324.499 360.55 324.499 356.656C324.499 352.762 326.435 350.289 329.176 350.268ZM329.176 351.711C327.342 351.731 326.065 353.668 326.065 356.656C326.065 359.643 327.342 361.58 329.176 361.58C331.01 361.58 332.287 359.643 332.287 356.656C332.287 353.668 331.01 351.731 329.176 351.711ZM353.942 351.876C353.942 354.266 355.941 356.388 358.661 357.212L357.837 358.49C355.694 357.81 353.973 356.336 353.139 354.451C352.335 356.47 350.604 358.047 348.42 358.799L347.576 357.521C350.337 356.656 352.315 354.389 352.315 351.876V351.402H348.029V350.083H358.166V351.402H353.942V351.876ZM362.473 348.847V358.757H360.865V348.847H362.473ZM352.212 359.664V361.889H360.865V359.664H362.473V366.917H350.604V359.664H352.212ZM352.212 365.598H360.865V363.187H352.212V365.598ZM380.707 350.763C380.687 356.058 378.771 360.942 372.157 364.176L371.25 362.878C374.681 361.23 376.803 359.118 377.967 356.635L371.6 357.253L371.332 355.811L378.482 355.337C378.812 354.317 379.008 353.236 379.08 352.102H372.26V350.763H380.707ZM386.023 348.847V367.164H384.396V348.847H386.023ZM405.886 363.476V364.815H389.114V363.476H396.655V359.52H391.092V350.145H392.72V353.462H402.239V350.145H403.826V359.52H398.242V363.476H405.886ZM392.72 358.201H402.239V354.781H392.72V358.201ZM422.143 357.665V359.005H409.492V350.557H421.957V351.896H411.099V357.665H422.143ZM424.121 363.311V364.671H407.349V363.311H424.121ZM439.945 350.248V358.387H431.662V350.248H439.945ZM433.249 351.587V357.068H438.338V351.587H433.249ZM445.199 348.847V353.874H447.96V355.234H445.199V361.045H443.592V348.847H445.199ZM440.44 360.694C440.419 363.332 443.407 365.268 446.641 365.804L445.982 367.082C443.273 366.587 440.749 365.186 439.657 363.084C438.544 365.186 436.01 366.587 433.29 367.082L432.651 365.804C435.886 365.268 438.832 363.332 438.832 360.694V360.138H440.44V360.694ZM455.707 351.876C455.707 354.266 457.706 356.388 460.426 357.212L459.602 358.49C457.459 357.81 455.738 356.336 454.904 354.451C454.1 356.47 452.369 358.047 450.185 358.799L449.341 357.521C452.102 356.656 454.08 354.389 454.08 351.876V351.402H449.794V350.083H459.931V351.402H455.707V351.876ZM464.238 348.847V358.757H462.63V348.847H464.238ZM453.977 359.664V361.889H462.63V359.664H464.238V366.917H452.369V359.664H453.977ZM453.977 365.598H462.63V363.187H453.977V365.598ZM482.452 348.847V367.205H480.824V348.847H482.452ZM472.706 350.268C475.426 350.289 477.383 352.762 477.383 356.656C477.383 360.55 475.426 363.023 472.706 363.023C469.966 363.023 468.029 360.55 468.029 356.656C468.029 352.762 469.966 350.289 472.706 350.268ZM472.706 351.711C470.872 351.731 469.595 353.668 469.595 356.656C469.595 359.643 470.872 361.58 472.706 361.58C474.54 361.58 475.817 359.643 475.817 356.656C475.817 353.668 474.54 351.731 472.706 351.711ZM488.097 350.845V361.106C490.076 361.086 491.951 360.972 494.155 360.509L494.382 361.91C491.93 362.425 489.89 362.528 487.644 362.528H486.49V350.845H488.097ZM501.264 348.847V367.164H499.718V348.847H501.264ZM497.349 349.3V366.237H495.804V356.367H491.621V355.028H495.804V349.3H497.349ZM506.786 350.578L506.641 361.292H504.911L504.766 350.578H506.786ZM505.776 365.619C505.055 365.619 504.437 365.021 504.457 364.279C504.437 363.558 505.055 362.961 505.776 362.961C506.497 362.961 507.095 363.558 507.095 364.279C507.095 365.021 506.497 365.619 505.776 365.619ZM515.666 359.808C515.687 355.914 516.738 352.679 518.633 349.939H520.199C518.798 351.979 517.5 356.141 517.5 359.808C517.5 363.476 518.798 367.659 520.199 369.698H518.633C516.738 366.937 515.687 363.703 515.666 359.808ZM526.628 350.268C529.327 350.289 531.243 352.762 531.264 356.656C531.243 360.55 529.327 363.023 526.628 363.023C523.908 363.023 522.012 360.55 522.012 356.656C522.012 352.762 523.908 350.289 526.628 350.268ZM526.628 351.711C524.815 351.731 523.537 353.668 523.537 356.656C523.537 359.643 524.815 361.58 526.628 361.58C528.461 361.58 529.698 359.643 529.698 356.656C529.698 353.668 528.461 351.731 526.628 351.711ZM535.9 348.847V356.161H538.97V357.562H535.9V367.164H534.293V348.847H535.9ZM555.062 348.847V367.205H553.434V348.847H555.062ZM545.316 350.268C548.036 350.289 549.993 352.762 549.993 356.656C549.993 360.55 548.036 363.023 545.316 363.023C542.576 363.023 540.639 360.55 540.639 356.656C540.639 352.762 542.576 350.289 545.316 350.268ZM545.316 351.711C543.482 351.731 542.205 353.668 542.205 356.656C542.205 359.643 543.482 361.58 545.316 361.58C547.15 361.58 548.427 359.643 548.427 356.656C548.427 353.668 547.15 351.731 545.316 351.711ZM572.802 349.753V351.278C572.802 352.988 572.802 354.843 572.308 357.356L570.7 357.212C570.927 356.141 571.051 355.183 571.133 354.307L559.966 354.843L559.739 353.462L571.195 353.091C571.216 352.453 571.216 351.855 571.216 351.278V351.072H560.192V349.753H572.802ZM574.883 358.593V359.911H558.214V358.593H565.014V355.893H566.641V358.593H574.883ZM573.235 365.557V366.876H560.336V361.477H561.964V365.557H573.235ZM581.003 359.808C580.982 363.703 579.931 366.937 578.036 369.698H576.47C577.871 367.659 579.169 363.476 579.169 359.808C579.169 356.141 577.871 351.979 576.47 349.939H578.036C579.931 352.679 580.982 355.914 581.003 359.808Z" fill="black"/>
<mask id="path-43-inside-13_14020_1878" fill="white">
<path d="M1416.26 410.792H1587.69V305.297H1416.26V410.792Z"/>
</mask>
<path d="M1416.26 410.792H1587.69V305.297H1416.26V410.792Z" fill="white"/>
<path d="M1416.26 409.473H1587.69V412.111H1416.26V409.473Z" fill="#CFCFCF" mask="url(#path-43-inside-13_14020_1878)"/>
<path d="M1473.34 363.455V364.815H1456.57V363.455H1464.13V359.005H1465.76V363.455H1473.34ZM1465.76 352.329C1465.76 355.255 1469.38 357.768 1472.53 358.284L1471.88 359.561C1469.07 359.015 1466.12 357.233 1464.95 354.678C1463.77 357.243 1460.82 359.067 1458.07 359.643L1457.39 358.345C1460.48 357.81 1464.09 355.255 1464.09 352.329V351.876H1457.95V350.516H1471.9V351.876H1465.76V352.329ZM1481.06 352.308C1481.06 354.863 1482.92 357.274 1485.6 358.242L1484.69 359.499C1482.68 358.696 1481.09 357.099 1480.3 355.111C1479.52 357.325 1477.85 359.087 1475.69 359.953L1474.82 358.634C1477.56 357.624 1479.46 355.069 1479.48 352.246V349.98H1481.06V352.308ZM1489.99 348.867V362.59H1488.36V354.534H1484.28V353.174H1488.36V348.867H1489.99ZM1490.4 365.413V366.773H1478.14V361.024H1479.77V365.413H1490.4ZM1502.43 350.516V351.876H1495.47V355.667H1502.02V356.986H1495.47V361.415C1498.76 361.415 1501.08 361.282 1503.83 360.818L1504.02 362.157C1501.15 362.631 1498.74 362.734 1495.28 362.755H1493.84V350.516H1502.43ZM1507.21 348.847V356.223H1510.28V357.604H1507.21V367.164H1505.6V348.847H1507.21ZM1517.47 354.472C1517.45 357.418 1519.57 360.653 1522.23 361.91L1521.3 363.187C1519.24 362.188 1517.5 360.004 1516.69 357.521C1515.84 360.22 1514 362.59 1511.95 363.641L1510.96 362.363C1513.6 361.086 1515.87 357.604 1515.89 354.472V352.082H1511.62V350.742H1521.59V352.082H1517.47V354.472ZM1525.45 348.847V356.264H1528.52V357.645H1525.45V367.164H1523.84V348.847H1525.45ZM1544.65 348.847V367.164H1543.02V348.847H1544.65ZM1539.23 350.845C1539.21 356.12 1536.76 360.777 1530.62 363.723L1529.73 362.404C1534.69 360.056 1537.21 356.543 1537.58 352.164H1530.58V350.845H1539.23Z" fill="#4E4E4E"/>
<mask id="path-46-inside-14_14020_1878" fill="white">
<path d="M1587.69 410.792H1798.68V305.297H1587.69V410.792Z"/>
</mask>
<path d="M1587.69 410.792H1798.68V305.297H1587.69V410.792Z" fill="white"/>
<path d="M1587.69 409.473H1798.68V412.111H1587.69V409.473Z" fill="#CFCFCF" mask="url(#path-46-inside-14_14020_1878)"/>
<path d="M1636.57 365.495L1636.55 364.135L1641.63 358.778C1643.41 356.903 1644.25 355.893 1644.25 354.513C1644.25 352.988 1642.95 351.979 1641.28 351.979C1639.51 351.979 1638.38 353.112 1638.38 354.781H1636.63C1636.61 352.143 1638.65 350.371 1641.35 350.371C1644.05 350.371 1645.98 352.185 1645.98 354.513C1645.98 356.182 1645.2 357.48 1642.56 360.2L1639.14 363.723V363.847H1646.25V365.495H1636.57ZM1653.83 365.701C1650.51 365.701 1648.62 362.92 1648.62 358.036C1648.62 353.194 1650.56 350.371 1653.83 350.371C1657.11 350.371 1659.05 353.194 1659.05 358.036C1659.05 362.92 1657.13 365.701 1653.83 365.701ZM1653.83 364.053C1655.97 364.053 1657.23 361.889 1657.23 358.036C1657.23 354.183 1655.97 351.979 1653.83 351.979C1651.69 351.979 1650.41 354.183 1650.41 358.036C1650.41 361.889 1651.67 364.053 1653.83 364.053ZM1661.52 365.495L1661.5 364.135L1666.59 358.778C1668.36 356.903 1669.2 355.893 1669.2 354.513C1669.2 352.988 1667.9 351.979 1666.24 351.979C1664.46 351.979 1663.33 353.112 1663.33 354.781H1661.58C1661.56 352.143 1663.6 350.371 1666.3 350.371C1669 350.371 1670.93 352.185 1670.93 354.513C1670.93 356.182 1670.15 357.48 1667.51 360.2L1664.09 363.723V363.847H1671.2V365.495H1661.52ZM1679.05 365.701C1676.08 365.701 1673.96 364.115 1673.86 361.745H1675.73C1675.84 363.167 1677.26 364.053 1679.03 364.053C1680.99 364.053 1682.43 362.981 1682.43 361.436C1682.43 359.808 1681.13 358.654 1678.8 358.654H1677.59V357.027H1678.8C1680.62 357.027 1681.87 356.017 1681.87 354.472C1681.87 352.988 1680.78 351.979 1679.09 351.979C1677.51 351.979 1676.04 352.865 1675.96 354.328H1674.17C1674.27 351.958 1676.46 350.371 1679.11 350.371C1681.96 350.371 1683.69 352.226 1683.67 354.369C1683.69 356.058 1682.7 357.315 1681.13 357.748V357.851C1683.07 358.16 1684.26 359.54 1684.24 361.436C1684.26 363.888 1682.02 365.701 1679.05 365.701ZM1693.35 357.233V358.861H1686.82V357.233H1693.35ZM1700.93 365.701C1697.62 365.701 1695.72 362.92 1695.72 358.036C1695.72 353.194 1697.66 350.371 1700.93 350.371C1704.21 350.371 1706.15 353.194 1706.15 358.036C1706.15 362.92 1704.23 365.701 1700.93 365.701ZM1700.93 364.053C1703.08 364.053 1704.33 361.889 1704.33 358.036C1704.33 354.183 1703.08 351.979 1700.93 351.979C1698.79 351.979 1697.51 354.183 1697.51 358.036C1697.51 361.889 1698.77 364.053 1700.93 364.053ZM1713.89 350.578V365.495H1712.02V352.514H1711.94L1708.31 354.925V353.05L1712.02 350.578H1713.89ZM1724.3 357.233V358.861H1717.77V357.233H1724.3ZM1731.88 365.701C1728.56 365.701 1726.67 362.92 1726.67 358.036C1726.67 353.194 1728.61 350.371 1731.88 350.371C1735.16 350.371 1737.09 353.194 1737.09 358.036C1737.09 362.92 1735.18 365.701 1731.88 365.701ZM1731.88 364.053C1734.02 364.053 1735.28 361.889 1735.28 358.036C1735.28 354.183 1734.02 351.979 1731.88 351.979C1729.74 351.979 1728.46 354.183 1728.46 358.036C1728.46 361.889 1729.72 364.053 1731.88 364.053ZM1744.53 350.371C1747.11 350.392 1749.95 351.937 1749.95 357.439C1749.95 362.734 1747.79 365.701 1744.29 365.701C1741.67 365.701 1739.81 364.094 1739.44 361.725H1741.28C1741.61 363.064 1742.62 364.053 1744.29 364.053C1746.72 364.053 1748.2 361.951 1748.22 358.325H1748.01C1747.15 359.561 1745.79 360.303 1744.2 360.303C1741.52 360.303 1739.32 358.263 1739.32 355.378C1739.32 352.597 1741.36 350.351 1744.53 350.371ZM1744.53 351.999C1742.58 351.999 1741.11 353.524 1741.13 355.358C1741.13 357.212 1742.51 358.675 1744.47 358.675C1746.41 358.675 1747.93 357.068 1747.93 355.317C1747.93 353.606 1746.51 351.999 1744.53 351.999Z" fill="#4E4E4E"/>
<mask id="path-49-inside-15_14020_1878" fill="white">
<path d="M131.868 410.792H290.11V305.297H131.868V410.792Z"/>
</mask>
<path d="M131.868 410.792H290.11V305.297H131.868V410.792Z" fill="white"/>
<path d="M131.868 409.473H290.11V412.111H131.868V409.473Z" fill="#CFCFCF" mask="url(#path-49-inside-15_14020_1878)"/>
<path d="M191.559 358.222V359.561H184.1V363.311H182.493V359.561H174.787V358.222H191.559ZM189.375 349.753V356.12H176.971V349.753H189.375ZM178.558 351.031V354.822H187.768V351.031H178.558ZM189.684 365.413V366.773H176.93V361.498H178.558V365.413H189.684ZM208.702 348.847V367.164H207.157V348.847H208.702ZM204.993 349.3V366.216H203.468V356.779H200.378V355.461H203.468V349.3H204.993ZM198.42 354.08C198.42 357.253 199.842 360.406 202.376 361.869L201.387 363.064C199.584 361.982 198.307 360.004 197.679 357.665C197.009 360.189 195.68 362.343 193.846 363.496L192.816 362.281C195.371 360.756 196.854 357.418 196.854 354.08V352.35H193.331V351.01H201.779V352.35H198.42V354.08ZM220.426 352.02V353.339H211.236V352.02H215.048V349.403H216.655V352.02H220.426ZM215.831 354.575C218.139 354.575 219.787 356.306 219.808 358.737C219.787 361.189 218.139 362.94 215.831 362.94C213.544 362.94 211.896 361.189 211.896 358.737C211.896 356.306 213.544 354.575 215.831 354.575ZM215.831 355.935C214.389 355.955 213.338 357.13 213.338 358.737C213.338 360.365 214.389 361.539 215.831 361.518C217.294 361.539 218.365 360.365 218.365 358.737C218.365 357.13 217.294 355.955 215.831 355.935ZM226.875 348.847V367.164H225.33V357.913H222.898V366.257H221.374V349.3H222.898V356.573H225.33V348.847H226.875ZM244.698 348.847V358.222H243.07V356.306H238.187V355.028H243.07V352.823H238.455C237.301 355.718 234.457 357.665 230.398 358.634L229.821 357.295C234.313 356.254 236.93 354.06 237.239 351.113H230.749V349.774H239.011C239.011 350.382 238.949 350.969 238.846 351.525H243.07V348.847H244.698ZM244.698 359.046V363.517H234.478V365.66H245.316V366.999H232.871V362.281H243.07V360.365H232.83V359.046H244.698Z" fill="#4E4E4E"/>
<path d="M828.811 466.622V481.54H826.524V468.889H826.441L822.877 471.217V469.054L826.586 466.622H828.811Z" fill="black"/>
<path d="M855.893 481.54L855.873 480.18L860.962 474.823C862.734 472.948 863.579 471.938 863.579 470.558C863.579 469.033 862.281 468.024 860.612 468.024C858.84 468.024 857.707 469.157 857.707 470.826H855.955C855.935 468.188 857.974 466.416 860.674 466.416C863.373 466.416 865.31 468.23 865.31 470.558C865.31 472.227 864.527 473.525 861.889 476.245L858.469 479.768V479.892H865.577V481.54H855.893ZM896.637 481.746C893.669 481.746 891.547 480.16 891.444 477.79H893.319C893.422 479.212 894.844 480.098 896.616 480.098C898.573 480.098 900.016 479.026 900.016 477.481C900.016 475.853 898.718 474.699 896.389 474.699H895.174V473.072H896.389C898.202 473.072 899.459 472.062 899.459 470.517C899.459 469.033 898.367 468.024 896.678 468.024C895.091 468.024 893.628 468.91 893.546 470.372H891.753C891.856 468.003 894.04 466.416 896.698 466.416C899.542 466.416 901.273 468.271 901.252 470.414C901.273 472.103 900.284 473.36 898.718 473.793V473.896C900.654 474.205 901.849 475.585 901.829 477.481C901.849 479.933 899.604 481.746 896.637 481.746ZM927.345 478.491V476.966L934.062 466.622H936.349V476.863H938.43V478.491H936.349V481.54H934.577V478.491H927.345ZM929.344 476.863H934.577V468.971H934.392L929.344 476.739V476.863ZM968.954 481.746C966.255 481.746 964.215 480.077 964.112 477.79H965.904C966.049 479.129 967.347 480.118 968.954 480.118C970.891 480.118 972.292 478.697 972.292 476.822C972.292 474.885 970.829 473.463 968.83 473.443C967.573 473.422 966.605 473.813 966.049 474.782H964.256L965.307 466.622H973.384V468.271H966.852L966.296 472.639H966.44C967.099 472.124 968.109 471.774 969.16 471.774C972.003 471.774 974.105 473.875 974.105 476.78C974.105 479.665 971.921 481.746 968.954 481.746Z" fill="#9F9F9F"/>
<path d="M1008.81 483.32L1017.18 474.96C1017.66 474.48 1017.66 473.699 1017.18 473.219L1008.81 464.859" stroke="#313131" stroke-width="2.46129" stroke-linecap="round"/>
<path d="M788.585 483.32L780.213 474.96C779.731 474.48 779.731 473.699 780.213 473.219L788.585 464.859" stroke="#B8B8B8" stroke-width="2.46129" stroke-linecap="round"/>
<rect x="1815.16" y="43.5402" width="104.176" height="114.725" rx="1.97802" fill="white" stroke="#B9B9B9" stroke-width="1.31868"/>
<path d="M1838.99 56.1997V67.9546H1837.57V61.8067H1834.27V60.6348H1837.57V56.1997H1838.99ZM1839.44 70.6769V71.8668H1828.7V66.8909H1830.12V70.6769H1839.44ZM1831.27 59.499C1831.27 61.5723 1832.88 63.5916 1835.22 64.3848L1834.48 65.5207C1832.67 64.8716 1831.27 63.5195 1830.59 61.8608C1829.9 63.7088 1828.42 65.1871 1826.52 65.8993L1825.78 64.7454C1828.14 63.9161 1829.85 61.8067 1829.85 59.499V58.6697H1826.23V57.4978H1834.86V58.6697H1831.27V59.499ZM1846.35 61.1216C1846.35 63.6997 1847.66 66.332 1849.84 67.5038L1849.03 68.5675C1847.44 67.7021 1846.28 66.0435 1845.7 64.1144C1845.12 66.1697 1843.98 67.9546 1842.38 68.9281L1841.53 67.8464C1843.71 66.5844 1844.99 63.7719 1845.01 61.1216V60.3284H1841.97V59.1565H1845.01V56.7767H1846.36V59.1565H1849.36V60.3284H1846.35V61.1216ZM1855.36 56.1817V72.2094H1854.01V56.1817H1855.36ZM1852.12 56.5784V71.38H1850.78V63.7178H1848.26V62.5098H1850.78V56.5784H1852.12ZM1839.44 80.1817V96.2094H1838.07V87.7178H1835.84V95.3981H1834.48V80.5243H1835.84V86.5459H1838.07V80.1817H1839.44ZM1832.43 82.0567V91.9005H1826.3V82.0567H1832.43ZM1827.63 83.1925V90.7646H1831.09V83.1925H1827.63ZM1854.55 85.6084V86.7803H1843.52V81.011H1844.96V85.6084H1854.55ZM1856.26 89.106V90.2779H1852.46V96.2094H1851.05V90.2779H1846.89V96.2094H1845.48V90.2779H1841.66V89.106H1856.26ZM1870.88 80.1817V88.3488H1869.48V84.9413H1866.14C1865.84 86.7893 1864.2 88.0243 1862.03 88.0243C1859.62 88.0243 1857.87 86.5279 1857.87 84.3644C1857.87 82.237 1859.62 80.7586 1862.03 80.7586C1864.18 80.7586 1865.81 81.9576 1866.12 83.7514H1869.48V80.1817H1870.88ZM1862.03 81.9305C1860.39 81.9125 1859.22 82.9401 1859.22 84.3644C1859.22 85.8247 1860.39 86.8524 1862.03 86.8524C1863.62 86.8524 1864.81 85.8247 1864.81 84.3644C1864.81 82.9401 1863.62 81.9125 1862.03 81.9305ZM1870.88 89.2322V93.0723H1861.94V94.8572H1871.5V95.993H1860.54V91.9906H1869.48V90.368H1860.5V89.2322H1870.88ZM1840.38 117.946V119.118H1825.7V117.946H1832.27V114.016H1833.65V117.946H1840.38ZM1833.69 107.507C1833.69 110.194 1836.86 112.537 1839.66 113.024L1839.03 114.196C1836.58 113.7 1834.01 112.042 1832.97 109.725C1831.91 112.033 1829.35 113.7 1826.91 114.196L1826.28 113.024C1829.08 112.537 1832.21 110.194 1832.21 107.507V106.281H1833.69V107.507ZM1856.33 117.946V119.154H1841.66V117.946H1856.33ZM1854.93 106.804V107.976H1852.39V113.583H1854.89V114.737H1842.99V113.583H1845.5V107.976H1842.96V106.804H1854.93ZM1846.91 113.583H1851V107.976H1846.91V113.583ZM1870.6 113.854V115.007H1859.51V106.57H1870.42V107.76H1860.95V110.14H1870.07V111.275H1860.95V113.854H1870.6ZM1872.29 117.946V119.118H1857.61V117.946H1872.29ZM1877.64 106.209C1879.68 106.227 1881.14 107.417 1881.16 109.184C1881.14 110.933 1879.68 112.141 1877.64 112.123C1875.61 112.141 1874.13 110.933 1874.15 109.184C1874.13 107.417 1875.61 106.227 1877.64 106.209ZM1877.64 107.309C1876.35 107.291 1875.43 108.084 1875.43 109.184C1875.43 110.284 1876.35 111.059 1877.64 111.059C1878.94 111.059 1879.88 110.284 1879.88 109.184C1879.88 108.084 1878.94 107.291 1877.64 107.309ZM1887.22 105.182V121.209H1885.87V105.182H1887.22ZM1884.15 105.542V120.362H1882.82V116.81H1879.77V115.693H1882.82V105.542H1884.15ZM1873.35 113.367C1875.57 113.367 1879.16 113.367 1881.77 112.934L1881.88 114.016C1880.75 114.232 1879.48 114.367 1878.24 114.449V119.893H1876.91V114.521C1875.66 114.566 1874.49 114.575 1873.55 114.575L1873.35 113.367ZM1893.83 106.426C1896.02 106.444 1897.58 108.31 1897.82 111.312H1901.41V105.182H1902.81V121.245H1901.41V112.483H1897.84C1897.67 115.62 1896.07 117.586 1893.83 117.586C1891.47 117.586 1889.81 115.422 1889.81 112.015C1889.81 108.607 1891.47 106.444 1893.83 106.426ZM1893.83 107.688C1892.25 107.706 1891.17 109.4 1891.17 112.015C1891.17 114.629 1892.25 116.324 1893.83 116.324C1895.4 116.324 1896.5 114.629 1896.5 112.015C1896.5 109.4 1895.4 107.706 1893.83 107.688ZM1840.36 137.385V138.557H1833.83V141.838H1832.43V138.557H1825.69V137.385H1840.36ZM1838.45 129.975V135.546H1827.6V129.975H1838.45ZM1828.98 131.093V134.41H1837.04V131.093H1828.98ZM1838.72 143.677V144.867H1827.56V140.251H1828.98V143.677H1838.72ZM1855.36 129.182V145.209H1854.01V129.182H1855.36ZM1852.12 129.578V144.38H1850.78V136.123H1848.08V134.969H1850.78V129.578H1852.12ZM1846.36 133.761C1846.36 136.537 1847.61 139.296 1849.83 140.576L1848.96 141.622C1847.38 140.675 1846.27 138.944 1845.72 136.898C1845.13 139.107 1843.97 140.991 1842.36 142L1841.46 140.937C1843.7 139.602 1844.99 136.682 1844.99 133.761V132.247H1841.91V131.075H1849.3V132.247H1846.36V133.761ZM1865.62 131.958V133.112H1857.58V131.958H1860.91V129.668H1862.32V131.958H1865.62ZM1861.6 134.194C1863.62 134.194 1865.06 135.708 1865.08 137.836C1865.06 139.981 1863.62 141.513 1861.6 141.513C1859.6 141.513 1858.16 139.981 1858.16 137.836C1858.16 135.708 1859.6 134.194 1861.6 134.194ZM1861.6 135.384C1860.34 135.402 1859.42 136.429 1859.42 137.836C1859.42 139.26 1860.34 140.287 1861.6 140.269C1862.88 140.287 1863.82 139.26 1863.82 137.836C1863.82 136.429 1862.88 135.402 1861.6 135.384ZM1871.26 129.182V145.209H1869.91V137.114H1867.78V144.416H1866.45V129.578H1867.78V135.943H1869.91V129.182H1871.26ZM1886.86 129.182V137.385H1885.43V135.708H1881.16V134.59H1885.43V132.661H1881.39C1880.39 135.194 1877.9 136.898 1874.35 137.745L1873.84 136.574C1877.77 135.663 1880.06 133.743 1880.33 131.165H1874.65V129.993H1881.88C1881.88 130.525 1881.83 131.039 1881.74 131.525H1885.43V129.182H1886.86ZM1886.86 138.106V142.018H1877.92V143.893H1887.4V145.065H1876.51V140.937H1885.43V139.26H1876.47V138.106H1886.86Z" fill="black"/>
<rect x="1815.16" y="0.0226219" width="104.176" height="43.5165" rx="1.97802" fill="white" stroke="#2F2F2F" stroke-width="1.31868"/>
<path d="M1839.04 12.6822V24.437H1837.61V18.2891H1834.31V17.1173H1837.61V12.6822H1839.04ZM1839.49 27.1593V28.3492H1828.74V23.3733H1830.17V27.1593H1839.49ZM1831.32 15.9814C1831.32 18.0548 1832.92 20.074 1835.27 20.8673L1834.53 22.0031C1832.72 21.354 1831.32 20.0019 1830.63 18.3432C1829.94 20.1912 1828.46 21.6695 1826.56 22.3817L1825.82 21.2278C1828.18 20.3985 1829.89 18.2891 1829.89 15.9814V15.1521H1826.27V13.9802H1834.91V15.1521H1831.32V15.9814ZM1846.39 17.604C1846.39 20.1822 1847.71 22.8144 1849.89 23.9863L1849.08 25.05C1847.48 24.1846 1846.33 22.5259 1845.74 20.5968C1845.17 22.6521 1844.02 24.437 1842.42 25.4105L1841.58 24.3288C1843.76 23.0668 1845.04 20.2543 1845.06 17.604V16.8108H1842.01V15.6389H1845.06V13.2591H1846.41V15.6389H1849.4V16.8108H1846.39V17.604ZM1855.41 12.6641V28.6918H1854.05V12.6641H1855.41ZM1852.16 13.0608V27.8625H1850.83V20.2002H1848.3V18.9923H1850.83V13.0608H1852.16Z" fill="black"/>
<path d="M1888.35 16.5059L1896.71 24.8787C1897.19 25.3601 1897.97 25.3601 1898.45 24.8787L1906.81 16.5059" stroke="#313131" stroke-width="2.46129" stroke-linecap="round"/>
</g>
<defs>
<clipPath id="clip0_14020_1878">
<rect width="1920" height="825" fill="white"/>
</clipPath>
</defs>
</svg>
