<svg width="1920" height="1035" viewBox="0 0 1920 1035" fill="none" xmlns="http://www.w3.org/2000/svg">
<g clip-path="url(#clip0_14020_1605)">
<rect width="1920" height="1035" fill="white"/>
<rect x="1779.24" y="726.334" width="140.762" height="64.7507" rx="7.03812" fill="#111111"/>
<path d="M1839.15 750.98V752.116C1839.15 753.261 1839.15 754.704 1838.78 756.58H1841.15V758.043H1825.37V756.58H1836.95C1837.3 754.829 1837.34 753.511 1837.34 752.443H1827.35V750.98H1839.15ZM1839.17 759.583V764.105H1829.06V765.856H1839.61V767.319H1827.24V762.7H1837.36V761.045H1827.22V759.583H1839.17ZM1847.75 753.732C1847.75 755.358 1848.53 757.389 1850.27 758.582C1851.98 757.408 1852.77 755.406 1852.77 753.732V751.577H1854.62V753.732C1854.6 755.83 1855.74 757.985 1858.05 758.948L1857.05 760.314C1855.39 759.592 1854.27 758.245 1853.68 756.638C1853.1 758.293 1852 759.756 1850.25 760.526C1848.49 759.756 1847.38 758.235 1846.81 756.58C1846.2 758.168 1845.09 759.573 1843.46 760.314L1842.48 758.948C1844.73 757.947 1845.9 755.657 1845.92 753.732V751.577H1847.75V753.732ZM1858.16 763.72V765.221H1842.4V763.72H1858.16ZM1873.77 750.249V767.492H1871.92V750.249H1873.77ZM1868.63 752.096C1868.63 757.139 1866.48 761.526 1860.57 764.355L1859.61 762.873C1864.2 760.689 1866.43 757.581 1866.78 753.559H1860.43V752.096H1868.63Z" fill="white"/>
<path d="M884.52 751.525V767.449H882.078V753.945H881.99L878.185 756.43V754.121L882.144 751.525H884.52Z" fill="black"/>
<path d="M913.429 767.449L913.407 765.998L918.839 760.279C920.731 758.278 921.632 757.2 921.632 755.726C921.632 754.099 920.247 753.021 918.465 753.021C916.574 753.021 915.364 754.231 915.364 756.012H913.495C913.473 753.197 915.65 751.306 918.531 751.306C921.413 751.306 923.48 753.241 923.48 755.726C923.48 757.508 922.644 758.894 919.829 761.797L916.178 765.558V765.69H923.766V767.449H913.429ZM956.92 767.669C953.753 767.669 951.487 765.976 951.377 763.446H953.379C953.489 764.964 955.006 765.91 956.898 765.91C958.987 765.91 960.527 764.766 960.527 763.116C960.527 761.379 959.141 760.147 956.656 760.147H955.358V758.41H956.656C958.591 758.41 959.933 757.332 959.933 755.682C959.933 754.099 958.767 753.021 956.964 753.021C955.27 753.021 953.709 753.967 953.621 755.528H951.707C951.817 752.999 954.149 751.306 956.986 751.306C960.021 751.306 961.869 753.285 961.847 755.572C961.869 757.376 960.813 758.718 959.141 759.179V759.289C961.209 759.619 962.484 761.093 962.462 763.116C962.484 765.734 960.087 767.669 956.92 767.669ZM989.7 764.194V762.567L996.87 751.525H999.311V762.457H1001.53V764.194H999.311V767.449H997.42V764.194H989.7ZM991.833 762.457H997.42V754.033H997.222L991.833 762.325V762.457ZM1034.11 767.669C1031.23 767.669 1029.06 765.888 1028.95 763.446H1030.86C1031.01 764.876 1032.4 765.932 1034.11 765.932C1036.18 765.932 1037.68 764.414 1037.68 762.413C1037.68 760.345 1036.12 758.828 1033.98 758.806C1032.64 758.784 1031.61 759.201 1031.01 760.235H1029.1L1030.22 751.525H1038.84V753.285H1031.87L1031.28 757.948H1031.43C1032.14 757.398 1033.21 757.024 1034.33 757.024C1037.37 757.024 1039.61 759.267 1039.61 762.369C1039.61 765.448 1037.28 767.669 1034.11 767.669Z" fill="#9F9F9F"/>
<path d="M1076.85 768.563L1085.79 759.64C1086.3 759.127 1086.3 758.294 1085.79 757.78L1076.85 748.857" stroke="#313131" stroke-width="2.62731" stroke-linecap="round"/>
<path d="M841.774 768.563L832.837 759.64C832.323 759.127 832.323 758.294 832.837 757.78L841.774 748.857" stroke="#B8B8B8" stroke-width="2.62731" stroke-linecap="round"/>
<mask id="path-6-inside-1_14020_1605" fill="white">
<path d="M0 226.628H140.762V0.000366211H0V226.628Z"/>
</mask>
<path d="M0 226.628H140.762V0.000366211H0V226.628Z" fill="white"/>
<path d="M0 225.22H140.762V228.036H0V225.22Z" fill="#CFCFCF" mask="url(#path-6-inside-1_14020_1605)"/>
<path d="M67.1537 62.5466H73.5375L76.2592 66.0601C77.9665 64.0559 78.9315 61.0372 78.9315 57.0536C78.9315 49.3831 75.319 45.2262 69.7765 45.2262C64.2339 45.2262 60.5719 49.3831 60.5719 57.0536C60.5719 64.724 64.2339 68.8809 69.7765 68.8809C70.494 68.8809 71.1868 68.8067 71.8549 68.6829L67.1537 62.5466ZM86.503 57.0536C86.503 63.4373 84.3256 68.3613 80.812 71.4542L85.9092 77.937H78.9315L76.0613 74.3244C74.1313 75.0915 72.0034 75.4626 69.7765 75.4626C60.2255 75.4626 53.0004 68.6829 53.0004 57.0536C53.0004 45.3747 60.2255 38.6445 69.7765 38.6445C79.2284 38.6445 86.503 45.3747 86.503 57.0536Z" fill="#D5D5D5"/>
<mask id="path-9-inside-2_14020_1605" fill="white">
<path d="M140.762 226.628H335.015V0.000366211H140.762V226.628Z"/>
</mask>
<path d="M140.762 226.628H335.015V0.000366211H140.762V226.628Z" fill="white"/>
<path d="M140.762 225.22H335.015V228.036H140.762V225.22Z" fill="#CFCFCF" mask="url(#path-9-inside-2_14020_1605)"/>
<rect x="161.173" y="37.3024" width="153.431" height="38.0059" rx="19.0029" fill="white" stroke="#1E1E1E" stroke-width="1.40762"/>
<path d="M202.72 65.0439V49.1202H205.073V58.1378H205.271L210 53.1011H212.815L207.998 58.2258L213.145 65.0439H210.264L206.217 59.6774L205.073 60.7991V65.0439H202.72ZM219.303 65.2859C215.784 65.2859 213.629 62.8665 213.629 59.1495C213.629 55.4765 215.828 52.9472 219.149 52.9472C221.877 52.9472 224.45 54.6407 224.45 58.9516V59.7873H215.96C216.026 62.0527 217.357 63.3504 219.325 63.3504C220.667 63.3504 221.525 62.7785 221.921 62.0527H224.296C223.768 63.9882 221.921 65.2859 219.303 65.2859ZM215.982 58.0278H222.14C222.14 56.2023 220.975 54.8827 219.171 54.8827C217.291 54.8827 216.07 56.3343 215.982 58.0278ZM227.859 69.5307C227.375 69.5307 226.913 69.5088 226.605 69.4648V67.5073C226.869 67.5293 227.331 67.5513 227.661 67.5513C228.387 67.5513 229.003 67.4853 229.553 65.9897L229.838 65.1979L225.462 53.1011H227.969L230.982 62.3607H231.114L234.127 53.1011H236.657L231.73 66.6275C231.048 68.519 229.816 69.5307 227.859 69.5307ZM243.211 65.2859C239.736 65.2859 237.624 62.7126 237.624 59.1275C237.624 55.4765 239.802 52.9472 243.167 52.9472C245.894 52.9472 247.874 54.5527 248.116 56.9721H245.828C245.586 55.8504 244.684 54.9046 243.211 54.9046C241.275 54.9046 239.978 56.5102 239.978 59.0615C239.978 61.6788 241.253 63.2844 243.211 63.2844C244.531 63.2844 245.542 62.5586 245.828 61.261H248.116C247.852 63.5703 246.026 65.2859 243.211 65.2859ZM249.787 61.6788C249.787 58.9516 252.096 58.2478 254.252 58.0938C255.044 58.0388 256.836 57.9398 257.397 57.9178L257.375 56.9721C257.375 55.6305 256.561 54.8387 254.956 54.8387C253.57 54.8387 252.734 55.4765 252.492 56.3563H250.161C250.381 54.3768 252.228 52.9472 255.044 52.9472C256.935 52.9472 259.728 53.651 259.728 57.1041V65.0439H257.441V63.4164H257.353C256.891 64.3181 255.792 65.3079 253.812 65.3079C251.547 65.3079 249.787 64.0102 249.787 61.6788ZM252.074 61.7008C252.074 62.8445 253.02 63.4384 254.34 63.4384C256.253 63.4384 257.397 62.1627 257.397 60.7331V59.6334C256.847 59.6774 255.132 59.7983 254.582 59.8313C253.042 59.9413 252.074 60.5132 252.074 61.7008ZM262.566 69.5307V53.1011H264.853V55.0366H265.051C265.469 54.2888 266.283 52.9472 268.482 52.9472C271.363 52.9472 273.497 55.2126 273.497 59.1055C273.497 62.9545 271.407 65.2859 268.504 65.2859C266.327 65.2859 265.469 63.9662 265.051 63.1744H264.919V69.5307H262.566ZM264.875 59.0615C264.875 61.5689 265.975 63.2844 267.976 63.2844C270.044 63.2844 271.121 61.4589 271.121 59.0615C271.121 56.7082 270.066 54.9486 267.976 54.9486C265.953 54.9486 264.875 56.5762 264.875 59.0615Z" fill="#3C3C3C"/>
<mask id="path-13-inside-3_14020_1605" fill="white">
<path d="M335.014 226.628H1779.24V0.000366211H335.014V226.628Z"/>
</mask>
<path d="M335.014 226.628H1779.24V0.000366211H335.014V226.628Z" fill="white"/>
<path d="M335.014 225.22H1779.24V228.036H335.014V225.22Z" fill="#CFCFCF" mask="url(#path-13-inside-3_14020_1605)"/>
<path d="M382.516 45.4708V67.8636H379.745V45.4708H382.516ZM370.466 47.1039C373.831 47.1039 376.281 50.1721 376.306 54.9971C376.281 59.8715 373.831 62.9149 370.466 62.9149C367.076 62.9149 364.627 59.8715 364.627 54.9971C364.627 50.1721 367.076 47.1039 370.466 47.1039ZM370.466 49.5783C368.561 49.5783 367.274 51.5825 367.274 54.9971C367.274 58.4364 368.561 60.4406 370.466 60.4406C372.347 60.4406 373.633 58.4364 373.633 54.9971C373.633 51.5825 372.347 49.5783 370.466 49.5783ZM405.008 46.807V49.0092H400.307C400.344 51.632 402.274 54.1434 405.8 55.1455L404.414 57.2982C401.829 56.5311 399.96 54.9105 398.946 52.8444C397.944 55.0713 396.026 56.8281 393.354 57.6693L391.968 55.5167C395.544 54.4651 397.474 51.7804 397.536 49.0092H392.711V46.807H405.008ZM410.452 45.4708V57.5951H407.68V45.4708H410.452ZM398.377 58.5848V60.886H407.705V58.5848H410.452V67.5667H395.655V58.5848H398.377ZM398.377 65.3398H407.705V63.0139H398.377V65.3398ZM431.855 47.673C431.83 54.428 429.801 60.3169 421.487 64.3748L420.027 62.2469C423.875 60.3664 426.275 58.1271 427.648 55.4424L420.522 56.0858L420.176 53.7351L428.514 53.2155C428.824 52.1763 429.009 51.0629 429.108 49.8999H421.314V47.673H431.855ZM438.412 45.4708V67.8389H435.64V45.4708H438.412ZM462.066 62.8902V65.1419H441.628V62.8902H450.437V58.5354H443.88V46.9554H446.626V50.6175H456.994V46.9554H459.74V58.5354H453.159V62.8902H462.066ZM446.626 56.3085H456.994V52.8196H446.626V56.3085ZM481.688 55.962V58.1642H466.001V47.4256H481.515V49.6525H468.722V55.962H481.688ZM483.964 62.717V64.9934H463.526V62.717H483.964ZM502.646 47.0792V57.2734H492.204V47.0792H502.646ZM494.901 49.2813V55.0713H499.924V49.2813H494.901ZM509.079 45.4708V51.2361H512.197V53.5372H509.079V60.2674H506.332V45.4708H509.079ZM503.413 59.822C503.388 62.5191 506.159 64.9192 510.662 65.5625L509.574 67.7152C506.11 67.1584 503.413 65.5872 502.076 63.3603C500.691 65.5872 497.994 67.1584 494.53 67.7152L493.441 65.5625C497.92 64.9192 500.666 62.5191 500.666 59.822V59.2034H503.413V59.822ZM526.523 46.807V49.0092H521.822C521.859 51.632 523.789 54.1434 527.315 55.1455L525.929 57.2982C523.343 56.5311 521.475 54.9105 520.461 52.8444C519.459 55.0713 517.541 56.8281 514.869 57.6693L513.483 55.5167C517.059 54.4651 518.989 51.7804 519.05 49.0092H514.225V46.807H526.523ZM531.966 45.4708V57.5951H529.195V45.4708H531.966ZM519.892 58.5848V60.886H529.22V58.5848H531.966V67.5667H517.17V58.5848H519.892ZM519.892 65.3398H529.22V63.0139H519.892V65.3398ZM553.84 45.4708V67.8636H551.068V45.4708H553.84ZM541.79 47.1039C545.155 47.1039 547.604 50.1721 547.629 54.9971C547.604 59.8715 545.155 62.9149 541.79 62.9149C538.4 62.9149 535.95 59.8715 535.95 54.9971C535.95 50.1721 538.4 47.1039 541.79 47.1039ZM541.79 49.5783C539.884 49.5783 538.598 51.5825 538.598 54.9971C538.598 58.4364 539.884 60.4406 541.79 60.4406C543.67 60.4406 544.957 58.4364 544.957 54.9971C544.957 51.5825 543.67 49.5783 541.79 49.5783ZM560.817 47.6978V59.9952C563.007 59.9705 565.024 59.8096 567.3 59.3272L567.696 61.653C564.85 62.2716 562.401 62.3706 559.58 62.3706H558.071V47.6978H560.817ZM576.43 45.4708V67.8389H573.808V45.4708H576.43ZM571.63 45.941V66.7749H569.032V54.9228H564.356V52.6959H569.032V45.941H571.63ZM583.631 47.7225L583.359 60.3664H580.563L580.266 47.7225H583.631ZM581.973 65.8347C580.909 65.8347 580.043 64.9686 580.043 63.9047C580.043 62.8655 580.909 61.9994 581.973 61.9994C582.987 61.9994 583.878 62.8655 583.878 63.9047C583.878 64.9686 582.987 65.8347 581.973 65.8347Z" fill="black"/>
<mask id="path-16-inside-4_14020_1605" fill="white">
<path d="M1779.24 112.61H1920V0.000389099H1779.24V112.61Z"/>
</mask>
<path d="M1779.24 112.61H1920V0.000389099H1779.24V112.61Z" fill="white"/>
<path d="M1779.24 111.203H1920V114.018H1779.24V111.203Z" fill="#CFCFCF" mask="url(#path-16-inside-4_14020_1605)"/>
<mask id="path-18-inside-5_14020_1605" fill="white">
<path d="M1779.24 226.628H1920V0.000366211H1779.24V226.628Z"/>
</mask>
<path d="M1779.24 226.628H1920V0.000366211H1779.24V226.628Z" fill="white"/>
<path d="M1779.24 225.22H1920V228.036H1779.24V225.22Z" fill="#CFCFCF" mask="url(#path-18-inside-5_14020_1605)"/>
<path d="M1839.77 52.082L1848.69 61.0196C1849.2 61.5335 1850.03 61.5335 1850.55 61.0196L1859.47 52.082" stroke="#181818" stroke-width="3.3783" stroke-linecap="round"/>
<mask id="path-21-inside-6_14020_1605" fill="white">
<path d="M0 339.239H140.762V226.629H0V339.239Z"/>
</mask>
<path d="M0 339.239H140.762V226.629H0V339.239Z" fill="white"/>
<path d="M0 337.832H140.762V340.647H0V337.832Z" fill="#CFCFCF" mask="url(#path-21-inside-6_14020_1605)"/>
<path d="M67.1537 289.175H73.5375L76.2592 292.688C77.9665 290.684 78.9315 287.665 78.9315 283.681C78.9315 276.011 75.319 271.854 69.7765 271.854C64.2339 271.854 60.5719 276.011 60.5719 283.681C60.5719 291.352 64.2339 295.509 69.7765 295.509C70.494 295.509 71.1868 295.435 71.8549 295.311L67.1537 289.175ZM86.503 283.681C86.503 290.065 84.3256 294.989 80.812 298.082L85.9092 304.565H78.9315L76.0613 300.952C74.1313 301.719 72.0034 302.091 69.7765 302.091C60.2255 302.091 53.0004 295.311 53.0004 283.681C53.0004 272.003 60.2255 265.272 69.7765 265.272C79.2284 265.272 86.503 272.003 86.503 283.681Z" fill="#D5D5D5"/>
<mask id="path-24-inside-7_14020_1605" fill="white">
<path d="M140.762 339.239H335.015V226.629H140.762V339.239Z"/>
</mask>
<path d="M140.762 339.239H335.015V226.629H140.762V339.239Z" fill="white"/>
<path d="M140.762 337.832H335.015V340.647H140.762V337.832Z" fill="#CFCFCF" mask="url(#path-24-inside-7_14020_1605)"/>
<rect x="161.173" y="263.93" width="153.431" height="38.0059" rx="19.0029" fill="white" stroke="#1E1E1E" stroke-width="1.40762"/>
<path d="M202.72 291.672V275.748H205.074V284.766H205.271L210 279.729H212.815L207.999 284.854L213.145 291.672H210.264L206.217 286.305L205.074 287.427V291.672H202.72ZM219.304 291.914C215.785 291.914 213.629 289.494 213.629 285.777C213.629 282.104 215.829 279.575 219.15 279.575C221.877 279.575 224.45 281.269 224.45 285.579V286.415H215.961C216.027 288.681 217.357 289.978 219.326 289.978C220.667 289.978 221.525 289.406 221.921 288.681H224.296C223.769 290.616 221.921 291.914 219.304 291.914ZM215.983 284.656H222.141C222.141 282.83 220.975 281.511 219.172 281.511C217.291 281.511 216.071 282.962 215.983 284.656ZM227.859 296.159C227.376 296.159 226.914 296.137 226.606 296.093V294.135C226.87 294.157 227.332 294.179 227.661 294.179C228.387 294.179 229.003 294.113 229.553 292.618L229.839 291.826L225.462 279.729H227.969L230.983 288.989H231.115L234.128 279.729H236.657L231.73 293.255C231.049 295.147 229.817 296.159 227.859 296.159ZM243.211 291.914C239.736 291.914 237.625 289.34 237.625 285.755C237.625 282.104 239.802 279.575 243.167 279.575C245.895 279.575 247.874 281.181 248.116 283.6H245.829C245.587 282.478 244.685 281.533 243.211 281.533C241.276 281.533 239.978 283.138 239.978 285.689C239.978 288.307 241.254 289.912 243.211 289.912C244.531 289.912 245.543 289.187 245.829 287.889H248.116C247.852 290.198 246.027 291.914 243.211 291.914ZM249.788 288.307C249.788 285.579 252.097 284.876 254.252 284.722C255.044 284.667 256.837 284.568 257.398 284.546L257.376 283.6C257.376 282.258 256.562 281.467 254.956 281.467C253.571 281.467 252.735 282.104 252.493 282.984H250.161C250.381 281.005 252.229 279.575 255.044 279.575C256.936 279.575 259.729 280.279 259.729 283.732V291.672H257.442V290.044H257.354C256.892 290.946 255.792 291.936 253.813 291.936C251.547 291.936 249.788 290.638 249.788 288.307ZM252.075 288.329C252.075 289.472 253.021 290.066 254.34 290.066C256.254 290.066 257.398 288.791 257.398 287.361V286.261C256.848 286.305 255.132 286.426 254.582 286.459C253.043 286.569 252.075 287.141 252.075 288.329ZM262.566 296.159V279.729H264.854V281.665H265.052C265.469 280.917 266.283 279.575 268.483 279.575C271.364 279.575 273.497 281.84 273.497 285.733C273.497 289.582 271.408 291.914 268.505 291.914C266.327 291.914 265.469 290.594 265.052 289.802H264.92V296.159H262.566ZM264.876 285.689C264.876 288.197 265.975 289.912 267.977 289.912C270.044 289.912 271.122 288.087 271.122 285.689C271.122 283.336 270.066 281.577 267.977 281.577C265.953 281.577 264.876 283.204 264.876 285.689Z" fill="#3C3C3C"/>
<mask id="path-28-inside-8_14020_1605" fill="white">
<path d="M335.015 339.239H1779.24V226.629H335.015V339.239Z"/>
</mask>
<path d="M335.015 339.239H1779.24V226.629H335.015V339.239Z" fill="white"/>
<path d="M335.015 337.832H1779.24V340.647H335.015V337.832Z" fill="#CFCFCF" mask="url(#path-28-inside-8_14020_1605)"/>
<path d="M382.517 272.1V294.493H379.745V272.1H382.517ZM370.467 273.733C373.832 273.733 376.281 276.801 376.306 281.626C376.281 286.5 373.832 289.544 370.467 289.544C367.077 289.544 364.627 286.5 364.627 281.626C364.627 276.801 367.077 273.733 370.467 273.733ZM370.467 276.207C368.561 276.207 367.275 278.211 367.275 281.626C367.275 285.065 368.561 287.07 370.467 287.07C372.347 287.07 373.634 285.065 373.634 281.626C373.634 278.211 372.347 276.207 370.467 276.207ZM405.008 273.436V275.638H400.307C400.344 278.261 402.274 280.772 405.8 281.774L404.414 283.927C401.829 283.16 399.961 281.539 398.946 279.473C397.944 281.7 396.026 283.457 393.354 284.298L391.969 282.146C395.544 281.094 397.474 278.409 397.536 275.638H392.711V273.436H405.008ZM410.452 272.1V284.224H407.681V272.1H410.452ZM398.377 285.214V287.515H407.705V285.214H410.452V294.196H395.655V285.214H398.377ZM398.377 291.969H407.705V289.643H398.377V291.969ZM431.855 274.302C431.83 281.057 429.801 286.946 421.487 291.004L420.028 288.876C423.875 286.995 426.275 284.756 427.649 282.071L420.522 282.715L420.176 280.364L428.515 279.844C428.824 278.805 429.009 277.692 429.108 276.529H421.314V274.302H431.855ZM438.412 272.1V294.468H435.641V272.1H438.412ZM462.067 289.519V291.771H441.629V289.519H450.437V285.164H443.88V273.584H446.627V277.246H456.994V273.584H459.741V285.164H453.159V289.519H462.067ZM446.627 282.937H456.994V279.449H446.627V282.937ZM481.688 282.591V284.793H466.001V274.054H481.515V276.281H468.723V282.591H481.688ZM483.965 289.346V291.622H463.526V289.346H483.965ZM502.646 273.708V283.902H492.204V273.708H502.646ZM494.901 275.91V281.7H499.924V275.91H494.901ZM509.079 272.1V277.865H512.197V280.166H509.079V286.896H506.333V272.1H509.079ZM503.413 286.451C503.388 289.148 506.159 291.548 510.663 292.191L509.574 294.344C506.11 293.787 503.413 292.216 502.077 289.989C500.691 292.216 497.994 293.787 494.53 294.344L493.441 292.191C497.92 291.548 500.666 289.148 500.666 286.451V285.832H503.413V286.451ZM526.523 273.436V275.638H521.822C521.859 278.261 523.789 280.772 527.315 281.774L525.929 283.927C523.344 283.16 521.476 281.539 520.461 279.473C519.459 281.7 517.541 283.457 514.869 284.298L513.483 282.146C517.059 281.094 518.989 278.409 519.051 275.638H514.226V273.436H526.523ZM531.967 272.1V284.224H529.195V272.1H531.967ZM519.892 285.214V287.515H529.22V285.214H531.967V294.196H517.17V285.214H519.892ZM519.892 291.969H529.22V289.643H519.892V291.969ZM553.84 272.1V294.493H551.069V272.1H553.84ZM541.79 273.733C545.155 273.733 547.605 276.801 547.629 281.626C547.605 286.5 545.155 289.544 541.79 289.544C538.4 289.544 535.95 286.5 535.95 281.626C535.95 276.801 538.4 273.733 541.79 273.733ZM541.79 276.207C539.885 276.207 538.598 278.211 538.598 281.626C538.598 285.065 539.885 287.07 541.79 287.07C543.67 287.07 544.957 285.065 544.957 281.626C544.957 278.211 543.67 276.207 541.79 276.207ZM560.818 274.327V286.624C563.007 286.599 565.024 286.439 567.3 285.956L567.696 288.282C564.851 288.901 562.401 288.999 559.58 288.999H558.071V274.327H560.818ZM576.431 272.1V294.468H573.808V272.1H576.431ZM571.63 272.57V293.404H569.032V281.552H564.356V279.325H569.032V272.57H571.63ZM583.631 274.351L583.359 286.995H580.563L580.266 274.351H583.631ZM581.973 292.464C580.909 292.464 580.043 291.598 580.043 290.534C580.043 289.494 580.909 288.628 581.973 288.628C582.988 288.628 583.878 289.494 583.878 290.534C583.878 291.598 582.988 292.464 581.973 292.464Z" fill="black"/>
<mask id="path-31-inside-9_14020_1605" fill="white">
<path d="M1779.24 339.239H1920V226.629H1779.24V339.239Z"/>
</mask>
<path d="M1779.24 339.239H1920V226.629H1779.24V339.239Z" fill="white"/>
<path d="M1779.24 337.832H1920V340.647H1779.24V337.832Z" fill="#CFCFCF" mask="url(#path-31-inside-9_14020_1605)"/>
<path d="M1839.77 278.711L1848.69 287.648C1849.2 288.162 1850.03 288.162 1850.55 287.648L1859.47 278.711" stroke="#181818" stroke-width="3.3783" stroke-linecap="round"/>
<mask id="path-34-inside-10_14020_1605" fill="white">
<path d="M0 451.849H140.762V339.239H0V451.849Z"/>
</mask>
<path d="M0 451.849H140.762V339.239H0V451.849Z" fill="white"/>
<path d="M0 450.441H140.762V453.256H0V450.441Z" fill="#CFCFCF" mask="url(#path-34-inside-10_14020_1605)"/>
<path d="M67.1537 401.784H73.5375L76.2592 405.297C77.9665 403.293 78.9315 400.275 78.9315 396.291C78.9315 388.62 75.319 384.464 69.7765 384.464C64.2339 384.464 60.5719 388.62 60.5719 396.291C60.5719 403.961 64.2339 408.118 69.7765 408.118C70.494 408.118 71.1868 408.044 71.8549 407.92L67.1537 401.784ZM86.503 396.291C86.503 402.675 84.3256 407.599 80.812 410.692L85.9092 417.174H78.9315L76.0613 413.562C74.1313 414.329 72.0034 414.7 69.7765 414.7C60.2255 414.7 53.0004 407.92 53.0004 396.291C53.0004 384.612 60.2255 377.882 69.7765 377.882C79.2284 377.882 86.503 384.612 86.503 396.291Z" fill="#D5D5D5"/>
<mask id="path-37-inside-11_14020_1605" fill="white">
<path d="M140.762 451.849H335.015V339.239H140.762V451.849Z"/>
</mask>
<path d="M140.762 451.849H335.015V339.239H140.762V451.849Z" fill="white"/>
<path d="M140.762 450.441H335.015V453.256H140.762V450.441Z" fill="#CFCFCF" mask="url(#path-37-inside-11_14020_1605)"/>
<rect x="161.173" y="376.54" width="153.431" height="38.0059" rx="19.0029" fill="white" stroke="#1E1E1E" stroke-width="1.40762"/>
<path d="M202.72 404.282V388.358H205.073V397.376H205.271L210 392.339H212.815L207.998 397.464L213.145 404.282H210.264L206.217 398.916L205.073 400.037V404.282H202.72ZM219.303 404.524C215.784 404.524 213.629 402.105 213.629 398.388C213.629 394.715 215.828 392.185 219.15 392.185C221.877 392.185 224.45 393.879 224.45 398.19V399.026H215.96C216.026 401.291 217.357 402.589 219.325 402.589C220.667 402.589 221.525 402.017 221.921 401.291H224.296C223.768 403.227 221.921 404.524 219.303 404.524ZM215.982 397.266H222.141C222.141 395.441 220.975 394.121 219.172 394.121C217.291 394.121 216.07 395.573 215.982 397.266ZM227.859 408.769C227.375 408.769 226.913 408.747 226.606 408.703V406.746C226.869 406.768 227.331 406.79 227.661 406.79C228.387 406.79 229.003 406.724 229.553 405.228L229.839 404.436L225.462 392.339H227.969L230.982 401.599H231.114L234.128 392.339H236.657L231.73 405.866C231.048 407.757 229.817 408.769 227.859 408.769ZM243.211 404.524C239.736 404.524 237.625 401.951 237.625 398.366C237.625 394.715 239.802 392.185 243.167 392.185C245.894 392.185 247.874 393.791 248.116 396.21H245.828C245.586 395.089 244.685 394.143 243.211 394.143C241.276 394.143 239.978 395.749 239.978 398.3C239.978 400.917 241.254 402.523 243.211 402.523C244.531 402.523 245.542 401.797 245.828 400.499H248.116C247.852 402.809 246.026 404.524 243.211 404.524ZM249.787 400.917C249.787 398.19 252.097 397.486 254.252 397.332C255.044 397.277 256.836 397.178 257.397 397.156L257.375 396.21C257.375 394.869 256.562 394.077 254.956 394.077C253.57 394.077 252.735 394.715 252.493 395.595H250.161C250.381 393.615 252.229 392.185 255.044 392.185C256.935 392.185 259.729 392.889 259.729 396.342V404.282H257.441V402.655H257.353C256.891 403.556 255.792 404.546 253.812 404.546C251.547 404.546 249.787 403.249 249.787 400.917ZM252.075 400.939C252.075 402.083 253.02 402.677 254.34 402.677C256.254 402.677 257.397 401.401 257.397 399.971V398.872C256.847 398.916 255.132 399.037 254.582 399.07C253.042 399.18 252.075 399.751 252.075 400.939ZM262.566 408.769V392.339H264.853V394.275H265.051C265.469 393.527 266.283 392.185 268.482 392.185C271.364 392.185 273.497 394.451 273.497 398.344C273.497 402.193 271.408 404.524 268.504 404.524C266.327 404.524 265.469 403.205 265.051 402.413H264.919V408.769H262.566ZM264.875 398.3C264.875 400.807 265.975 402.523 267.976 402.523C270.044 402.523 271.122 400.697 271.122 398.3C271.122 395.946 270.066 394.187 267.976 394.187C265.953 394.187 264.875 395.814 264.875 398.3Z" fill="#3C3C3C"/>
<mask id="path-41-inside-12_14020_1605" fill="white">
<path d="M335.014 451.849H1779.24V339.239H335.014V451.849Z"/>
</mask>
<path d="M335.014 451.849H1779.24V339.239H335.014V451.849Z" fill="white"/>
<path d="M335.014 450.441H1779.24V453.256H335.014V450.441Z" fill="#CFCFCF" mask="url(#path-41-inside-12_14020_1605)"/>
<path d="M382.516 384.709V407.102H379.745V384.709H382.516ZM370.466 386.342C373.831 386.342 376.281 389.41 376.306 394.235C376.281 399.11 373.831 402.153 370.466 402.153C367.076 402.153 364.627 399.11 364.627 394.235C364.627 389.41 367.076 386.342 370.466 386.342ZM370.466 388.817C368.561 388.817 367.274 390.821 367.274 394.235C367.274 397.675 368.561 399.679 370.466 399.679C372.347 399.679 373.633 397.675 373.633 394.235C373.633 390.821 372.347 388.817 370.466 388.817ZM405.008 386.045V388.247H400.307C400.344 390.87 402.274 393.382 405.8 394.384L404.414 396.536C401.829 395.769 399.96 394.149 398.946 392.083C397.944 394.31 396.026 396.066 393.354 396.908L391.968 394.755C395.544 393.703 397.474 391.019 397.536 388.247H392.711V386.045H405.008ZM410.452 384.709V396.833H407.68V384.709H410.452ZM398.377 397.823V400.124H407.705V397.823H410.452V406.805H395.655V397.823H398.377ZM398.377 404.578H407.705V402.252H398.377V404.578ZM431.855 386.911C431.83 393.666 429.801 399.555 421.487 403.613L420.027 401.485C423.875 399.605 426.275 397.365 427.648 394.681L420.522 395.324L420.176 392.973L428.514 392.454C428.824 391.415 429.009 390.301 429.108 389.138H421.314V386.911H431.855ZM438.412 384.709V407.077H435.64V384.709H438.412ZM462.066 402.128V404.38H441.628V402.128H450.437V397.774H443.88V386.194H446.626V389.856H456.994V386.194H459.74V397.774H453.159V402.128H462.066ZM446.626 395.547H456.994V392.058H446.626V395.547ZM481.688 395.2V397.402H466.001V386.664H481.515V388.891H468.722V395.2H481.688ZM483.964 401.955V404.232H463.526V401.955H483.964ZM502.646 386.317V396.512H492.204V386.317H502.646ZM494.901 388.52V394.31H499.924V388.52H494.901ZM509.079 384.709V390.474H512.197V392.775H509.079V399.506H506.332V384.709H509.079ZM503.413 399.06C503.388 401.757 506.159 404.157 510.662 404.801L509.574 406.953C506.11 406.397 503.413 404.826 502.076 402.599C500.691 404.826 497.994 406.397 494.53 406.953L493.441 404.801C497.92 404.157 500.666 401.757 500.666 399.06V398.442H503.413V399.06ZM526.523 386.045V388.247H521.822C521.859 390.87 523.789 393.382 527.315 394.384L525.929 396.536C523.343 395.769 521.475 394.149 520.461 392.083C519.459 394.31 517.541 396.066 514.869 396.908L513.483 394.755C517.059 393.703 518.989 391.019 519.05 388.247H514.225V386.045H526.523ZM531.966 384.709V396.833H529.195V384.709H531.966ZM519.892 397.823V400.124H529.22V397.823H531.966V406.805H517.17V397.823H519.892ZM519.892 404.578H529.22V402.252H519.892V404.578ZM553.84 384.709V407.102H551.068V384.709H553.84ZM541.79 386.342C545.155 386.342 547.604 389.41 547.629 394.235C547.604 399.11 545.155 402.153 541.79 402.153C538.4 402.153 535.95 399.11 535.95 394.235C535.95 389.41 538.4 386.342 541.79 386.342ZM541.79 388.817C539.884 388.817 538.598 390.821 538.598 394.235C538.598 397.675 539.884 399.679 541.79 399.679C543.67 399.679 544.957 397.675 544.957 394.235C544.957 390.821 543.67 388.817 541.79 388.817ZM560.817 386.936V399.234C563.007 399.209 565.024 399.048 567.3 398.565L567.696 400.891C564.85 401.51 562.401 401.609 559.58 401.609H558.071V386.936H560.817ZM576.43 384.709V407.077H573.808V384.709H576.43ZM571.63 385.179V406.013H569.032V394.161H564.356V391.934H569.032V385.179H571.63ZM583.631 386.961L583.359 399.605H580.563L580.266 386.961H583.631ZM581.973 405.073C580.909 405.073 580.043 404.207 580.043 403.143C580.043 402.104 580.909 401.238 581.973 401.238C582.987 401.238 583.878 402.104 583.878 403.143C583.878 404.207 582.987 405.073 581.973 405.073Z" fill="black"/>
<mask id="path-44-inside-13_14020_1605" fill="white">
<path d="M1779.24 451.849H1920V339.239H1779.24V451.849Z"/>
</mask>
<path d="M1779.24 451.849H1920V339.239H1779.24V451.849Z" fill="white"/>
<path d="M1779.24 450.441H1920V453.256H1779.24V450.441Z" fill="#CFCFCF" mask="url(#path-44-inside-13_14020_1605)"/>
<path d="M1839.77 391.32L1848.69 400.258C1849.2 400.772 1850.03 400.772 1850.55 400.258L1859.47 391.32" stroke="#181818" stroke-width="3.3783" stroke-linecap="round"/>
<mask id="path-47-inside-14_14020_1605" fill="white">
<path d="M0 564.458H140.762V451.848H0V564.458Z"/>
</mask>
<path d="M0 564.458H140.762V451.848H0V564.458Z" fill="white"/>
<path d="M0 563.05H140.762V565.866H0V563.05Z" fill="#CFCFCF" mask="url(#path-47-inside-14_14020_1605)"/>
<path d="M67.1537 514.393H73.5375L76.2592 517.907C77.9665 515.903 78.9315 512.884 78.9315 508.9C78.9315 501.23 75.319 497.073 69.7765 497.073C64.2339 497.073 60.5719 501.23 60.5719 508.9C60.5719 516.571 64.2339 520.728 69.7765 520.728C70.494 520.728 71.1868 520.653 71.8549 520.53L67.1537 514.393ZM86.503 508.9C86.503 515.284 84.3256 520.208 80.812 523.301L85.9092 529.784H78.9315L76.0613 526.171C74.1313 526.938 72.0034 527.309 69.7765 527.309C60.2255 527.309 53.0004 520.53 53.0004 508.9C53.0004 497.221 60.2255 490.491 69.7765 490.491C79.2284 490.491 86.503 497.221 86.503 508.9Z" fill="#D5D5D5"/>
<mask id="path-50-inside-15_14020_1605" fill="white">
<path d="M140.763 564.458H335.015V451.848H140.763V564.458Z"/>
</mask>
<path d="M140.763 564.458H335.015V451.848H140.763V564.458Z" fill="white"/>
<path d="M140.763 563.05H335.015V565.866H140.763V563.05Z" fill="#CFCFCF" mask="url(#path-50-inside-15_14020_1605)"/>
<rect x="161.173" y="489.149" width="153.431" height="38.0059" rx="19.0029" fill="white" stroke="#1E1E1E" stroke-width="1.40762"/>
<path d="M202.72 516.891V500.967H205.074V509.984H205.271L210 504.948H212.815L207.999 510.072L213.145 516.891H210.264L206.217 511.524L205.074 512.646V516.891H202.72ZM219.304 517.133C215.785 517.133 213.629 514.713 213.629 510.996C213.629 507.323 215.829 504.794 219.15 504.794C221.877 504.794 224.45 506.487 224.45 510.798V511.634H215.961C216.027 513.899 217.357 515.197 219.326 515.197C220.667 515.197 221.525 514.625 221.921 513.899H224.296C223.769 515.835 221.921 517.133 219.304 517.133ZM215.983 509.874H222.141C222.141 508.049 220.975 506.729 219.172 506.729C217.291 506.729 216.071 508.181 215.983 509.874ZM227.859 521.377C227.376 521.377 226.914 521.355 226.606 521.311V519.354C226.87 519.376 227.332 519.398 227.661 519.398C228.387 519.398 229.003 519.332 229.553 517.836L229.839 517.045L225.462 504.948H227.969L230.983 514.207H231.115L234.128 504.948H236.657L231.73 518.474C231.049 520.366 229.817 521.377 227.859 521.377ZM243.211 517.133C239.736 517.133 237.625 514.559 237.625 510.974C237.625 507.323 239.802 504.794 243.167 504.794C245.895 504.794 247.874 506.399 248.116 508.819H245.829C245.587 507.697 244.685 506.751 243.211 506.751C241.276 506.751 239.978 508.357 239.978 510.908C239.978 513.526 241.254 515.131 243.211 515.131C244.531 515.131 245.543 514.405 245.829 513.108H248.116C247.852 515.417 246.027 517.133 243.211 517.133ZM249.788 513.526C249.788 510.798 252.097 510.094 254.252 509.94C255.044 509.885 256.837 509.787 257.398 509.765L257.376 508.819C257.376 507.477 256.562 506.685 254.956 506.685C253.571 506.685 252.735 507.323 252.493 508.203H250.161C250.381 506.223 252.229 504.794 255.044 504.794C256.936 504.794 259.729 505.498 259.729 508.951V516.891H257.442V515.263H257.354C256.892 516.165 255.792 517.155 253.813 517.155C251.547 517.155 249.788 515.857 249.788 513.526ZM252.075 513.548C252.075 514.691 253.021 515.285 254.34 515.285C256.254 515.285 257.398 514.009 257.398 512.58V511.48C256.848 511.524 255.132 511.645 254.582 511.678C253.043 511.788 252.075 512.36 252.075 513.548ZM262.566 521.377V504.948H264.854V506.883H265.052C265.469 506.135 266.283 504.794 268.483 504.794C271.364 504.794 273.497 507.059 273.497 510.952C273.497 514.801 271.408 517.133 268.505 517.133C266.327 517.133 265.469 515.813 265.052 515.021H264.92V521.377H262.566ZM264.876 510.908C264.876 513.416 265.975 515.131 267.977 515.131C270.044 515.131 271.122 513.306 271.122 510.908C271.122 508.555 270.066 506.795 267.977 506.795C265.953 506.795 264.876 508.423 264.876 510.908Z" fill="#3C3C3C"/>
<mask id="path-54-inside-16_14020_1605" fill="white">
<path d="M335.014 564.458H1779.24V451.848H335.014V564.458Z"/>
</mask>
<path d="M335.014 564.458H1779.24V451.848H335.014V564.458Z" fill="white"/>
<path d="M335.014 563.05H1779.24V565.866H335.014V563.05Z" fill="#CFCFCF" mask="url(#path-54-inside-16_14020_1605)"/>
<path d="M382.516 497.318V519.71H379.745V497.318H382.516ZM370.466 498.951C373.831 498.951 376.281 502.019 376.306 506.844C376.281 511.718 373.831 514.762 370.466 514.762C367.076 514.762 364.627 511.718 364.627 506.844C364.627 502.019 367.076 498.951 370.466 498.951ZM370.466 501.425C368.561 501.425 367.274 503.429 367.274 506.844C367.274 510.283 368.561 512.287 370.466 512.287C372.347 512.287 373.633 510.283 373.633 506.844C373.633 503.429 372.347 501.425 370.466 501.425ZM405.008 498.654V500.856H400.307C400.344 503.479 402.274 505.99 405.8 506.992L404.414 509.145C401.829 508.378 399.96 506.757 398.946 504.691C397.944 506.918 396.026 508.675 393.354 509.516L391.968 507.363C395.544 506.312 397.474 503.627 397.536 500.856H392.711V498.654H405.008ZM410.452 497.318V509.442H407.68V497.318H410.452ZM398.377 510.432V512.733H407.705V510.432H410.452V519.413H395.655V510.432H398.377ZM398.377 517.186H407.705V514.861H398.377V517.186ZM431.855 499.52C431.83 506.275 429.801 512.164 421.487 516.221L420.027 514.094C423.875 512.213 426.275 509.974 427.648 507.289L420.522 507.932L420.176 505.582L428.514 505.062C428.824 504.023 429.009 502.91 429.108 501.747H421.314V499.52H431.855ZM438.412 497.318V519.686H435.64V497.318H438.412ZM462.066 514.737V516.989H441.628V514.737H450.437V510.382H443.88V498.802H446.626V502.464H456.994V498.802H459.74V510.382H453.159V514.737H462.066ZM446.626 508.155H456.994V504.666H446.626V508.155ZM481.688 507.809V510.011H466.001V499.272H481.515V501.499H468.722V507.809H481.688ZM483.964 514.564V516.84H463.526V514.564H483.964ZM502.646 498.926V509.12H492.204V498.926H502.646ZM494.901 501.128V506.918H499.924V501.128H494.901ZM509.079 497.318V503.083H512.197V505.384H509.079V512.114H506.332V497.318H509.079ZM503.413 511.669C503.388 514.366 506.159 516.766 510.662 517.409L509.574 519.562C506.11 519.005 503.413 517.434 502.076 515.207C500.691 517.434 497.994 519.005 494.53 519.562L493.441 517.409C497.92 516.766 500.666 514.366 500.666 511.669V511.05H503.413V511.669ZM526.523 498.654V500.856H521.822C521.859 503.479 523.789 505.99 527.315 506.992L525.929 509.145C523.343 508.378 521.475 506.757 520.461 504.691C519.459 506.918 517.541 508.675 514.869 509.516L513.483 507.363C517.059 506.312 518.989 503.627 519.05 500.856H514.225V498.654H526.523ZM531.966 497.318V509.442H529.195V497.318H531.966ZM519.892 510.432V512.733H529.22V510.432H531.966V519.413H517.17V510.432H519.892ZM519.892 517.186H529.22V514.861H519.892V517.186ZM553.84 497.318V519.71H551.068V497.318H553.84ZM541.79 498.951C545.155 498.951 547.604 502.019 547.629 506.844C547.604 511.718 545.155 514.762 541.79 514.762C538.4 514.762 535.95 511.718 535.95 506.844C535.95 502.019 538.4 498.951 541.79 498.951ZM541.79 501.425C539.884 501.425 538.598 503.429 538.598 506.844C538.598 510.283 539.884 512.287 541.79 512.287C543.67 512.287 544.957 510.283 544.957 506.844C544.957 503.429 543.67 501.425 541.79 501.425ZM560.817 499.544V511.842C563.007 511.817 565.024 511.656 567.3 511.174L567.696 513.5C564.85 514.118 562.401 514.217 559.58 514.217H558.071V499.544H560.817ZM576.43 497.318V519.686H573.808V497.318H576.43ZM571.63 497.788V518.622H569.032V506.77H564.356V504.543H569.032V497.788H571.63ZM583.631 499.569L583.359 512.213H580.563L580.266 499.569H583.631ZM581.973 517.681C580.909 517.681 580.043 516.815 580.043 515.751C580.043 514.712 580.909 513.846 581.973 513.846C582.987 513.846 583.878 514.712 583.878 515.751C583.878 516.815 582.987 517.681 581.973 517.681Z" fill="black"/>
<mask id="path-57-inside-17_14020_1605" fill="white">
<path d="M1779.24 564.458H1920V451.848H1779.24V564.458Z"/>
</mask>
<path d="M1779.24 564.458H1920V451.848H1779.24V564.458Z" fill="white"/>
<path d="M1779.24 563.05H1920V565.866H1779.24V563.05Z" fill="#CFCFCF" mask="url(#path-57-inside-17_14020_1605)"/>
<path d="M1839.77 503.93L1848.69 512.867C1849.2 513.381 1850.03 513.381 1850.55 512.867L1859.47 503.93" stroke="#181818" stroke-width="3.3783" stroke-linecap="round"/>
<mask id="path-60-inside-18_14020_1605" fill="white">
<path d="M0 677.067H140.762V564.457H0V677.067Z"/>
</mask>
<path d="M0 677.067H140.762V564.457H0V677.067Z" fill="white"/>
<path d="M0 675.66H140.762V678.475H0V675.66Z" fill="#CFCFCF" mask="url(#path-60-inside-18_14020_1605)"/>
<path d="M67.1537 627.004H73.5375L76.2592 630.517C77.9665 628.513 78.9315 625.494 78.9315 621.511C78.9315 613.84 75.319 609.683 69.7765 609.683C64.2339 609.683 60.5719 613.84 60.5719 621.511C60.5719 629.181 64.2339 633.338 69.7765 633.338C70.494 633.338 71.1868 633.264 71.8549 633.14L67.1537 627.004ZM86.503 621.511C86.503 627.894 84.3256 632.818 80.812 635.911L85.9092 642.394H78.9315L76.0613 638.781C74.1313 639.549 72.0034 639.92 69.7765 639.92C60.2255 639.92 53.0004 633.14 53.0004 621.511C53.0004 609.832 60.2255 603.101 69.7765 603.101C79.2284 603.101 86.503 609.832 86.503 621.511Z" fill="#D5D5D5"/>
<mask id="path-63-inside-19_14020_1605" fill="white">
<path d="M140.762 677.067H335.014V564.457H140.762V677.067Z"/>
</mask>
<path d="M140.762 677.067H335.014V564.457H140.762V677.067Z" fill="white"/>
<path d="M140.762 675.66H335.014V678.475H140.762V675.66Z" fill="#CFCFCF" mask="url(#path-63-inside-19_14020_1605)"/>
<rect x="161.173" y="601.758" width="153.431" height="38.0059" rx="19.0029" fill="white" stroke="#1E1E1E" stroke-width="1.40762"/>
<path d="M202.72 629.5V613.576H205.073V622.594H205.271L210 617.557H212.815L207.998 622.682L213.145 629.5H210.264L206.217 624.133L205.073 625.255V629.5H202.72ZM219.303 629.742C215.784 629.742 213.629 627.323 213.629 623.606C213.629 619.933 215.828 617.403 219.15 617.403C221.877 617.403 224.45 619.097 224.45 623.408V624.243H215.96C216.026 626.509 217.357 627.806 219.325 627.806C220.667 627.806 221.525 627.235 221.921 626.509H224.296C223.768 628.444 221.921 629.742 219.303 629.742ZM215.982 622.484H222.141C222.141 620.658 220.975 619.339 219.172 619.339C217.291 619.339 216.07 620.79 215.982 622.484ZM227.859 633.987C227.375 633.987 226.913 633.965 226.606 633.921V631.963C226.869 631.985 227.331 632.007 227.661 632.007C228.387 632.007 229.003 631.941 229.553 630.446L229.839 629.654L225.462 617.557H227.969L230.982 626.817H231.114L234.128 617.557H236.657L231.73 631.084C231.048 632.975 229.817 633.987 227.859 633.987ZM243.211 629.742C239.736 629.742 237.625 627.169 237.625 623.584C237.625 619.933 239.802 617.403 243.167 617.403C245.894 617.403 247.874 619.009 248.116 621.428H245.828C245.586 620.306 244.685 619.361 243.211 619.361C241.276 619.361 239.978 620.966 239.978 623.518C239.978 626.135 241.254 627.74 243.211 627.74C244.531 627.74 245.542 627.015 245.828 625.717H248.116C247.852 628.026 246.026 629.742 243.211 629.742ZM249.787 626.135C249.787 623.408 252.097 622.704 254.252 622.55C255.044 622.495 256.836 622.396 257.397 622.374L257.375 621.428C257.375 620.087 256.562 619.295 254.956 619.295C253.57 619.295 252.735 619.933 252.493 620.812H250.161C250.381 618.833 252.229 617.403 255.044 617.403C256.935 617.403 259.729 618.107 259.729 621.56V629.5H257.441V627.872H257.353C256.891 628.774 255.792 629.764 253.812 629.764C251.547 629.764 249.787 628.466 249.787 626.135ZM252.075 626.157C252.075 627.301 253.02 627.894 254.34 627.894C256.254 627.894 257.397 626.619 257.397 625.189V624.089C256.847 624.133 255.132 624.254 254.582 624.287C253.042 624.397 252.075 624.969 252.075 626.157ZM262.566 633.987V617.557H264.853V619.493H265.051C265.469 618.745 266.283 617.403 268.482 617.403C271.364 617.403 273.497 619.669 273.497 623.562C273.497 627.411 271.408 629.742 268.504 629.742C266.327 629.742 265.469 628.422 265.051 627.63H264.919V633.987H262.566ZM264.875 623.518C264.875 626.025 265.975 627.74 267.976 627.74C270.044 627.74 271.122 625.915 271.122 623.518C271.122 621.164 270.066 619.405 267.976 619.405C265.953 619.405 264.875 621.032 264.875 623.518Z" fill="#3C3C3C"/>
<mask id="path-67-inside-20_14020_1605" fill="white">
<path d="M335.015 677.067H1779.24V564.457H335.015V677.067Z"/>
</mask>
<path d="M335.015 677.067H1779.24V564.457H335.015V677.067Z" fill="white"/>
<path d="M335.015 675.66H1779.24V678.475H335.015V675.66Z" fill="#CFCFCF" mask="url(#path-67-inside-20_14020_1605)"/>
<path d="M382.516 609.928V632.321H379.745V609.928H382.516ZM370.466 611.561C373.831 611.561 376.281 614.629 376.306 619.454C376.281 624.329 373.831 627.372 370.466 627.372C367.076 627.372 364.627 624.329 364.627 619.454C364.627 614.629 367.076 611.561 370.466 611.561ZM370.466 614.035C368.561 614.035 367.274 616.039 367.274 619.454C367.274 622.893 368.561 624.898 370.466 624.898C372.347 624.898 373.633 622.893 373.633 619.454C373.633 616.039 372.347 614.035 370.466 614.035ZM405.008 611.264V613.466H400.307C400.344 616.089 402.274 618.6 405.8 619.603L404.414 621.755C401.829 620.988 399.96 619.367 398.946 617.301C397.944 619.528 396.026 621.285 393.354 622.126L391.968 619.974C395.544 618.922 397.474 616.237 397.536 613.466H392.711V611.264H405.008ZM410.452 609.928V622.052H407.68V609.928H410.452ZM398.377 623.042V625.343H407.705V623.042H410.452V632.024H395.655V623.042H398.377ZM398.377 629.797H407.705V627.471H398.377V629.797ZM431.855 612.13C431.83 618.885 429.801 624.774 421.487 628.832L420.027 626.704C423.875 624.823 426.275 622.584 427.648 619.899L420.522 620.543L420.176 618.192L428.514 617.673C428.824 616.633 429.009 615.52 429.108 614.357H421.314V612.13H431.855ZM438.412 609.928V632.296H435.64V609.928H438.412ZM462.066 627.347V629.599H441.628V627.347H450.437V622.992H443.88V611.412H446.626V615.075H456.994V611.412H459.74V622.992H453.159V627.347H462.066ZM446.626 620.765H456.994V617.277H446.626V620.765ZM481.688 620.419V622.621H466.001V611.883H481.515V614.11H468.722V620.419H481.688ZM483.964 627.174V629.45H463.526V627.174H483.964ZM502.646 611.536V621.73H492.204V611.536H502.646ZM494.901 613.738V619.528H499.924V613.738H494.901ZM509.079 609.928V615.693H512.197V617.994H509.079V624.724H506.332V609.928H509.079ZM503.413 624.279C503.388 626.976 506.159 629.376 510.662 630.02L509.574 632.172C506.11 631.615 503.413 630.044 502.076 627.817C500.691 630.044 497.994 631.615 494.53 632.172L493.441 630.02C497.92 629.376 500.666 626.976 500.666 624.279V623.66H503.413V624.279ZM526.523 611.264V613.466H521.822C521.859 616.089 523.789 618.6 527.315 619.603L525.929 621.755C523.343 620.988 521.475 619.367 520.461 617.301C519.459 619.528 517.541 621.285 514.869 622.126L513.483 619.974C517.059 618.922 518.989 616.237 519.05 613.466H514.225V611.264H526.523ZM531.966 609.928V622.052H529.195V609.928H531.966ZM519.892 623.042V625.343H529.22V623.042H531.966V632.024H517.17V623.042H519.892ZM519.892 629.797H529.22V627.471H519.892V629.797ZM553.84 609.928V632.321H551.068V609.928H553.84ZM541.79 611.561C545.155 611.561 547.604 614.629 547.629 619.454C547.604 624.329 545.155 627.372 541.79 627.372C538.4 627.372 535.95 624.329 535.95 619.454C535.95 614.629 538.4 611.561 541.79 611.561ZM541.79 614.035C539.884 614.035 538.598 616.039 538.598 619.454C538.598 622.893 539.884 624.898 541.79 624.898C543.67 624.898 544.957 622.893 544.957 619.454C544.957 616.039 543.67 614.035 541.79 614.035ZM560.817 612.155V624.452C563.007 624.428 565.024 624.267 567.3 623.784L567.696 626.11C564.85 626.729 562.401 626.828 559.58 626.828H558.071V612.155H560.817ZM576.43 609.928V632.296H573.808V609.928H576.43ZM571.63 610.398V631.232H569.032V619.38H564.356V617.153H569.032V610.398H571.63ZM583.631 612.18L583.359 624.823H580.563L580.266 612.18H583.631ZM581.973 630.292C580.909 630.292 580.043 629.426 580.043 628.362C580.043 627.322 580.909 626.456 581.973 626.456C582.987 626.456 583.878 627.322 583.878 628.362C583.878 629.426 582.987 630.292 581.973 630.292Z" fill="black"/>
<mask id="path-70-inside-21_14020_1605" fill="white">
<path d="M1779.24 677.067H1920V564.457H1779.24V677.067Z"/>
</mask>
<path d="M1779.24 677.067H1920V564.457H1779.24V677.067Z" fill="white"/>
<path d="M1779.24 675.66H1920V678.475H1779.24V675.66Z" fill="#CFCFCF" mask="url(#path-70-inside-21_14020_1605)"/>
<path d="M1839.77 616.539L1848.69 625.477C1849.2 625.991 1850.03 625.991 1850.55 625.477L1859.47 616.539" stroke="#181818" stroke-width="3.3783" stroke-linecap="round"/>
<rect y="112.609" width="1920" height="112.61" fill="#F8F8F8"/>
<path d="M59.6812 187.577H51.6643L64.0855 151.749H73.6364L86.0081 187.577H78.0408L75.3685 179.313H62.4029L59.6812 187.577ZM64.2834 173.523H73.488L68.9847 159.815H68.7372L64.2834 173.523Z" fill="#2D2D2D"/>
<path d="M176.547 134.479V142.331H179.604V144.069H176.547V154.164H174.458V134.479H176.547ZM171.4 136.547C171.378 142.243 168.871 147.324 162.383 150.535L161.217 148.907C166.155 146.444 168.838 142.881 169.267 138.284H162.207V136.547H171.4ZM199.069 142.221V143.937H196.012V154.164H193.922V134.479H196.012V142.221H199.069ZM183.475 136.393V147.478C186.224 147.478 189.095 147.247 192.229 146.598L192.471 148.357C189.106 149.039 185.982 149.215 183.035 149.215H181.408V136.393H183.475ZM215.477 134.479V142.111H218.644V143.827H215.477V154.23H213.387V134.479H215.477ZM210.176 136.371V138.064H203.05V147.588C206.36 147.577 208.845 147.434 211.65 146.928L211.914 148.687C208.834 149.237 206.217 149.347 202.544 149.325H200.96V136.371H210.176ZM234.941 134.479V142.177H238.109V143.937H234.941V154.23H232.874V134.479H234.941ZM229.377 136.261V143.497H222.471V147.764C225.858 147.753 228.365 147.632 231.246 147.104L231.444 148.797C228.365 149.369 225.704 149.501 222.009 149.523H220.403V141.803H227.309V137.954H220.359V136.261H229.377ZM253.57 138.746C257.045 138.768 259.817 141.033 259.839 144.223C259.817 147.412 257.045 149.699 253.57 149.699C250.095 149.699 247.324 147.412 247.324 144.223C247.324 141.033 250.095 138.768 253.57 138.746ZM253.57 140.572C251.195 140.572 249.326 142.067 249.348 144.223C249.326 146.378 251.195 147.94 253.57 147.94C255.946 147.94 257.771 146.378 257.793 144.223C257.771 142.067 255.946 140.572 253.57 140.572ZM273.035 138.746C276.51 138.768 279.282 141.033 279.304 144.223C279.282 147.412 276.51 149.699 273.035 149.699C269.56 149.699 266.789 147.412 266.789 144.223C266.789 141.033 269.56 138.768 273.035 138.746ZM273.035 140.572C270.66 140.572 268.79 142.067 268.812 144.223C268.79 146.378 270.66 147.94 273.035 147.94C275.411 147.94 277.236 146.378 277.258 144.223C277.236 142.067 275.411 140.572 273.035 140.572ZM292.5 138.746C295.975 138.768 298.746 141.033 298.768 144.223C298.746 147.412 295.975 149.699 292.5 149.699C289.025 149.699 286.254 147.412 286.254 144.223C286.254 141.033 289.025 138.768 292.5 138.746ZM292.5 140.572C290.125 140.572 288.255 142.067 288.277 144.223C288.255 146.378 290.125 147.94 292.5 147.94C294.875 147.94 296.701 146.378 296.723 144.223C296.701 142.067 294.875 140.572 292.5 140.572ZM311.965 138.746C315.44 138.768 318.211 141.033 318.233 144.223C318.211 147.412 315.44 149.699 311.965 149.699C308.49 149.699 305.719 147.412 305.719 144.223C305.719 141.033 308.49 138.768 311.965 138.746ZM311.965 140.572C309.589 140.572 307.72 142.067 307.742 144.223C307.72 146.378 309.589 147.94 311.965 147.94C314.34 147.94 316.166 146.378 316.188 144.223C316.166 142.067 314.34 140.572 311.965 140.572ZM331.43 138.746C334.905 138.768 337.676 141.033 337.698 144.223C337.676 147.412 334.905 149.699 331.43 149.699C327.955 149.699 325.183 147.412 325.183 144.223C325.183 141.033 327.955 138.768 331.43 138.746ZM331.43 140.572C329.054 140.572 327.185 142.067 327.207 144.223C327.185 146.378 329.054 147.94 331.43 147.94C333.805 147.94 335.631 146.378 335.653 144.223C335.631 142.067 333.805 140.572 331.43 140.572ZM350.894 138.746C354.37 138.768 357.141 141.033 357.163 144.223C357.141 147.412 354.37 149.699 350.894 149.699C347.419 149.699 344.648 147.412 344.648 144.223C344.648 141.033 347.419 138.768 350.894 138.746ZM350.894 140.572C348.519 140.572 346.65 142.067 346.672 144.223C346.65 146.378 348.519 147.94 350.894 147.94C353.27 147.94 355.095 146.378 355.117 144.223C355.095 142.067 353.27 140.572 350.894 140.572ZM370.359 138.746C373.834 138.768 376.606 141.033 376.628 144.223C376.606 147.412 373.834 149.699 370.359 149.699C366.884 149.699 364.113 147.412 364.113 144.223C364.113 141.033 366.884 138.768 370.359 138.746ZM370.359 140.572C367.984 140.572 366.114 142.067 366.136 144.223C366.114 146.378 367.984 147.94 370.359 147.94C372.735 147.94 374.56 146.378 374.582 144.223C374.56 142.067 372.735 140.572 370.359 140.572ZM389.824 138.746C393.299 138.768 396.07 141.033 396.092 144.223C396.07 147.412 393.299 149.699 389.824 149.699C386.349 149.699 383.578 147.412 383.578 144.223C383.578 141.033 386.349 138.768 389.824 138.746ZM389.824 140.572C387.449 140.572 385.579 142.067 385.601 144.223C385.579 146.378 387.449 147.94 389.824 147.94C392.199 147.94 394.025 146.378 394.047 144.223C394.025 142.067 392.199 140.572 389.824 140.572ZM409.289 138.746C412.764 138.768 415.535 141.033 415.557 144.223C415.535 147.412 412.764 149.699 409.289 149.699C405.814 149.699 403.043 147.412 403.043 144.223C403.043 141.033 405.814 138.768 409.289 138.746ZM409.289 140.572C406.914 140.572 405.044 142.067 405.066 144.223C405.044 146.378 406.914 147.94 409.289 147.94C411.664 147.94 413.49 146.378 413.512 144.223C413.49 142.067 411.664 140.572 409.289 140.572ZM428.754 138.746C432.229 138.768 435 141.033 435.022 144.223C435 147.412 432.229 149.699 428.754 149.699C425.279 149.699 422.507 147.412 422.507 144.223C422.507 141.033 425.279 138.768 428.754 138.746ZM428.754 140.572C426.378 140.572 424.509 142.067 424.531 144.223C424.509 146.378 426.378 147.94 428.754 147.94C431.129 147.94 432.955 146.378 432.977 144.223C432.955 142.067 431.129 140.572 428.754 140.572ZM448.218 138.746C451.694 138.768 454.465 141.033 454.487 144.223C454.465 147.412 451.694 149.699 448.218 149.699C444.743 149.699 441.972 147.412 441.972 144.223C441.972 141.033 444.743 138.768 448.218 138.746ZM448.218 140.572C445.843 140.572 443.974 142.067 443.996 144.223C443.974 146.378 445.843 147.94 448.218 147.94C450.594 147.94 452.419 146.378 452.441 144.223C452.419 142.067 450.594 140.572 448.218 140.572ZM460.051 145.608C460.777 144.794 461.679 144.377 462.669 144.377C464.384 144.377 465.902 145.63 467.573 145.63C468.585 145.63 469.465 145.19 470.147 144.311V146.422C469.399 147.236 468.519 147.654 467.529 147.654C465.814 147.654 464.274 146.4 462.603 146.4C461.613 146.4 460.755 146.84 460.051 147.72V145.608ZM474.37 145.608C475.095 144.794 475.997 144.377 476.987 144.377C478.702 144.377 480.22 145.63 481.892 145.63C482.903 145.63 483.783 145.19 484.465 144.311V146.422C483.717 147.236 482.837 147.654 481.848 147.654C480.132 147.654 478.592 146.4 476.921 146.4C475.931 146.4 475.073 146.84 474.37 147.72V145.608ZM488.688 145.608C489.414 144.794 490.315 144.377 491.305 144.377C493.021 144.377 494.538 145.63 496.21 145.63C497.221 145.63 498.101 145.19 498.783 144.311V146.422C498.035 147.236 497.155 147.654 496.166 147.654C494.45 147.654 492.911 146.4 491.239 146.4C490.249 146.4 489.392 146.84 488.688 147.72V145.608ZM170.213 163.746C173.688 163.768 176.459 166.033 176.481 169.223C176.459 172.412 173.688 174.699 170.213 174.699C166.738 174.699 163.966 172.412 163.966 169.223C163.966 166.033 166.738 163.768 170.213 163.746ZM170.213 165.572C167.837 165.572 165.968 167.067 165.99 169.223C165.968 171.378 167.837 172.94 170.213 172.94C172.588 172.94 174.414 171.378 174.436 169.223C174.414 167.067 172.588 165.572 170.213 165.572ZM189.677 163.746C193.153 163.768 195.924 166.033 195.946 169.223C195.924 172.412 193.153 174.699 189.677 174.699C186.202 174.699 183.431 172.412 183.431 169.223C183.431 166.033 186.202 163.768 189.677 163.746ZM189.677 165.572C187.302 165.572 185.433 167.067 185.455 169.223C185.433 171.378 187.302 172.94 189.677 172.94C192.053 172.94 193.878 171.378 193.9 169.223C193.878 167.067 192.053 165.572 189.677 165.572ZM209.142 163.746C212.617 163.768 215.389 166.033 215.411 169.223C215.389 172.412 212.617 174.699 209.142 174.699C205.667 174.699 202.896 172.412 202.896 169.223C202.896 166.033 205.667 163.768 209.142 163.746ZM209.142 165.572C206.767 165.572 204.897 167.067 204.919 169.223C204.897 171.378 206.767 172.94 209.142 172.94C211.518 172.94 213.343 171.378 213.365 169.223C213.343 167.067 211.518 165.572 209.142 165.572ZM228.607 163.746C232.082 163.768 234.853 166.033 234.875 169.223C234.853 172.412 232.082 174.699 228.607 174.699C225.132 174.699 222.361 172.412 222.361 169.223C222.361 166.033 225.132 163.768 228.607 163.746ZM228.607 165.572C226.232 165.572 224.362 167.067 224.384 169.223C224.362 171.378 226.232 172.94 228.607 172.94C230.982 172.94 232.808 171.378 232.83 169.223C232.808 167.067 230.982 165.572 228.607 165.572ZM248.072 163.746C251.547 163.768 254.318 166.033 254.34 169.223C254.318 172.412 251.547 174.699 248.072 174.699C244.597 174.699 241.826 172.412 241.826 169.223C241.826 166.033 244.597 163.768 248.072 163.746ZM248.072 165.572C245.697 165.572 243.827 167.067 243.849 169.223C243.827 171.378 245.697 172.94 248.072 172.94C250.447 172.94 252.273 171.378 252.295 169.223C252.273 167.067 250.447 165.572 248.072 165.572ZM267.537 163.746C271.012 163.768 273.783 166.033 273.805 169.223C273.783 172.412 271.012 174.699 267.537 174.699C264.062 174.699 261.29 172.412 261.29 169.223C261.29 166.033 264.062 163.768 267.537 163.746ZM267.537 165.572C265.161 165.572 263.292 167.067 263.314 169.223C263.292 171.378 265.161 172.94 267.537 172.94C269.912 172.94 271.738 171.378 271.76 169.223C271.738 167.067 269.912 165.572 267.537 165.572ZM279.37 170.608C280.095 169.794 280.997 169.377 281.987 169.377C283.702 169.377 285.22 170.63 286.892 170.63C287.903 170.63 288.783 170.19 289.465 169.311V171.422C288.717 172.236 287.837 172.654 286.848 172.654C285.132 172.654 283.592 171.4 281.921 171.4C280.931 171.4 280.073 171.84 279.37 172.72V170.608ZM293.688 170.608C294.414 169.794 295.315 169.377 296.305 169.377C298.021 169.377 299.538 170.63 301.21 170.63C302.221 170.63 303.101 170.19 303.783 169.311V171.422C303.035 172.236 302.155 172.654 301.166 172.654C299.45 172.654 297.911 171.4 296.239 171.4C295.249 171.4 294.392 171.84 293.688 172.72V170.608ZM308.006 170.608C308.732 169.794 309.633 169.377 310.623 169.377C312.339 169.377 313.856 170.63 315.528 170.63C316.54 170.63 317.419 170.19 318.101 169.311V171.422C317.353 172.236 316.474 172.654 315.484 172.654C313.768 172.654 312.229 171.4 310.557 171.4C309.567 171.4 308.71 171.84 308.006 172.72V170.608ZM322.324 170.608C323.05 169.794 323.952 169.377 324.941 169.377C326.657 169.377 328.175 170.63 329.846 170.63C330.858 170.63 331.738 170.19 332.419 169.311V171.422C331.672 172.236 330.792 172.654 329.802 172.654C328.087 172.654 326.547 171.4 324.875 171.4C323.886 171.4 323.028 171.84 322.324 172.72V170.608ZM170.213 189.746C173.688 189.768 176.459 192.033 176.481 195.223C176.459 198.412 173.688 200.699 170.213 200.699C166.738 200.699 163.966 198.412 163.966 195.223C163.966 192.033 166.738 189.768 170.213 189.746ZM170.213 191.572C167.837 191.572 165.968 193.067 165.99 195.223C165.968 197.378 167.837 198.94 170.213 198.94C172.588 198.94 174.414 197.378 174.436 195.223C174.414 193.067 172.588 191.572 170.213 191.572ZM189.677 189.746C193.153 189.768 195.924 192.033 195.946 195.223C195.924 198.412 193.153 200.699 189.677 200.699C186.202 200.699 183.431 198.412 183.431 195.223C183.431 192.033 186.202 189.768 189.677 189.746ZM189.677 191.572C187.302 191.572 185.433 193.067 185.455 195.223C185.433 197.378 187.302 198.94 189.677 198.94C192.053 198.94 193.878 197.378 193.9 195.223C193.878 193.067 192.053 191.572 189.677 191.572ZM209.142 189.746C212.617 189.768 215.389 192.033 215.411 195.223C215.389 198.412 212.617 200.699 209.142 200.699C205.667 200.699 202.896 198.412 202.896 195.223C202.896 192.033 205.667 189.768 209.142 189.746ZM209.142 191.572C206.767 191.572 204.897 193.067 204.919 195.223C204.897 197.378 206.767 198.94 209.142 198.94C211.518 198.94 213.343 197.378 213.365 195.223C213.343 193.067 211.518 191.572 209.142 191.572ZM228.607 189.746C232.082 189.768 234.853 192.033 234.875 195.223C234.853 198.412 232.082 200.699 228.607 200.699C225.132 200.699 222.361 198.412 222.361 195.223C222.361 192.033 225.132 189.768 228.607 189.746ZM228.607 191.572C226.232 191.572 224.362 193.067 224.384 195.223C224.362 197.378 226.232 198.94 228.607 198.94C230.982 198.94 232.808 197.378 232.83 195.223C232.808 193.067 230.982 191.572 228.607 191.572ZM248.072 189.746C251.547 189.768 254.318 192.033 254.34 195.223C254.318 198.412 251.547 200.699 248.072 200.699C244.597 200.699 241.826 198.412 241.826 195.223C241.826 192.033 244.597 189.768 248.072 189.746ZM248.072 191.572C245.697 191.572 243.827 193.067 243.849 195.223C243.827 197.378 245.697 198.94 248.072 198.94C250.447 198.94 252.273 197.378 252.295 195.223C252.273 193.067 250.447 191.572 248.072 191.572ZM259.905 196.608C260.631 195.794 261.532 195.377 262.522 195.377C264.238 195.377 265.755 196.63 267.427 196.63C268.438 196.63 269.318 196.19 270 195.311V197.422C269.252 198.236 268.372 198.654 267.383 198.654C265.667 198.654 264.128 197.4 262.456 197.4C261.466 197.4 260.609 197.84 259.905 198.72V196.608ZM274.223 196.608C274.949 195.794 275.85 195.377 276.84 195.377C278.556 195.377 280.073 196.63 281.745 196.63C282.757 196.63 283.636 196.19 284.318 195.311V197.422C283.57 198.236 282.691 198.654 281.701 198.654C279.985 198.654 278.446 197.4 276.774 197.4C275.784 197.4 274.927 197.84 274.223 198.72V196.608ZM288.541 196.608C289.267 195.794 290.169 195.377 291.158 195.377C292.874 195.377 294.392 196.63 296.063 196.63C297.075 196.63 297.955 196.19 298.636 195.311V197.422C297.889 198.236 297.009 198.654 296.019 198.654C294.304 198.654 292.764 197.4 291.092 197.4C290.103 197.4 289.245 197.84 288.541 198.72V196.608Z" fill="black"/>
</g>
<defs>
<clipPath id="clip0_14020_1605">
<rect width="1920" height="1035" fill="white"/>
</clipPath>
</defs>
</svg>
