<svg width="1920" height="1035" viewBox="0 0 1920 1035" fill="none" xmlns="http://www.w3.org/2000/svg">
<rect width="1920" height="1035" fill="white"/>
<rect x="278" y="127" width="1364" height="5" fill="#0D0D0D"/>
<mask id="path-2-inside-1_14020_1401" fill="white">
<path d="M278 132H1642V212H278V132Z"/>
</mask>
<path d="M278 132H1642V212H278V132Z" fill="white"/>
<path d="M1642 211H278V213H1642V211Z" fill="#CFCFCF" mask="url(#path-2-inside-1_14020_1401)"/>
<path d="M1252 202H1382V142H1252V202Z" fill="white"/>
<path d="M1295.28 176.453V177.484H1282.56V176.453H1288.3V173.078H1289.53V176.453H1295.28ZM1283.19 172.578C1285.54 172.18 1288.27 170.234 1288.27 168.016V167.672H1283.61V166.641H1294.19V167.672H1289.53V168.016C1289.54 170.234 1292.27 172.141 1294.67 172.531L1294.17 173.5C1292.05 173.078 1289.8 171.727 1288.91 169.805C1288.02 171.75 1285.79 173.133 1283.7 173.562L1283.19 172.578ZM1301.14 168C1301.14 169.938 1302.55 171.766 1304.58 172.5L1303.89 173.453C1302.37 172.852 1301.15 171.648 1300.55 170.133C1299.97 171.812 1298.7 173.141 1297.06 173.797L1296.41 172.797C1298.49 172.031 1299.93 170.086 1299.94 167.953V166.234H1301.14V168ZM1298.92 178.969V174.609H1300.16V177.938H1308.22V178.969H1298.92ZM1303.58 169.688V168.656H1306.67V165.391H1307.91V175.797H1306.67V169.688H1303.58ZM1317.34 166.641V167.672H1312.06V170.547H1317.03V171.547H1312.06V174.906C1314.57 174.906 1316.33 174.812 1318.41 174.453L1318.55 175.469C1316.38 175.836 1314.55 175.914 1311.92 175.922H1310.83V166.641H1317.34ZM1319.75 179.266V165.375H1320.97V170.969H1323.3V172.016H1320.97V179.266H1319.75ZM1328.75 169.641C1328.73 171.867 1330.34 174.32 1332.36 175.281L1331.66 176.25C1330.09 175.484 1328.77 173.844 1328.15 171.961C1327.51 174 1326.12 175.797 1324.56 176.594L1323.81 175.625C1325.81 174.648 1327.53 172.008 1327.55 169.641V167.828H1324.31V166.812H1331.88V167.828H1328.75V169.641ZM1333.58 179.266V165.375H1334.8V171H1337.12V172.047H1334.8V179.266H1333.58ZM1349.36 165.375V179.266H1348.12V165.375H1349.36ZM1338.05 175.656C1341.8 173.875 1343.73 171.211 1344 167.891H1338.69V166.891H1345.25C1345.23 170.883 1343.38 174.422 1338.72 176.656L1338.05 175.656Z" fill="#4E4E4E"/>
<path d="M1382 202H1542V142H1382V202Z" fill="white"/>
<path d="M1419.06 178L1419.05 176.969L1422.91 172.906C1424.24 171.484 1424.88 170.719 1424.89 169.672C1424.88 168.508 1423.91 167.758 1422.64 167.75C1421.29 167.758 1420.45 168.609 1420.44 169.875H1419.11C1419.09 167.875 1420.64 166.531 1422.69 166.531C1424.74 166.531 1426.2 167.914 1426.2 169.672C1426.2 170.938 1425.61 171.922 1423.61 173.984L1421.02 176.656V176.75H1426.41V178H1419.06ZM1432.16 178.156C1429.65 178.156 1428.2 176.047 1428.2 172.344C1428.2 168.672 1429.66 166.531 1432.16 166.531C1434.64 166.531 1436.11 168.672 1436.11 172.344C1436.11 176.047 1434.66 178.156 1432.16 178.156ZM1429.56 172.344C1429.57 175.273 1430.52 176.906 1432.16 176.906C1433.79 176.906 1434.74 175.273 1434.73 172.344C1434.74 169.414 1433.78 167.758 1432.16 167.75C1430.53 167.758 1429.57 169.414 1429.56 172.344ZM1437.98 178L1437.97 176.969L1441.83 172.906C1443.16 171.484 1443.8 170.719 1443.81 169.672C1443.8 168.508 1442.84 167.758 1441.56 167.75C1440.21 167.758 1439.37 168.609 1439.36 169.875H1438.03C1438.02 167.875 1439.56 166.531 1441.61 166.531C1443.66 166.531 1445.12 167.914 1445.12 169.672C1445.12 170.938 1444.53 171.922 1442.53 173.984L1439.94 176.656V176.75H1445.33V178H1437.98ZM1451.28 178.156C1449.03 178.156 1447.41 176.953 1447.34 175.156H1448.77C1448.84 176.234 1449.91 176.906 1451.27 176.906C1452.76 176.906 1453.84 176.102 1453.84 174.922C1453.84 173.688 1452.85 172.82 1451.09 172.812H1450.17V171.578H1451.09C1452.47 171.578 1453.43 170.805 1453.42 169.641C1453.43 168.508 1452.6 167.758 1451.31 167.75C1450.1 167.758 1449 168.422 1448.94 169.531H1447.58C1447.65 167.734 1449.32 166.531 1451.33 166.531C1453.48 166.531 1454.8 167.945 1454.78 169.562C1454.8 170.852 1454.05 171.789 1452.86 172.125V172.203C1454.34 172.43 1455.23 173.484 1455.22 174.922C1455.23 176.781 1453.54 178.156 1451.28 178.156ZM1462.12 171.734V172.969H1457.17V171.734H1462.12ZM1467.88 178.156C1465.37 178.156 1463.91 176.047 1463.92 172.344C1463.91 168.672 1465.38 166.531 1467.88 166.531C1470.36 166.531 1471.83 168.672 1471.83 172.344C1471.83 176.047 1470.38 178.156 1467.88 178.156ZM1465.28 172.344C1465.29 175.273 1466.23 176.906 1467.88 176.906C1469.51 176.906 1470.46 175.273 1470.45 172.344C1470.46 169.414 1469.5 167.758 1467.88 167.75C1466.25 167.758 1465.29 169.414 1465.28 172.344ZM1477.7 166.688V178H1476.28V168.156H1476.22L1473.47 169.984V168.562L1476.28 166.688H1477.7ZM1485.59 171.734V172.969H1480.64V171.734H1485.59ZM1491.34 178.156C1488.84 178.156 1487.38 176.047 1487.39 172.344C1487.38 168.672 1488.85 166.531 1491.34 166.531C1493.83 166.531 1495.3 168.672 1495.3 172.344C1495.3 176.047 1493.85 178.156 1491.34 178.156ZM1488.75 172.344C1488.76 175.273 1489.7 176.906 1491.34 176.906C1492.98 176.906 1493.93 175.273 1493.92 172.344C1493.93 169.414 1492.97 167.758 1491.34 167.75C1489.72 167.758 1488.76 169.414 1488.75 172.344ZM1500.94 166.531C1502.88 166.555 1505.05 167.727 1505.05 171.891C1505.05 175.914 1503.4 178.156 1500.75 178.156C1498.76 178.156 1497.36 176.938 1497.08 175.141H1498.47C1498.72 176.156 1499.49 176.906 1500.75 176.906C1502.59 176.906 1503.72 175.312 1503.73 172.562H1503.58C1502.93 173.5 1501.89 174.062 1500.69 174.062C1498.66 174.062 1496.98 172.508 1496.98 170.328C1496.98 168.219 1498.53 166.508 1500.94 166.531ZM1498.36 170.312C1498.35 171.711 1499.41 172.828 1500.89 172.828C1502.37 172.828 1503.52 171.609 1503.52 170.281C1503.52 168.984 1502.43 167.766 1500.94 167.766C1499.46 167.766 1498.34 168.914 1498.36 170.312Z" fill="#4E4E4E"/>
<path d="M1542 202H1642V142H1542V202Z" fill="white"/>
<path d="M1579.06 166.688V178H1577.64V168.156H1577.58L1574.83 169.984V168.562L1577.64 166.688H1579.06ZM1585.84 166.531C1587.79 166.555 1589.95 167.727 1589.95 171.891C1589.95 175.914 1588.3 178.156 1585.66 178.156C1583.66 178.156 1582.27 176.938 1581.98 175.141H1583.38C1583.62 176.156 1584.4 176.906 1585.66 176.906C1587.5 176.906 1588.62 175.312 1588.64 172.562H1588.48C1587.84 173.5 1586.8 174.062 1585.59 174.062C1583.57 174.062 1581.89 172.508 1581.89 170.328C1581.89 168.219 1583.44 166.508 1585.84 166.531ZM1583.27 170.312C1583.26 171.711 1584.32 172.828 1585.8 172.828C1587.27 172.828 1588.42 171.609 1588.42 170.281C1588.42 168.984 1587.34 167.766 1585.84 167.766C1584.37 167.766 1583.25 168.914 1583.27 170.312ZM1595.59 178.156C1593.09 178.156 1591.63 176.047 1591.64 172.344C1591.63 168.672 1593.1 166.531 1595.59 166.531C1598.08 166.531 1599.55 168.672 1599.55 172.344C1599.55 176.047 1598.1 178.156 1595.59 178.156ZM1593 172.344C1593.01 175.273 1593.95 176.906 1595.59 176.906C1597.23 176.906 1598.18 175.273 1598.17 172.344C1598.18 169.414 1597.22 167.758 1595.59 167.75C1593.97 167.758 1593.01 169.414 1593 172.344ZM1605.12 178.156C1602.62 178.156 1601.16 176.047 1601.17 172.344C1601.16 168.672 1602.63 166.531 1605.12 166.531C1607.61 166.531 1609.08 168.672 1609.08 172.344C1609.08 176.047 1607.63 178.156 1605.12 178.156ZM1602.53 172.344C1602.54 175.273 1603.48 176.906 1605.12 176.906C1606.76 176.906 1607.71 175.273 1607.7 172.344C1607.71 169.414 1606.75 167.758 1605.12 167.75C1603.5 167.758 1602.54 169.414 1602.53 172.344Z" fill="#4E4E4E"/>
<path d="M323.273 163.082V180.758H321.086V163.082H323.273ZM309.152 170.602C309.143 166.793 311.086 164.371 313.762 164.371C316.408 164.371 318.361 166.793 318.371 170.602C318.361 174.439 316.408 176.852 313.762 176.852C311.086 176.852 309.143 174.439 309.152 170.602ZM311.242 170.602C311.242 173.316 312.268 174.889 313.762 174.898C315.246 174.889 316.262 173.316 316.262 170.602C316.262 167.906 315.246 166.324 313.762 166.324C312.268 166.324 311.242 167.906 311.242 170.602ZM341.027 164.137V165.875H337.316C337.346 167.945 338.869 169.938 341.652 170.719L340.559 172.418C338.518 171.812 337.043 170.533 336.242 168.902C335.441 170.66 333.938 172.047 331.828 172.711L330.734 171.012C333.557 170.182 335.08 168.072 335.129 165.875H331.32V164.137H341.027ZM333.645 180.523V173.434H335.793V175.25H343.156V173.434H345.324V180.523H333.645ZM335.793 178.766H343.156V176.93H335.793V178.766ZM343.137 172.652V163.082H345.324V172.652H343.137ZM362.219 164.82C362.199 170.143 360.598 174.791 354.035 178.004L352.883 176.324C355.92 174.84 357.805 173.072 358.889 170.953L353.273 171.461L353 169.605L359.582 169.195C359.826 168.375 359.973 167.496 360.051 166.578H353.898V164.82H362.219ZM365.207 180.738V163.082H367.395V180.738H365.207ZM386.066 176.832V178.609H369.934V176.832H376.887V173.395H371.711V164.254H373.879V167.145H382.062V164.254H384.23V173.395H379.035V176.832H386.066ZM373.879 171.637H382.062V168.883H373.879V171.637ZM401.555 171.363V173.102H389.172V164.625H401.418V166.383H391.32V171.363H401.555ZM387.219 178.492V176.695H403.352V178.492H387.219ZM418.098 164.352V172.398H409.855V164.352H418.098ZM410.832 178.941C414.367 178.443 416.535 176.549 416.535 174.41V173.922H418.703V174.41C418.684 176.549 420.871 178.443 424.426 178.941L423.566 180.641C420.832 180.201 418.703 178.951 417.639 177.193C416.555 178.951 414.426 180.201 411.691 180.641L410.832 178.941ZM411.984 170.66H415.949V166.09H411.984V170.66ZM421.008 174.762V163.082H423.176V167.633H425.637V169.449H423.176V174.762H421.008ZM436.945 164.137V165.875H433.234C433.264 167.945 434.787 169.938 437.57 170.719L436.477 172.418C434.436 171.812 432.961 170.533 432.16 168.902C431.359 170.66 429.855 172.047 427.746 172.711L426.652 171.012C429.475 170.182 430.998 168.072 431.047 165.875H427.238V164.137H436.945ZM429.562 180.523V173.434H431.711V175.25H439.074V173.434H441.242V180.523H429.562ZM431.711 178.766H439.074V176.93H431.711V178.766ZM439.055 172.652V163.082H441.242V172.652H439.055ZM458.508 163.082V180.758H456.32V163.082H458.508ZM444.387 170.602C444.377 166.793 446.32 164.371 448.996 164.371C451.643 164.371 453.596 166.793 453.605 170.602C453.596 174.439 451.643 176.852 448.996 176.852C446.32 176.852 444.377 174.439 444.387 170.602ZM446.477 170.602C446.477 173.316 447.502 174.889 448.996 174.898C450.48 174.889 451.496 173.316 451.496 170.602C451.496 167.906 450.48 166.324 448.996 166.324C447.502 166.324 446.477 167.906 446.477 170.602ZM464.016 164.84V174.547C465.744 174.527 467.326 174.41 469.133 174.02L469.445 175.855C467.209 176.344 465.275 176.422 463.039 176.422H461.848V164.84H464.016ZM466.809 170.543V168.785H470.5V163.453H472.551V179.898H470.5V170.543H466.809ZM474.27 180.738V163.082H476.34V180.738H474.27ZM482.023 164.859L481.809 174.84H479.602L479.367 164.859H482.023ZM479.191 177.633C479.182 176.812 479.875 176.139 480.715 176.129C481.525 176.139 482.219 176.812 482.219 177.633C482.219 178.473 481.525 179.156 480.715 179.156C479.875 179.156 479.182 178.473 479.191 177.633Z" fill="black"/>
<mask id="path-11-inside-2_14020_1401" fill="white">
<path d="M278 212H1642V848H278V212Z"/>
</mask>
<path d="M278 212H1642V848H278V212Z" fill="white"/>
<path d="M1642 847H278V849H1642V847Z" fill="#707070" mask="url(#path-11-inside-2_14020_1401)"/>
<path d="M319.422 243.375V247.609H321.516V248.641H319.422V253.625H318.203V243.375H319.422ZM308.828 247.781C308.82 245.766 310.398 244.367 312.469 244.359C314.555 244.367 316.109 245.766 316.125 247.781C316.109 249.789 314.555 251.203 312.469 251.203C310.398 251.203 308.82 249.789 308.828 247.781ZM310.031 247.781C310.023 249.148 311.094 250.125 312.469 250.125C313.867 250.125 314.914 249.148 314.922 247.781C314.914 246.406 313.867 245.438 312.469 245.438C311.094 245.438 310.023 246.406 310.031 247.781ZM310.734 256.969V252.562H311.938V255.938H320.062V256.969H310.734ZM324.469 244.234V249.922C326.828 249.93 328.492 249.828 330.406 249.422L330.562 250.438C328.547 250.852 326.797 250.961 324.281 250.953H323.219V244.234H324.469ZM324.641 254.656C324.633 252.992 326.406 252.023 329.297 252.016C332.18 252.023 333.953 252.992 333.953 254.656C333.953 256.297 332.18 257.25 329.297 257.266C326.406 257.25 324.633 256.297 324.641 254.656ZM325.859 254.656C325.852 255.656 327.164 256.266 329.297 256.266C331.422 256.266 332.734 255.656 332.734 254.656C332.734 253.625 331.422 253.008 329.297 253C327.164 253.008 325.852 253.625 325.859 254.656ZM328.688 248.469V247.5H332.672V246.016H328.688V245.031H332.672V243.375H333.906V251.906H332.672V248.469H328.688ZM346.969 243.375V249.109H349.297V250.125H346.969V257.266H345.75V243.375H346.969ZM336.141 246.625V245.609H339.719V243.547H340.938V245.609H344.406V246.625H336.141ZM336.938 250.969C336.93 249.094 338.367 247.781 340.344 247.781C342.305 247.781 343.734 249.094 343.75 250.969C343.734 252.852 342.305 254.156 340.344 254.156C338.367 254.156 336.93 252.852 336.938 250.969ZM338.109 250.969C338.102 252.234 339.047 253.125 340.344 253.109C341.625 253.125 342.562 252.234 342.578 250.969C342.562 249.711 341.625 248.805 340.344 248.812C339.047 248.805 338.102 249.711 338.109 250.969ZM354.172 247.328C354.172 249.539 355.25 251.922 357.094 253.016L356.391 253.969C355.047 253.156 354.086 251.672 353.602 249.977C353.094 251.828 352.062 253.422 350.672 254.266L349.891 253.344C351.812 252.219 352.984 249.758 352.984 247.375V244.688H354.172V247.328ZM355.562 249.406V248.359H357.922V243.672H359.078V256.562H357.922V249.406H355.562ZM360.766 257.266V243.375H361.953V257.266H360.766ZM376.594 254.453V255.484H363.875V254.453H367.031V250.711C365.844 250.094 365.125 249.094 365.125 247.828C365.125 245.68 367.234 244.266 370.203 244.25C373.172 244.266 375.281 245.68 375.281 247.828C375.281 249.07 374.586 250.055 373.438 250.672V254.453H376.594ZM366.312 247.828C366.305 249.383 367.922 250.422 370.203 250.422C372.461 250.422 374.094 249.383 374.094 247.828C374.094 246.273 372.461 245.25 370.203 245.266C367.922 245.25 366.305 246.273 366.312 247.828ZM368.234 254.453H372.203V251.148C371.602 251.305 370.93 251.391 370.203 251.391C369.492 251.391 368.828 251.312 368.234 251.156V254.453ZM379.172 256.094C378.625 256.086 378.156 255.633 378.172 255.078C378.156 254.531 378.625 254.078 379.172 254.078C379.727 254.078 380.18 254.531 380.172 255.078C380.18 255.633 379.727 256.086 379.172 256.094ZM390.484 246.359C390.492 248.078 391.883 249.68 393.922 250.312L393.344 251.266C391.758 250.758 390.523 249.688 389.914 248.336C389.32 249.859 388.047 251.062 386.406 251.641L385.812 250.656C387.852 249.977 389.273 248.266 389.281 246.359V246.031H386.141V245.031H389.281V243.328H390.516V245.031H393.625V246.031H390.484V246.359ZM387.438 256.234C389.859 255.812 392.141 254.289 392.156 252.359V252.062H393.406V252.359C393.398 254.328 395.648 255.82 398.141 256.234L397.625 257.203C395.523 256.828 393.594 255.742 392.766 254.117C391.93 255.727 389.992 256.836 387.891 257.203L387.438 256.234ZM393.203 248.359V247.328H396.031V243.375H397.266V253.016H396.031V248.359H393.203ZM414.578 244.281V245.5C414.578 246.812 414.578 248.258 414.18 250.25H416.25V251.266H410.516V257.297H409.281V251.266H403.594V250.25H412.938C413.359 248.25 413.359 246.797 413.359 245.5V245.297H405.188V244.281H414.578ZM429.328 243.375V257.266H428.141V249.906H426.203V256.562H425.031V243.672H426.203V248.891H428.141V243.375H429.328ZM417.938 253.531V245H423.25V253.531H417.938ZM419.094 252.547H422.094V245.984H419.094V252.547ZM435.953 247.641C435.938 249.867 437.547 252.32 439.562 253.281L438.859 254.25C437.297 253.484 435.977 251.844 435.352 249.961C434.711 252 433.32 253.797 431.766 254.594L431.016 253.625C433.016 252.648 434.734 250.008 434.75 247.641V245.828H431.516V244.812H439.078V245.828H435.953V247.641ZM440.781 257.266V243.375H442V249H444.328V250.047H442V257.266H440.781ZM456.547 243.375V250.828H455.328V243.375H456.547ZM445.406 247.25C445.398 245.352 446.938 244.047 449.047 244.062C451.156 244.047 452.68 245.352 452.688 247.25C452.68 249.141 451.156 250.445 449.047 250.438C446.938 250.445 445.398 249.141 445.406 247.25ZM446.609 247.25C446.594 248.516 447.617 249.414 449.047 249.422C450.461 249.414 451.484 248.516 451.484 247.25C451.484 245.977 450.461 245.086 449.047 245.094C447.617 245.086 446.594 245.977 446.609 247.25ZM447.547 257.078V251.531H448.766V253.219H455.328V251.531H456.547V257.078H447.547ZM448.766 256.078H455.328V254.203H448.766V256.078ZM470.359 243.375V257.266H469.141V243.375H470.359ZM459.812 253.688V244.75H461.016V252.625C463.141 252.609 465.328 252.445 467.656 251.953L467.828 253C465.359 253.516 463.164 253.688 460.938 253.688H459.812ZM483.484 243.375V248.875H485.812V249.906H483.484V257.297H482.266V243.375H483.484ZM473.344 253.812V244.734H479.828V245.75H474.562V252.781C477.078 252.773 478.852 252.664 480.922 252.281L481.078 253.344C478.898 253.734 477.078 253.812 474.438 253.812H473.344ZM488.812 244.688L488.703 252.812H487.391L487.281 244.688H488.812ZM487.047 255.078C487.031 254.531 487.5 254.078 488.047 254.078C488.602 254.078 489.055 254.531 489.047 255.078C489.055 255.633 488.602 256.086 488.047 256.094C487.5 256.086 487.031 255.633 487.047 255.078ZM319.641 268.594V269.625H310.344V268.594H314.391V266.719H315.625V268.594H319.641ZM311.578 273.125C311.57 271.664 313.016 270.609 315 270.609C316.984 270.609 318.422 271.664 318.438 273.125C318.422 274.625 316.984 275.672 315 275.672C313.016 275.672 311.57 274.625 311.578 273.125ZM312.844 273.125C312.828 274.016 313.758 274.633 315 274.641C316.242 274.633 317.172 274.016 317.172 273.125C317.172 272.273 316.242 271.648 315 271.656C313.758 271.648 312.828 272.273 312.844 273.125ZM333.469 268.594V269.625H324.172V268.594H328.219V266.719H329.453V268.594H333.469ZM325.406 273.125C325.398 271.664 326.844 270.609 328.828 270.609C330.812 270.609 332.25 271.664 332.266 273.125C332.25 274.625 330.812 275.672 328.828 275.672C326.844 275.672 325.398 274.625 325.406 273.125ZM326.672 273.125C326.656 274.016 327.586 274.633 328.828 274.641C330.07 274.633 331 274.016 331 273.125C331 272.273 330.07 271.648 328.828 271.656C327.586 271.648 326.656 272.273 326.672 273.125ZM319.312 306.375V312.109H321.641V313.125H319.312V320.266H318.094V306.375H319.312ZM308.484 309.625V308.609H312.062V306.547H313.281V308.609H316.75V309.625H308.484ZM309.281 313.969C309.273 312.094 310.711 310.781 312.688 310.781C314.648 310.781 316.078 312.094 316.094 313.969C316.078 315.852 314.648 317.156 312.688 317.156C310.711 317.156 309.273 315.852 309.281 313.969ZM310.453 313.969C310.445 315.234 311.391 316.125 312.688 316.109C313.969 316.125 314.906 315.234 314.922 313.969C314.906 312.711 313.969 311.805 312.688 311.812C311.391 311.805 310.445 312.711 310.453 313.969ZM333.141 306.375V312.109H335.469V313.125H333.141V320.266H331.922V306.375H333.141ZM322.312 309.625V308.609H325.891V306.547H327.109V308.609H330.578V309.625H322.312ZM323.109 313.969C323.102 312.094 324.539 310.781 326.516 310.781C328.477 310.781 329.906 312.094 329.922 313.969C329.906 315.852 328.477 317.156 326.516 317.156C324.539 317.156 323.102 315.852 323.109 313.969ZM324.281 313.969C324.273 315.234 325.219 316.125 326.516 316.109C327.797 316.125 328.734 315.234 328.75 313.969C328.734 312.711 327.797 311.805 326.516 311.812C325.219 311.805 324.273 312.711 324.281 313.969ZM319.641 331.594V332.625H310.344V331.594H314.391V329.719H315.625V331.594H319.641ZM311.578 336.125C311.57 334.664 313.016 333.609 315 333.609C316.984 333.609 318.422 334.664 318.438 336.125C318.422 337.625 316.984 338.672 315 338.672C313.016 338.672 311.57 337.625 311.578 336.125ZM312.844 336.125C312.828 337.016 313.758 337.633 315 337.641C316.242 337.633 317.172 337.016 317.172 336.125C317.172 335.273 316.242 334.648 315 334.656C313.758 334.648 312.828 335.273 312.844 336.125ZM334.391 329.438V330.453H323.016V329.438H328.109V327.609H329.312V329.438H334.391ZM322.391 339.641V338.625H328.109V336.672C325.633 336.539 324.141 335.578 324.156 334.016C324.141 332.367 325.883 331.391 328.719 331.406C331.516 331.391 333.289 332.367 333.281 334.016C333.289 335.578 331.766 336.539 329.312 336.672V338.625H335.109V339.641H322.391ZM325.391 334.016C325.375 335.07 326.648 335.68 328.719 335.688C330.766 335.68 332.039 335.07 332.031 334.016C332.039 332.984 330.766 332.375 328.719 332.375C326.648 332.375 325.375 332.984 325.391 334.016ZM348.859 336.047V337.078H336.25V336.047H341.938V330.25H343.141V336.047H348.859ZM362.047 329.438V330.453H350.672V329.438H355.766V327.609H356.969V329.438H362.047ZM350.047 339.641V338.625H355.766V336.672C353.289 336.539 351.797 335.578 351.812 334.016C351.797 332.367 353.539 331.391 356.375 331.406C359.172 331.391 360.945 332.367 360.938 334.016C360.945 335.578 359.422 336.539 356.969 336.672V338.625H362.766V339.641H350.047ZM353.047 334.016C353.031 335.07 354.305 335.68 356.375 335.688C358.422 335.68 359.695 335.07 359.688 334.016C359.695 332.984 358.422 332.375 356.375 332.375C354.305 332.375 353.031 332.984 353.047 334.016ZM376.516 336.047V337.078H363.906V336.047H369.594V330.25H370.797V336.047H376.516Z" fill="black"/>
<rect x="860" y="888" width="200" height="46" rx="5" fill="#5E5E5E"/>
<path d="M957.061 903.465V908.738H952.438V910.742H958.871V911.867H944.633V910.742H951.066V908.738H946.479V903.465H957.061ZM946.215 914.609V913.502H957.113V918.424H955.725V914.609H946.215ZM947.832 907.631H955.689V904.572H947.832V907.631ZM974.48 911.41V912.553H960.172V911.41H966.641V909.758H962.035V905.943H971.246V904.326H961.982V903.201H972.635V906.98H963.406V908.65H972.969V909.758H967.994V911.41H974.48ZM961.771 914.873V913.748H972.723V918.283H971.334V914.873H961.771Z" fill="white"/>
<path d="M291.656 99.1562C297.875 99.1562 301.781 101.125 301.812 104.531C301.781 107.891 297.875 109.891 291.656 109.875C285.484 109.891 281.516 107.891 281.531 104.531C281.516 101.125 285.484 99.1562 291.656 99.1562ZM278.906 97.3438V94.125H288.594V89.1562H292.531V94.125H304.719V97.3438H278.906ZM281.812 85.8438V82.7188H301.656V85.0312C301.672 87.2969 301.672 89.7344 300.844 92.6562L296.938 92.2812C297.578 89.7031 297.656 87.7812 297.688 85.8438H281.812ZM285.5 104.531C285.484 106.062 287.734 106.844 291.656 106.844C295.578 106.844 297.844 106.062 297.844 104.531C297.844 102.953 295.578 102.109 291.656 102.125C287.734 102.109 285.484 102.953 285.5 104.531ZM317.531 89.1875C317.516 93.7812 319.891 98.7031 324.656 100.688L322.5 103.812C319.156 102.391 316.844 99.5625 315.562 96.125C314.281 99.8594 311.922 102.984 308.562 104.531L306.281 101.375C311 99.2656 313.438 94 313.438 89.1875V87.4375H307.406V84.1875H323.469V87.4375H317.531V89.1875ZM326.281 109.875V81.4375H330.312V109.875H326.281ZM344.625 87.875C344.609 92.9688 346.781 98.1094 351.344 100.312L348.938 103.5C345.891 101.984 343.828 99.1719 342.656 95.75C341.406 99.4219 339.219 102.438 336 104.031L333.531 100.812C338.359 98.5938 340.625 93.1562 340.625 87.875V83.625H344.625V87.875ZM352.594 109.875V81.4375H356.594V92.4062H360.781V95.7812H356.594V109.875H352.594ZM384.375 81.4375V88.7188H388.219V92.0312H384.375V99.5H380.375V81.4375H384.375ZM361.812 87.25V84.1562H368.281V81.2812H372.25V84.1562H378.688V87.25H361.812ZM363.188 93.3438C363.188 90.3125 366.062 88.2344 370.25 88.2188C374.391 88.2344 377.25 90.3125 377.25 93.3438C377.25 96.4062 374.391 98.4375 370.25 98.4375C366.078 98.4375 363.188 96.4062 363.188 93.3438ZM365.469 104.844C365.438 101.641 369.109 99.7656 375.094 99.75C380.938 99.7656 384.672 101.641 384.688 104.844C384.672 107.969 380.938 109.891 375.094 109.875C369.109 109.891 365.438 107.969 365.469 104.844ZM367.094 93.3438C367.078 94.75 368.344 95.4844 370.25 95.4688C372.172 95.4844 373.469 94.75 373.469 93.3438C373.469 91.9219 372.172 91.1406 370.25 91.125C368.344 91.1406 367.078 91.9219 367.094 93.3438ZM369.406 104.844C369.391 106.172 371.359 106.906 375.094 106.906C378.719 106.906 380.688 106.172 380.688 104.844C380.688 103.422 378.719 102.797 375.094 102.781C371.359 102.797 369.391 103.422 369.406 104.844Z" fill="black"/>
</svg>
