<svg width="1920" height="650" viewBox="0 0 1920 650" fill="none" xmlns="http://www.w3.org/2000/svg">
<rect width="1920" height="650" fill="white"/>
<mask id="path-1-inside-1_14020_1131" fill="white">
<path d="M0 550.87H140.529V438.447H0V550.87Z"/>
</mask>
<path d="M0 550.87H140.529V438.447H0V550.87Z" fill="white"/>
<path d="M0 549.465H140.529V552.275H0V549.465Z" fill="#CFCFCF" mask="url(#path-1-inside-1_14020_1131)"/>
<path d="M71.7576 486.52V502.417H69.7594V488.584H69.6716L65.8071 491.153V489.155L69.7594 486.52H71.7576Z" fill="black"/>
<mask id="path-4-inside-2_14020_1131" fill="white">
<path d="M140.528 550.87H1368.75V438.447H140.528V550.87Z"/>
</mask>
<path d="M140.528 550.87H1368.75V438.447H140.528V550.87Z" fill="white"/>
<path d="M140.528 549.465H1368.75V552.275H140.528V549.465Z" fill="#CFCFCF" mask="url(#path-4-inside-2_14020_1131)"/>
<path d="M192.546 484.675V504.239H190.811V484.675H192.546ZM182.16 486.19C185.058 486.212 187.144 488.847 187.144 492.997C187.144 497.147 185.058 499.782 182.16 499.782C179.239 499.782 177.175 497.147 177.175 492.997C177.175 488.847 179.239 486.212 182.16 486.19ZM182.16 487.727C180.206 487.749 178.844 489.813 178.844 492.997C178.844 496.181 180.206 498.245 182.16 498.245C184.114 498.245 185.475 496.181 185.475 492.997C185.475 489.813 184.114 487.749 182.16 487.727ZM208.553 487.903C208.553 490.45 210.683 492.712 213.581 493.59L212.703 494.951C210.419 494.227 208.586 492.657 207.697 490.648C206.84 492.8 204.996 494.479 202.668 495.281L201.768 493.919C204.71 492.997 206.818 490.582 206.818 487.903V487.398H202.251V485.993H213.054V487.398H208.553V487.903ZM217.643 484.675V495.237H215.931V484.675H217.643ZM206.708 496.203V498.574H215.931V496.203H217.643V503.932H204.996V496.203H206.708ZM206.708 502.527H215.931V499.958H206.708V502.527ZM237.076 486.717C237.054 492.36 235.012 497.564 227.963 501.012L226.997 499.628C230.653 497.872 232.915 495.621 234.155 492.975L227.371 493.634L227.085 492.097L234.704 491.592C235.056 490.505 235.264 489.352 235.341 488.145H228.073V486.717H237.076ZM242.741 484.675V504.196H241.006V484.675H242.741ZM263.908 500.265V501.692H246.034V500.265H254.071V496.049H248.142V486.059H249.877V489.594H260.021V486.059H261.712V496.049H255.762V500.265H263.908ZM249.877 494.644H260.021V490.999H249.877V494.644ZM281.232 494.073V495.5H267.751V486.498H281.035V487.925H269.463V494.073H281.232ZM283.34 500.089V501.539H265.467V500.089H283.34ZM300.204 486.168V494.842H291.377V486.168H300.204ZM293.068 487.596V493.436H298.491V487.596H293.068ZM305.803 484.675V490.033H308.745V491.482H305.803V497.674H304.09V484.675H305.803ZM300.731 497.301C300.709 500.111 303.893 502.175 307.34 502.746L306.637 504.108C303.75 503.581 301.06 502.088 299.896 499.848C298.711 502.088 296.01 503.581 293.112 504.108L292.431 502.746C295.878 502.175 299.018 500.111 299.018 497.301V496.708H300.731V497.301ZM317.001 487.903C317.001 490.45 319.131 492.712 322.03 493.59L321.151 494.951C318.868 494.227 317.034 492.657 316.145 490.648C315.289 492.8 313.444 494.479 311.117 495.281L310.217 493.919C313.159 492.997 315.267 490.582 315.267 487.903V487.398H310.7V485.993H321.503V487.398H317.001V487.903ZM326.092 484.675V495.237H324.379V484.675H326.092ZM315.157 496.203V498.574H324.379V496.203H326.092V503.932H313.444V496.203H315.157ZM315.157 502.527H324.379V499.958H315.157V502.527ZM345.502 484.675V504.239H343.768V484.675H345.502ZM335.116 486.19C338.015 486.212 340.101 488.847 340.101 492.997C340.101 497.147 338.015 499.782 335.116 499.782C332.196 499.782 330.132 497.147 330.132 492.997C330.132 488.847 332.196 486.212 335.116 486.19ZM335.116 487.727C333.162 487.749 331.801 489.813 331.801 492.997C331.801 496.181 333.162 498.245 335.116 498.245C337.071 498.245 338.432 496.181 338.432 492.997C338.432 489.813 337.071 487.749 335.116 487.727ZM351.519 486.805V497.74C353.627 497.718 355.625 497.597 357.974 497.103L358.216 498.596C355.603 499.145 353.429 499.255 351.036 499.255H349.806V486.805H351.519ZM365.55 484.675V504.196H363.903V484.675H365.55ZM361.378 485.158V503.207H359.731V492.69H355.273V491.263H359.731V485.158H361.378ZM371.434 486.52L371.281 497.938H369.436L369.282 486.52H371.434ZM370.358 502.549C369.59 502.549 368.931 501.912 368.953 501.121C368.931 500.353 369.59 499.716 370.358 499.716C371.127 499.716 371.764 500.353 371.764 501.121C371.764 501.912 371.127 502.549 370.358 502.549Z" fill="black"/>
<mask id="path-7-inside-3_14020_1131" fill="white">
<path d="M1368.75 550.87H1551.44V438.447H1368.75V550.87Z"/>
</mask>
<path d="M1368.75 550.87H1551.44V438.447H1368.75V550.87Z" fill="white"/>
<path d="M1368.75 549.465H1551.44V552.275H1368.75V549.465Z" fill="#CFCFCF" mask="url(#path-7-inside-3_14020_1131)"/>
<path d="M1429.57 500.243V501.692H1411.7V500.243H1419.76V495.5H1421.49V500.243H1429.57ZM1421.49 488.386C1421.49 491.504 1425.35 494.183 1428.71 494.732L1428.01 496.093C1425.03 495.511 1421.87 493.612 1420.63 490.889C1419.37 493.623 1416.23 495.566 1413.3 496.181L1412.58 494.798C1415.87 494.227 1419.71 491.504 1419.71 488.386V487.903H1413.17V486.454H1428.03V487.903H1421.49V488.386ZM1437.8 488.364C1437.8 491.087 1439.78 493.656 1442.64 494.688L1441.67 496.027C1439.53 495.171 1437.83 493.469 1436.99 491.35C1436.16 493.711 1434.38 495.588 1432.07 496.51L1431.15 495.105C1434.07 494.029 1436.09 491.306 1436.11 488.298V485.883H1437.8V488.364ZM1447.31 484.697V499.321H1445.58V490.736H1441.23V489.286H1445.58V484.697H1447.31ZM1447.75 502.329V503.778H1434.69V497.652H1436.42V502.329H1447.75ZM1460.57 486.454V487.903H1453.15V491.943H1460.14V493.349H1453.15V498.069C1456.67 498.069 1459.14 497.927 1462.07 497.433L1462.27 498.86C1459.21 499.365 1456.64 499.475 1452.96 499.497H1451.42V486.454H1460.57ZM1465.67 484.675V492.536H1468.94V494.007H1465.67V504.196H1463.96V484.675H1465.67ZM1476.6 490.67C1476.58 493.81 1478.84 497.257 1481.68 498.596L1480.69 499.958C1478.49 498.893 1476.64 496.565 1475.77 493.919C1474.87 496.796 1472.9 499.321 1470.72 500.441L1469.67 499.079C1472.48 497.718 1474.89 494.007 1474.91 490.67V488.123H1470.37V486.695H1481V488.123H1476.6V490.67ZM1485.1 484.675V492.58H1488.37V494.051H1485.1V504.196H1483.39V484.675H1485.1ZM1505.57 484.675V504.196H1503.83V484.675H1505.57ZM1499.79 486.805C1499.77 492.426 1497.16 497.389 1490.61 500.529L1489.67 499.123C1494.95 496.62 1497.64 492.876 1498.03 488.21H1490.57V486.805H1499.79Z" fill="#4E4E4E"/>
<mask id="path-10-inside-4_14020_1131" fill="white">
<path d="M1551.44 550.87H1776.28V438.447H1551.44V550.87Z"/>
</mask>
<path d="M1551.44 550.87H1776.28V438.447H1551.44V550.87Z" fill="white"/>
<path d="M1551.44 549.465H1776.28V552.275H1551.44V549.465Z" fill="#CFCFCF" mask="url(#path-10-inside-4_14020_1131)"/>
<path d="M1603.52 502.417L1603.5 500.968L1608.92 495.259C1610.81 493.261 1611.71 492.185 1611.71 490.714C1611.71 489.089 1610.33 488.013 1608.55 488.013C1606.66 488.013 1605.45 489.22 1605.45 490.999H1603.58C1603.56 488.188 1605.74 486.3 1608.61 486.3C1611.49 486.3 1613.55 488.232 1613.55 490.714C1613.55 492.492 1612.72 493.875 1609.91 496.774L1606.26 500.529V500.66H1613.84V502.417H1603.52ZM1621.92 502.637C1618.38 502.637 1616.36 499.672 1616.36 494.468C1616.36 489.308 1618.43 486.3 1621.92 486.3C1625.41 486.3 1627.47 489.308 1627.47 494.468C1627.47 499.672 1625.43 502.637 1621.92 502.637ZM1621.92 500.88C1624.2 500.88 1625.54 498.574 1625.54 494.468C1625.54 490.362 1624.2 488.013 1621.92 488.013C1619.64 488.013 1618.27 490.362 1618.27 494.468C1618.27 498.574 1619.61 500.88 1621.92 500.88ZM1630.11 502.417L1630.09 500.968L1635.51 495.259C1637.4 493.261 1638.3 492.185 1638.3 490.714C1638.3 489.089 1636.92 488.013 1635.14 488.013C1633.25 488.013 1632.04 489.22 1632.04 490.999H1630.18C1630.15 488.188 1632.33 486.3 1635.2 486.3C1638.08 486.3 1640.14 488.232 1640.14 490.714C1640.14 492.492 1639.31 493.875 1636.5 496.774L1632.85 500.529V500.66H1640.43V502.417H1630.11ZM1648.8 502.637C1645.63 502.637 1643.37 500.946 1643.26 498.421H1645.26C1645.37 499.936 1646.89 500.88 1648.77 500.88C1650.86 500.88 1652.4 499.738 1652.4 498.091C1652.4 496.357 1651.01 495.127 1648.53 495.127H1647.24V493.392H1648.53C1650.46 493.392 1651.8 492.317 1651.8 490.67C1651.8 489.089 1650.64 488.013 1648.84 488.013C1647.15 488.013 1645.59 488.957 1645.5 490.516H1643.59C1643.7 487.991 1646.03 486.3 1648.86 486.3C1651.89 486.3 1653.74 488.276 1653.71 490.56C1653.74 492.36 1652.68 493.7 1651.01 494.161V494.271C1653.08 494.6 1654.35 496.071 1654.33 498.091C1654.35 500.704 1651.96 502.637 1648.8 502.637ZM1664.03 493.612V495.347H1657.07V493.612H1664.03ZM1672.11 502.637C1668.58 502.637 1666.56 499.672 1666.56 494.468C1666.56 489.308 1668.62 486.3 1672.11 486.3C1675.61 486.3 1677.67 489.308 1677.67 494.468C1677.67 499.672 1675.63 502.637 1672.11 502.637ZM1672.11 500.88C1674.4 500.88 1675.74 498.574 1675.74 494.468C1675.74 490.362 1674.4 488.013 1672.11 488.013C1669.83 488.013 1668.47 490.362 1668.47 494.468C1668.47 498.574 1669.81 500.88 1672.11 500.88ZM1685.93 486.52V502.417H1683.93V488.584H1683.84L1679.98 491.153V489.155L1683.93 486.52H1685.93ZM1697.01 493.612V495.347H1690.05V493.612H1697.01ZM1705.09 502.637C1701.56 502.637 1699.54 499.672 1699.54 494.468C1699.54 489.308 1701.6 486.3 1705.09 486.3C1708.59 486.3 1710.65 489.308 1710.65 494.468C1710.65 499.672 1708.61 502.637 1705.09 502.637ZM1705.09 500.88C1707.38 500.88 1708.72 498.574 1708.72 494.468C1708.72 490.362 1707.38 488.013 1705.09 488.013C1702.81 488.013 1701.45 490.362 1701.45 494.468C1701.45 498.574 1702.79 500.88 1705.09 500.88ZM1718.58 486.3C1721.32 486.322 1724.35 487.969 1724.35 493.832C1724.35 499.475 1722.05 502.637 1718.31 502.637C1715.52 502.637 1713.55 500.924 1713.15 498.399H1715.11C1715.46 499.826 1716.53 500.88 1718.31 500.88C1720.9 500.88 1722.49 498.64 1722.51 494.776H1722.29C1721.37 496.093 1719.92 496.884 1718.23 496.884C1715.37 496.884 1713.02 494.71 1713.02 491.636C1713.02 488.672 1715.2 486.278 1718.58 486.3ZM1718.58 488.035C1716.49 488.035 1714.93 489.66 1714.95 491.614C1714.95 493.59 1716.42 495.149 1718.51 495.149C1720.57 495.149 1722.2 493.436 1722.2 491.57C1722.2 489.747 1720.68 488.035 1718.58 488.035Z" fill="#4E4E4E"/>
<mask id="path-13-inside-5_14020_1131" fill="white">
<path d="M1776.28 550.87H1916.81V438.447H1776.28V550.87Z"/>
</mask>
<path d="M1776.28 550.87H1916.81V438.447H1776.28V550.87Z" fill="white"/>
<path d="M1776.28 549.465H1916.81V552.275H1776.28V549.465Z" fill="#CFCFCF" mask="url(#path-13-inside-5_14020_1131)"/>
<path d="M1828.36 486.52V502.417H1826.37V488.584H1826.28L1822.41 491.153V489.155L1826.37 486.52H1828.36ZM1837.89 486.3C1840.64 486.322 1843.67 487.969 1843.67 493.832C1843.67 499.475 1841.36 502.637 1837.63 502.637C1834.84 502.637 1832.87 500.924 1832.47 498.399H1834.42C1834.78 499.826 1835.85 500.88 1837.63 500.88C1840.22 500.88 1841.8 498.64 1841.82 494.776H1841.6C1840.68 496.093 1839.23 496.884 1837.54 496.884C1834.69 496.884 1832.34 494.71 1832.34 491.636C1832.34 488.672 1834.51 486.278 1837.89 486.3ZM1837.89 488.035C1835.81 488.035 1834.25 489.66 1834.27 491.614C1834.27 493.59 1835.74 495.149 1837.83 495.149C1839.89 495.149 1841.52 493.436 1841.52 491.57C1841.52 489.747 1840 488.035 1837.89 488.035ZM1851.6 502.637C1848.06 502.637 1846.04 499.672 1846.04 494.468C1846.04 489.308 1848.1 486.3 1851.6 486.3C1855.09 486.3 1857.15 489.308 1857.15 494.468C1857.15 499.672 1855.11 502.637 1851.6 502.637ZM1851.6 500.88C1853.88 500.88 1855.22 498.574 1855.22 494.468C1855.22 490.362 1853.88 488.013 1851.6 488.013C1849.31 488.013 1847.95 490.362 1847.95 494.468C1847.95 498.574 1849.29 500.88 1851.6 500.88ZM1864.99 502.637C1861.45 502.637 1859.43 499.672 1859.43 494.468C1859.43 489.308 1861.5 486.3 1864.99 486.3C1868.48 486.3 1870.54 489.308 1870.54 494.468C1870.54 499.672 1868.5 502.637 1864.99 502.637ZM1864.99 500.88C1867.27 500.88 1868.61 498.574 1868.61 494.468C1868.61 490.362 1867.27 488.013 1864.99 488.013C1862.71 488.013 1861.34 490.362 1861.34 494.468C1861.34 498.574 1862.68 500.88 1864.99 500.88Z" fill="#4E4E4E"/>
<rect width="1916.81" height="101.181" fill="#F4F4F4"/>
<path d="M67.5633 40.6289V55.077H65.8287V47.5675H61.2176V51.7394H52.3687V41.9244H54.0813V45.3937H59.5268V41.9244H61.2176V46.1183H65.8287V40.6289H67.5633ZM68.0025 58.2608V59.71H54.9377V53.6497H56.6723V58.2608H68.0025ZM54.0813 50.3122H59.5268V46.755H54.0813V50.3122ZM87.6765 43.5053V44.9325H71.6913V43.5053H78.8495V40.9363H80.5402V43.5053H87.6765ZM88.6865 56.4164V57.8436H70.813V56.4164H78.8495V53.6717C75.3802 53.485 73.2723 52.1346 73.2942 49.9389C73.2723 47.6114 75.7315 46.25 79.7058 46.272C83.6363 46.25 86.1175 47.6114 86.1175 49.9389C86.1175 52.1346 83.9876 53.485 80.5402 53.6717V56.4164H88.6865ZM79.7058 47.6333C76.7855 47.6333 75.0069 48.4897 75.0289 49.9389C75.0069 51.432 76.7855 52.2664 79.7058 52.2883C82.5823 52.2664 84.3609 51.432 84.3609 49.9389C84.3609 48.4897 82.5823 47.6333 79.7058 47.6333Z" fill="black"/>
<path d="M752.443 40.6069V60.1272H750.796V40.6069H752.443ZM748.49 41.09V59.1171H746.865V49.0606H743.572V47.6553H746.865V41.09H748.49ZM741.486 46.1841C741.486 49.5656 743.001 52.9251 745.702 54.4841L744.648 55.7576C742.726 54.6049 741.365 52.4969 740.695 50.0047C739.982 52.6946 738.565 54.9891 736.611 56.2187L735.513 54.9232C738.236 53.2984 739.817 49.7413 739.817 46.1841V44.3397H736.062V42.9124H745.065V44.3397H741.486V46.1841ZM770.711 41.4413V48.0286H764.936V50.5317H772.973V51.937H755.187V50.5317H763.224V48.0286H757.493V41.4413H770.711ZM759.184 42.8246V46.6452H768.999V42.8246H759.184ZM770.777 53.9791V60.1272H769.043V55.3624H757.163V53.9791H770.777Z" fill="black"/>
<path d="M1437.98 44.2299C1437.98 46.8209 1439.89 49.1923 1442.79 50.2024L1441.91 51.5418C1439.68 50.7513 1437.98 49.1484 1437.15 47.1283C1436.31 49.346 1434.52 51.0697 1432.23 51.9151L1431.31 50.5756C1434.23 49.5436 1436.27 47.0185 1436.29 44.2299V43.3955H1431.83V41.9902H1442.37V43.3955H1437.98V44.2299ZM1446.63 40.6069V45.7669H1449.57V47.2381H1446.63V52.3762H1444.92V40.6069H1446.63ZM1446.63 53.4082V60.1272H1444.92V54.8135H1433.85V53.4082H1446.63ZM1457.52 43.681C1457.5 46.4696 1459.48 48.9288 1462.35 49.895L1461.39 51.2344C1459.24 50.4219 1457.54 48.841 1456.71 46.777C1455.87 49.1155 1454.08 50.9379 1451.73 51.8272L1450.78 50.4219C1453.79 49.368 1455.79 46.777 1455.81 43.7468V41.7267H1457.52V43.681ZM1466.99 40.6069V52.1786H1465.25V46.228H1460.9V44.8008H1465.25V40.6069H1466.99ZM1460.51 52.7494C1464.57 52.7494 1467.05 54.0889 1467.05 56.4383C1467.05 58.7658 1464.57 60.0833 1460.51 60.0833C1456.45 60.0833 1453.97 58.7658 1453.97 56.4383C1453.97 54.0889 1456.45 52.7494 1460.51 52.7494ZM1460.51 54.1108C1457.52 54.1108 1455.66 54.9891 1455.68 56.4383C1455.66 57.8436 1457.52 58.7 1460.51 58.7C1463.5 58.7 1465.34 57.8436 1465.34 56.4383C1465.34 54.9891 1463.5 54.1108 1460.51 54.1108ZM1476.85 46.6013C1476.82 49.7413 1479.09 53.1886 1481.92 54.528L1480.93 55.8894C1478.73 54.8244 1476.88 52.4969 1476.01 49.851C1475.11 52.7275 1473.15 55.2526 1470.96 56.3724L1469.91 55.0111C1472.72 53.6497 1475.13 49.9389 1475.15 46.6013V44.0542H1470.61V42.627H1481.24V44.0542H1476.85V46.6013ZM1485.34 40.6069V48.5116H1488.61V49.9828H1485.34V60.1272H1483.63V40.6069H1485.34Z" fill="black"/>
<path d="M1641.75 44.2299C1641.75 46.8209 1643.66 49.1923 1646.56 50.2024L1645.68 51.5418C1643.45 50.7513 1641.75 49.1484 1640.91 47.1283C1640.08 49.346 1638.29 51.0697 1635.99 51.9151L1635.07 50.5756C1637.99 49.5436 1640.03 47.0185 1640.06 44.2299V43.3955H1635.6V41.9902H1646.14V43.3955H1641.75V44.2299ZM1650.4 40.6069V45.7669H1653.34V47.2381H1650.4V52.3762H1648.68V40.6069H1650.4ZM1650.4 53.4082V60.1272H1648.68V54.8135H1637.62V53.4082H1650.4ZM1661.29 43.681C1661.27 46.4696 1663.24 48.9288 1666.12 49.895L1665.15 51.2344C1663 50.4219 1661.31 48.841 1660.48 46.777C1659.63 49.1155 1657.84 50.9379 1655.49 51.8272L1654.55 50.4219C1657.56 49.368 1659.55 46.777 1659.58 43.7468V41.7267H1661.29V43.681ZM1670.75 40.6069V52.1786H1669.02V46.228H1664.67V44.8008H1669.02V40.6069H1670.75ZM1664.27 52.7494C1668.34 52.7494 1670.82 54.0889 1670.82 56.4383C1670.82 58.7658 1668.34 60.0833 1664.27 60.0833C1660.21 60.0833 1657.73 58.7658 1657.73 56.4383C1657.73 54.0889 1660.21 52.7494 1664.27 52.7494ZM1664.27 54.1108C1661.29 54.1108 1659.42 54.9891 1659.44 56.4383C1659.42 57.8436 1661.29 58.7 1664.27 58.7C1667.26 58.7 1669.11 57.8436 1669.11 56.4383C1669.11 54.9891 1667.26 54.1108 1664.27 54.1108ZM1679.54 41.3315C1682.46 41.3535 1684.59 43.1101 1684.59 45.6571C1684.59 48.2042 1682.46 49.9608 1679.54 49.9608C1676.57 49.9608 1674.46 48.2042 1674.46 45.6571C1674.46 43.1101 1676.57 41.3535 1679.54 41.3315ZM1679.54 42.7807C1677.58 42.7807 1676.13 43.9664 1676.15 45.6571C1676.13 47.3698 1677.58 48.5555 1679.54 48.5555C1681.47 48.5555 1682.92 47.3698 1682.92 45.6571C1682.92 43.9664 1681.47 42.7807 1679.54 42.7807ZM1690.12 40.6069V50.6415H1688.41V40.6069H1690.12ZM1690.12 51.5857V56.2846H1679.16V58.4804H1690.82V59.8637H1677.47V54.9891H1688.41V52.969H1677.43V51.5857H1690.12Z" fill="black"/>
<path d="M1835.7 56.1748V57.624H1817.82V56.1748H1825.88V51.432H1827.62V56.1748H1835.7ZM1827.62 44.3177C1827.62 47.4357 1831.48 50.1145 1834.84 50.6635L1834.14 52.0248C1831.15 51.443 1828 49.5436 1826.76 46.8209C1825.5 49.5546 1822.36 51.4979 1819.43 52.1127L1818.7 50.7293C1822 50.1585 1825.84 47.4357 1825.84 44.3177V43.8347H1819.3V42.3855H1834.16V43.8347H1827.62V44.3177ZM1853.26 40.6069V60.1272H1851.55V40.6069H1853.26ZM1837.37 54.9232C1839.04 54.9123 1840.95 54.9013 1842.92 54.8354V52.7055C1840.58 52.453 1839.06 51.1246 1839.08 49.1704C1839.06 46.9746 1840.95 45.5474 1843.76 45.5474C1846.57 45.5474 1848.48 46.9746 1848.48 49.1704C1848.48 51.1026 1846.96 52.4311 1844.66 52.6836V54.7695C1846.55 54.6927 1848.46 54.55 1850.26 54.3084L1850.39 55.6259C1846.04 56.3285 1841.25 56.3944 1837.63 56.3944L1837.37 54.9232ZM1849.75 43.0222V44.4275H1837.78V43.0222H1842.92V40.6289H1844.66V43.0222H1849.75ZM1843.76 46.8868C1841.96 46.8868 1840.68 47.809 1840.68 49.1704C1840.68 50.5317 1841.96 51.41 1843.76 51.3881C1845.58 51.41 1846.83 50.5317 1846.83 49.1704C1846.83 47.809 1845.58 46.8868 1843.76 46.8868ZM1866.48 42.4294C1866.48 45.1741 1870.08 47.5675 1873.6 48.0505L1872.89 49.4558C1869.86 48.9508 1866.87 47.271 1865.6 44.8667C1864.35 47.282 1861.34 48.9508 1858.31 49.4558L1857.61 48.0505C1861.13 47.5675 1864.7 45.218 1864.7 42.4294V41.3095H1866.48V42.4294ZM1874.48 51.6077V53.0569H1866.39V60.1272H1864.7V53.0569H1856.69V51.6077H1874.48Z" fill="black"/>
<mask id="path-22-inside-6_14020_1131" fill="white">
<path d="M0 213.6H140.529V101.177H0V213.6Z"/>
</mask>
<path d="M0 213.6H140.529V101.177H0V213.6Z" fill="white"/>
<path d="M0 212.194H140.529V215.005H0V212.194Z" fill="#CFCFCF" mask="url(#path-22-inside-6_14020_1131)"/>
<path d="M64.3357 161.897V160.272L71.4938 149.249H73.9311V160.162H76.1489V161.897H73.9311V165.146H72.0428V161.897H64.3357ZM66.4656 160.162H72.0428V151.752H71.8452L66.4656 160.03V160.162Z" fill="black"/>
<mask id="path-25-inside-7_14020_1131" fill="white">
<path d="M140.529 213.6H1368.75V101.177H140.529V213.6Z"/>
</mask>
<path d="M140.529 213.6H1368.75V101.177H140.529V213.6Z" fill="white"/>
<path d="M140.529 212.194H1368.75V215.005H140.529V212.194Z" fill="#CFCFCF" mask="url(#path-25-inside-7_14020_1131)"/>
<path d="M192.546 147.405V166.969H190.811V147.405H192.546ZM182.16 148.92C185.058 148.942 187.144 151.577 187.144 155.727C187.144 159.877 185.058 162.512 182.16 162.512C179.24 162.512 177.176 159.877 177.176 155.727C177.176 151.577 179.24 148.942 182.16 148.92ZM182.16 150.457C180.206 150.479 178.844 152.543 178.844 155.727C178.844 158.911 180.206 160.975 182.16 160.975C184.114 160.975 185.476 158.911 185.476 155.727C185.476 152.543 184.114 150.479 182.16 150.457ZM208.553 150.633C208.553 153.18 210.683 155.441 213.581 156.32L212.703 157.681C210.42 156.956 208.586 155.386 207.697 153.377C206.84 155.529 204.996 157.209 202.668 158.01L201.768 156.649C204.711 155.727 206.818 153.311 206.818 150.633V150.127H202.251V148.722H213.054V150.127H208.553V150.633ZM217.644 147.405V157.966H215.931V147.405H217.644ZM206.709 158.932V161.304H215.931V158.932H217.644V166.662H204.996V158.932H206.709ZM206.709 165.256H215.931V162.687H206.709V165.256ZM237.076 149.447C237.054 155.09 235.012 160.294 227.964 163.741L226.997 162.358C230.653 160.601 232.915 158.351 234.156 155.705L227.371 156.363L227.085 154.826L234.705 154.321C235.056 153.234 235.265 152.082 235.341 150.874H228.073V149.447H237.076ZM242.741 147.405V166.925H241.006V147.405H242.741ZM263.908 162.995V164.422H246.035V162.995H254.071V158.779H248.143V148.788H249.877V152.323H260.022V148.788H261.712V158.779H255.762V162.995H263.908ZM249.877 157.373H260.022V153.729H249.877V157.373ZM281.233 156.803V158.23H267.751V149.227H281.035V150.654H269.463V156.803H281.233ZM283.341 162.819V164.268H265.467V162.819H283.341ZM300.204 148.898V157.571H291.377V148.898H300.204ZM293.068 150.325V156.166H298.491V150.325H293.068ZM305.803 147.405V152.762H308.746V154.212H305.803V160.404H304.091V147.405H305.803ZM300.731 160.03C300.709 162.841 303.893 164.905 307.34 165.476L306.638 166.837C303.75 166.31 301.06 164.817 299.897 162.577C298.711 164.817 296.01 166.31 293.112 166.837L292.431 165.476C295.878 164.905 299.018 162.841 299.018 160.03V159.438H300.731V160.03ZM317.002 150.633C317.002 153.18 319.132 155.441 322.03 156.32L321.152 157.681C318.868 156.956 317.035 155.386 316.145 153.377C315.289 155.529 313.445 157.209 311.117 158.01L310.217 156.649C313.159 155.727 315.267 153.311 315.267 150.633V150.127H310.7V148.722H321.503V150.127H317.002V150.633ZM326.092 147.405V157.966H324.379V147.405H326.092ZM315.157 158.932V161.304H324.379V158.932H326.092V166.662H313.445V158.932H315.157ZM315.157 165.256H324.379V162.687H315.157V165.256ZM345.503 147.405V166.969H343.768V147.405H345.503ZM335.117 148.92C338.015 148.942 340.101 151.577 340.101 155.727C340.101 159.877 338.015 162.512 335.117 162.512C332.196 162.512 330.132 159.877 330.132 155.727C330.132 151.577 332.196 148.942 335.117 148.92ZM335.117 150.457C333.162 150.479 331.801 152.543 331.801 155.727C331.801 158.911 333.162 160.975 335.117 160.975C337.071 160.975 338.432 158.911 338.432 155.727C338.432 152.543 337.071 150.479 335.117 150.457ZM351.519 149.535V160.47C353.627 160.448 355.625 160.327 357.974 159.833L358.216 161.326C355.603 161.875 353.429 161.985 351.036 161.985H349.806V149.535H351.519ZM365.55 147.405V166.925H363.903V147.405H365.55ZM361.378 147.888V165.937H359.731V155.419H355.274V153.992H359.731V147.888H361.378ZM371.434 149.249L371.281 160.667H369.436L369.283 149.249H371.434ZM370.359 165.278C369.59 165.278 368.931 164.641 368.953 163.851C368.931 163.082 369.59 162.446 370.359 162.446C371.127 162.446 371.764 163.082 371.764 163.851C371.764 164.641 371.127 165.278 370.359 165.278Z" fill="black"/>
<mask id="path-28-inside-8_14020_1131" fill="white">
<path d="M1368.75 213.6H1551.44V101.177H1368.75V213.6Z"/>
</mask>
<path d="M1368.75 213.6H1551.44V101.177H1368.75V213.6Z" fill="white"/>
<path d="M1368.75 212.194H1551.44V215.005H1368.75V212.194Z" fill="#CFCFCF" mask="url(#path-28-inside-8_14020_1131)"/>
<path d="M1429.57 162.973V164.422H1411.7V162.973H1419.76V158.23H1421.49V162.973H1429.57ZM1421.49 151.116C1421.49 154.234 1425.36 156.912 1428.71 157.461L1428.01 158.823C1425.03 158.241 1421.88 156.341 1420.63 153.619C1419.37 156.352 1416.23 158.296 1413.3 158.911L1412.58 157.527C1415.87 156.956 1419.71 154.234 1419.71 151.116V150.633H1413.17V149.183H1428.03V150.633H1421.49V151.116ZM1437.81 151.094C1437.81 153.816 1439.78 156.385 1442.64 157.417L1441.67 158.757C1439.53 157.9 1437.83 156.199 1436.99 154.08C1436.16 156.44 1434.38 158.318 1432.07 159.24L1431.15 157.835C1434.07 156.759 1436.09 154.036 1436.11 151.028V148.612H1437.81V151.094ZM1447.31 147.427V162.05H1445.58V153.465H1441.23V152.016H1445.58V147.427H1447.31ZM1447.75 165.059V166.508H1434.69V160.382H1436.42V165.059H1447.75ZM1460.58 149.183V150.633H1453.15V154.673H1460.14V156.078H1453.15V160.799C1456.67 160.799 1459.14 160.656 1462.07 160.162L1462.27 161.589C1459.21 162.094 1456.64 162.204 1452.96 162.226H1451.42V149.183H1460.58ZM1465.67 147.405V155.266H1468.94V156.737H1465.67V166.925H1463.96V147.405H1465.67ZM1476.6 153.399C1476.58 156.539 1478.84 159.986 1481.68 161.326L1480.69 162.687C1478.49 161.622 1476.64 159.295 1475.77 156.649C1474.87 159.525 1472.9 162.05 1470.72 163.17L1469.67 161.809C1472.48 160.448 1474.89 156.737 1474.91 153.399V150.852H1470.37V149.425H1481V150.852H1476.6V153.399ZM1485.1 147.405V155.309H1488.37V156.781H1485.1V166.925H1483.39V147.405H1485.1ZM1505.57 147.405V166.925H1503.83V147.405H1505.57ZM1499.79 149.535C1499.77 155.156 1497.16 160.118 1490.61 163.258L1489.67 161.853C1494.95 159.35 1497.64 155.606 1498.03 150.94H1490.57V149.535H1499.79Z" fill="#4E4E4E"/>
<mask id="path-31-inside-9_14020_1131" fill="white">
<path d="M1551.44 213.6H1776.28V101.177H1551.44V213.6Z"/>
</mask>
<path d="M1551.44 213.6H1776.28V101.177H1551.44V213.6Z" fill="white"/>
<path d="M1551.44 212.194H1776.28V215.005H1551.44V212.194Z" fill="#CFCFCF" mask="url(#path-31-inside-9_14020_1131)"/>
<path d="M1603.52 165.146L1603.5 163.697L1608.92 157.988C1610.81 155.99 1611.71 154.914 1611.71 153.443C1611.71 151.818 1610.33 150.742 1608.55 150.742C1606.66 150.742 1605.45 151.95 1605.45 153.729H1603.58C1603.56 150.918 1605.74 149.03 1608.61 149.03C1611.49 149.03 1613.55 150.962 1613.55 153.443C1613.55 155.222 1612.72 156.605 1609.91 159.503L1606.26 163.258V163.39H1613.84V165.146H1603.52ZM1621.92 165.366C1618.38 165.366 1616.36 162.402 1616.36 157.198C1616.36 152.038 1618.43 149.03 1621.92 149.03C1625.41 149.03 1627.47 152.038 1627.47 157.198C1627.47 162.402 1625.43 165.366 1621.92 165.366ZM1621.92 163.609C1624.2 163.609 1625.54 161.304 1625.54 157.198C1625.54 153.092 1624.2 150.742 1621.92 150.742C1619.64 150.742 1618.27 153.092 1618.27 157.198C1618.27 161.304 1619.61 163.609 1621.92 163.609ZM1630.11 165.146L1630.09 163.697L1635.51 157.988C1637.4 155.99 1638.3 154.914 1638.3 153.443C1638.3 151.818 1636.92 150.742 1635.14 150.742C1633.25 150.742 1632.04 151.95 1632.04 153.729H1630.18C1630.15 150.918 1632.33 149.03 1635.2 149.03C1638.08 149.03 1640.14 150.962 1640.14 153.443C1640.14 155.222 1639.31 156.605 1636.5 159.503L1632.85 163.258V163.39H1640.43V165.146H1630.11ZM1648.8 165.366C1645.63 165.366 1643.37 163.675 1643.26 161.15H1645.26C1645.37 162.665 1646.88 163.609 1648.77 163.609C1650.86 163.609 1652.4 162.468 1652.4 160.821C1652.4 159.086 1651.01 157.857 1648.53 157.857H1647.24V156.122H1648.53C1650.46 156.122 1651.8 155.046 1651.8 153.399C1651.8 151.818 1650.64 150.742 1648.84 150.742C1647.15 150.742 1645.59 151.686 1645.5 153.245H1643.59C1643.7 150.72 1646.03 149.03 1648.86 149.03C1651.89 149.03 1653.74 151.006 1653.71 153.289C1653.74 155.09 1652.68 156.429 1651.01 156.89V157C1653.08 157.33 1654.35 158.801 1654.33 160.821C1654.35 163.434 1651.96 165.366 1648.8 165.366ZM1664.03 156.341V158.076H1657.07V156.341H1664.03ZM1672.11 165.366C1668.58 165.366 1666.56 162.402 1666.56 157.198C1666.56 152.038 1668.62 149.03 1672.11 149.03C1675.61 149.03 1677.67 152.038 1677.67 157.198C1677.67 162.402 1675.63 165.366 1672.11 165.366ZM1672.11 163.609C1674.4 163.609 1675.74 161.304 1675.74 157.198C1675.74 153.092 1674.4 150.742 1672.11 150.742C1669.83 150.742 1668.47 153.092 1668.47 157.198C1668.47 161.304 1669.81 163.609 1672.11 163.609ZM1685.93 149.249V165.146H1683.93V151.313H1683.84L1679.97 153.882V151.884L1683.93 149.249H1685.93ZM1697.01 156.341V158.076H1690.05V156.341H1697.01ZM1705.09 165.366C1701.56 165.366 1699.54 162.402 1699.54 157.198C1699.54 152.038 1701.6 149.03 1705.09 149.03C1708.59 149.03 1710.65 152.038 1710.65 157.198C1710.65 162.402 1708.61 165.366 1705.09 165.366ZM1705.09 163.609C1707.38 163.609 1708.72 161.304 1708.72 157.198C1708.72 153.092 1707.38 150.742 1705.09 150.742C1702.81 150.742 1701.45 153.092 1701.45 157.198C1701.45 161.304 1702.79 163.609 1705.09 163.609ZM1718.58 149.03C1721.32 149.052 1724.35 150.698 1724.35 156.561C1724.35 162.204 1722.05 165.366 1718.31 165.366C1715.52 165.366 1713.55 163.653 1713.15 161.128H1715.11C1715.46 162.555 1716.53 163.609 1718.31 163.609C1720.9 163.609 1722.48 161.37 1722.51 157.505H1722.29C1721.36 158.823 1719.92 159.613 1718.22 159.613C1715.37 159.613 1713.02 157.439 1713.02 154.365C1713.02 151.401 1715.19 149.008 1718.58 149.03ZM1718.58 150.764C1716.49 150.764 1714.93 152.389 1714.95 154.343C1714.95 156.32 1716.42 157.879 1718.51 157.879C1720.57 157.879 1722.2 156.166 1722.2 154.299C1722.2 152.477 1720.68 150.764 1718.58 150.764Z" fill="#4E4E4E"/>
<mask id="path-34-inside-10_14020_1131" fill="white">
<path d="M1776.28 213.6H1916.81V101.177H1776.28V213.6Z"/>
</mask>
<path d="M1776.28 213.6H1916.81V101.177H1776.28V213.6Z" fill="white"/>
<path d="M1776.28 212.194H1916.81V215.005H1776.28V212.194Z" fill="#CFCFCF" mask="url(#path-34-inside-10_14020_1131)"/>
<path d="M1828.36 149.249V165.146H1826.37V151.313H1826.28L1822.41 153.882V151.884L1826.37 149.249H1828.36ZM1837.89 149.03C1840.64 149.052 1843.67 150.698 1843.67 156.561C1843.67 162.204 1841.36 165.366 1837.63 165.366C1834.84 165.366 1832.87 163.653 1832.47 161.128H1834.43C1834.78 162.555 1835.85 163.609 1837.63 163.609C1840.22 163.609 1841.8 161.37 1841.82 157.505H1841.61C1840.68 158.823 1839.23 159.613 1837.54 159.613C1834.69 159.613 1832.34 157.439 1832.34 154.365C1832.34 151.401 1834.51 149.008 1837.89 149.03ZM1837.89 150.764C1835.81 150.764 1834.25 152.389 1834.27 154.343C1834.27 156.32 1835.74 157.879 1837.83 157.879C1839.89 157.879 1841.52 156.166 1841.52 154.299C1841.52 152.477 1840 150.764 1837.89 150.764ZM1851.6 165.366C1848.06 165.366 1846.04 162.402 1846.04 157.198C1846.04 152.038 1848.1 149.03 1851.6 149.03C1855.09 149.03 1857.15 152.038 1857.15 157.198C1857.15 162.402 1855.11 165.366 1851.6 165.366ZM1851.6 163.609C1853.88 163.609 1855.22 161.304 1855.22 157.198C1855.22 153.092 1853.88 150.742 1851.6 150.742C1849.31 150.742 1847.95 153.092 1847.95 157.198C1847.95 161.304 1849.29 163.609 1851.6 163.609ZM1864.99 165.366C1861.45 165.366 1859.43 162.402 1859.43 157.198C1859.43 152.038 1861.5 149.03 1864.99 149.03C1868.48 149.03 1870.55 152.038 1870.55 157.198C1870.55 162.402 1868.5 165.366 1864.99 165.366ZM1864.99 163.609C1867.27 163.609 1868.61 161.304 1868.61 157.198C1868.61 153.092 1867.27 150.742 1864.99 150.742C1862.71 150.742 1861.35 153.092 1861.35 157.198C1861.35 161.304 1862.68 163.609 1864.99 163.609Z" fill="#4E4E4E"/>
<mask id="path-37-inside-11_14020_1131" fill="white">
<path d="M0 326.027H140.529V213.604H0V326.027Z"/>
</mask>
<path d="M0 326.027H140.529V213.604H0V326.027Z" fill="white"/>
<path d="M0 324.622H140.529V327.433H0V324.622Z" fill="#CFCFCF" mask="url(#path-37-inside-11_14020_1131)"/>
<path d="M70.2203 277.795C67.0584 277.795 64.7968 276.104 64.687 273.579H66.6851C66.7949 275.094 68.31 276.038 70.1983 276.038C72.2843 276.038 73.8214 274.896 73.8214 273.25C73.8214 271.515 72.438 270.285 69.9568 270.285H68.6613V268.551H69.9568C71.8891 268.551 73.2285 267.475 73.2285 265.828C73.2285 264.247 72.0647 263.171 70.2642 263.171C68.5735 263.171 67.0145 264.115 66.9267 265.674H65.0164C65.1261 263.149 67.4536 261.458 70.2862 261.458C73.3163 261.458 75.1608 263.435 75.1388 265.718C75.1608 267.519 74.1068 268.858 72.438 269.319V269.429C74.502 269.758 75.7756 271.229 75.7536 273.25C75.7756 275.863 73.3822 277.795 70.2203 277.795Z" fill="black"/>
<mask id="path-40-inside-12_14020_1131" fill="white">
<path d="M140.529 326.027H1368.75V213.604H140.529V326.027Z"/>
</mask>
<path d="M140.529 326.027H1368.75V213.604H140.529V326.027Z" fill="white"/>
<path d="M140.529 324.622H1368.75V327.433H140.529V324.622Z" fill="#CFCFCF" mask="url(#path-40-inside-12_14020_1131)"/>
<path d="M192.546 259.833V279.398H190.812V259.833H192.546ZM182.16 261.349C185.059 261.37 187.145 264.005 187.145 268.155C187.145 272.305 185.059 274.94 182.16 274.94C179.24 274.94 177.176 272.305 177.176 268.155C177.176 264.005 179.24 261.37 182.16 261.349ZM182.16 262.886C180.206 262.908 178.845 264.972 178.845 268.155C178.845 271.339 180.206 273.403 182.16 273.403C184.115 273.403 185.476 271.339 185.476 268.155C185.476 264.972 184.115 262.908 182.16 262.886ZM208.553 263.061C208.553 265.608 210.683 267.87 213.582 268.748L212.703 270.11C210.42 269.385 208.586 267.815 207.697 265.806C206.841 267.958 204.996 269.638 202.669 270.439L201.768 269.078C204.711 268.155 206.819 265.74 206.819 263.061V262.556H202.252V261.151H213.055V262.556H208.553V263.061ZM217.644 259.833V270.395H215.931V259.833H217.644ZM206.709 271.361V273.733H215.931V271.361H217.644V279.09H204.996V271.361H206.709ZM206.709 277.685H215.931V275.116H206.709V277.685ZM237.076 261.876C237.054 267.519 235.012 272.723 227.964 276.17L226.998 274.787C230.654 273.03 232.915 270.779 234.156 268.133L227.371 268.792L227.086 267.255L234.705 266.75C235.056 265.663 235.265 264.51 235.342 263.303H228.074V261.876H237.076ZM242.741 259.833V279.354H241.007V259.833H242.741ZM263.908 275.423V276.851H246.035V275.423H254.071V271.207H248.143V261.217H249.878V264.752H260.022V261.217H261.713V271.207H255.762V275.423H263.908ZM249.878 269.802H260.022V266.157H249.878V269.802ZM281.233 269.231V270.659H267.751V261.656H281.035V263.083H269.464V269.231H281.233ZM283.341 275.248V276.697H265.467V275.248H283.341ZM300.204 261.327V270H291.377V261.327H300.204ZM293.068 262.754V268.595H298.492V262.754H293.068ZM305.804 259.833V265.191H308.746V266.64H305.804V272.832H304.091V259.833H305.804ZM300.731 272.459C300.709 275.27 303.893 277.334 307.341 277.905L306.638 279.266C303.75 278.739 301.061 277.246 299.897 275.006C298.711 277.246 296.01 278.739 293.112 279.266L292.431 277.905C295.879 277.334 299.019 275.27 299.019 272.459V271.866H300.731V272.459ZM317.002 263.061C317.002 265.608 319.132 267.87 322.03 268.748L321.152 270.11C318.868 269.385 317.035 267.815 316.146 265.806C315.289 267.958 313.445 269.638 311.117 270.439L310.217 269.078C313.159 268.155 315.267 265.74 315.267 263.061V262.556H310.7V261.151H321.503V262.556H317.002V263.061ZM326.092 259.833V270.395H324.38V259.833H326.092ZM315.157 271.361V273.733H324.38V271.361H326.092V279.09H313.445V271.361H315.157ZM315.157 277.685H324.38V275.116H315.157V277.685ZM345.503 259.833V279.398H343.768V259.833H345.503ZM335.117 261.349C338.015 261.37 340.101 264.005 340.101 268.155C340.101 272.305 338.015 274.94 335.117 274.94C332.197 274.94 330.133 272.305 330.133 268.155C330.133 264.005 332.197 261.37 335.117 261.349ZM335.117 262.886C333.163 262.908 331.801 264.972 331.801 268.155C331.801 271.339 333.163 273.403 335.117 273.403C337.071 273.403 338.432 271.339 338.432 268.155C338.432 264.972 337.071 262.908 335.117 262.886ZM351.519 261.963V272.898C353.627 272.876 355.625 272.756 357.975 272.261L358.216 273.755C355.603 274.304 353.43 274.413 351.036 274.413H349.807V261.963H351.519ZM365.55 259.833V279.354H363.903V259.833H365.55ZM361.378 260.317V278.366H359.731V267.848H355.274V266.421H359.731V260.317H361.378ZM371.435 261.678L371.281 273.096H369.437L369.283 261.678H371.435ZM370.359 277.707C369.59 277.707 368.932 277.07 368.954 276.28C368.932 275.511 369.59 274.874 370.359 274.874C371.127 274.874 371.764 275.511 371.764 276.28C371.764 277.07 371.127 277.707 370.359 277.707Z" fill="black"/>
<mask id="path-43-inside-13_14020_1131" fill="white">
<path d="M1368.75 326.027H1551.44V213.604H1368.75V326.027Z"/>
</mask>
<path d="M1368.75 326.027H1551.44V213.604H1368.75V326.027Z" fill="white"/>
<path d="M1368.75 324.622H1551.44V327.433H1368.75V324.622Z" fill="#CFCFCF" mask="url(#path-43-inside-13_14020_1131)"/>
<path d="M1429.57 275.401V276.851H1411.7V275.401H1419.76V270.659H1421.49V275.401H1429.57ZM1421.49 263.544C1421.49 266.662 1425.35 269.341 1428.71 269.89L1428.01 271.251C1425.02 270.67 1421.87 268.77 1420.63 266.047C1419.37 268.781 1416.23 270.724 1413.3 271.339L1412.58 269.956C1415.87 269.385 1419.71 266.662 1419.71 263.544V263.061H1413.17V261.612H1428.03V263.061H1421.49V263.544ZM1437.8 263.522C1437.8 266.245 1439.78 268.814 1442.63 269.846L1441.67 271.186C1439.53 270.329 1437.83 268.627 1436.99 266.509C1436.16 268.869 1434.38 270.746 1432.07 271.669L1431.15 270.263C1434.07 269.187 1436.09 266.465 1436.11 263.456V261.041H1437.8V263.522ZM1447.31 259.855V274.479H1445.58V265.894H1441.23V264.445H1445.58V259.855H1447.31ZM1447.75 277.487V278.937H1434.69V272.81H1436.42V277.487H1447.75ZM1460.57 261.612V263.061H1453.15V267.101H1460.14V268.507H1453.15V273.228C1456.67 273.228 1459.14 273.085 1462.07 272.591L1462.27 274.018C1459.21 274.523 1456.64 274.633 1452.96 274.655H1451.42V261.612H1460.57ZM1465.67 259.833V267.694H1468.94V269.165H1465.67V279.354H1463.96V259.833H1465.67ZM1476.6 265.828C1476.58 268.968 1478.84 272.415 1481.68 273.755L1480.69 275.116C1478.49 274.051 1476.64 271.723 1475.77 269.078C1474.87 271.954 1472.9 274.479 1470.72 275.599L1469.66 274.238C1472.48 272.876 1474.89 269.165 1474.91 265.828V263.281H1470.37V261.854H1480.99V263.281H1476.6V265.828ZM1485.1 259.833V267.738H1488.37V269.209H1485.1V279.354H1483.39V259.833H1485.1ZM1505.57 259.833V279.354H1503.83V259.833H1505.57ZM1499.79 261.963C1499.77 267.584 1497.16 272.547 1490.61 275.687L1489.67 274.282C1494.95 271.778 1497.64 268.035 1498.03 263.369H1490.57V261.963H1499.79Z" fill="#4E4E4E"/>
<mask id="path-46-inside-14_14020_1131" fill="white">
<path d="M1551.44 326.027H1776.28V213.604H1551.44V326.027Z"/>
</mask>
<path d="M1551.44 326.027H1776.28V213.604H1551.44V326.027Z" fill="white"/>
<path d="M1551.44 324.622H1776.28V327.433H1551.44V324.622Z" fill="#CFCFCF" mask="url(#path-46-inside-14_14020_1131)"/>
<path d="M1603.52 277.575L1603.5 276.126L1608.92 270.417C1610.81 268.419 1611.71 267.343 1611.71 265.872C1611.71 264.247 1610.33 263.171 1608.55 263.171C1606.66 263.171 1605.45 264.379 1605.45 266.157H1603.58C1603.56 263.347 1605.74 261.458 1608.61 261.458C1611.49 261.458 1613.55 263.391 1613.55 265.872C1613.55 267.65 1612.72 269.034 1609.91 271.932L1606.26 275.687V275.819H1613.84V277.575H1603.52ZM1621.92 277.795C1618.38 277.795 1616.36 274.83 1616.36 269.627C1616.36 264.467 1618.43 261.458 1621.92 261.458C1625.41 261.458 1627.47 264.467 1627.47 269.627C1627.47 274.83 1625.43 277.795 1621.92 277.795ZM1621.92 276.038C1624.2 276.038 1625.54 273.733 1625.54 269.627C1625.54 265.52 1624.2 263.171 1621.92 263.171C1619.64 263.171 1618.27 265.52 1618.27 269.627C1618.27 273.733 1619.61 276.038 1621.92 276.038ZM1630.11 277.575L1630.09 276.126L1635.51 270.417C1637.4 268.419 1638.3 267.343 1638.3 265.872C1638.3 264.247 1636.92 263.171 1635.14 263.171C1633.25 263.171 1632.04 264.379 1632.04 266.157H1630.18C1630.15 263.347 1632.33 261.458 1635.2 261.458C1638.08 261.458 1640.14 263.391 1640.14 265.872C1640.14 267.65 1639.31 269.034 1636.5 271.932L1632.85 275.687V275.819H1640.43V277.575H1630.11ZM1648.8 277.795C1645.63 277.795 1643.37 276.104 1643.26 273.579H1645.26C1645.37 275.094 1646.88 276.038 1648.77 276.038C1650.86 276.038 1652.4 274.896 1652.4 273.25C1652.4 271.515 1651.01 270.285 1648.53 270.285H1647.24V268.551H1648.53C1650.46 268.551 1651.8 267.475 1651.8 265.828C1651.8 264.247 1650.64 263.171 1648.84 263.171C1647.15 263.171 1645.59 264.115 1645.5 265.674H1643.59C1643.7 263.149 1646.03 261.458 1648.86 261.458C1651.89 261.458 1653.74 263.435 1653.71 265.718C1653.74 267.519 1652.68 268.858 1651.01 269.319V269.429C1653.08 269.758 1654.35 271.229 1654.33 273.25C1654.35 275.863 1651.96 277.795 1648.8 277.795ZM1664.03 268.77V270.505H1657.07V268.77H1664.03ZM1672.11 277.795C1668.58 277.795 1666.56 274.83 1666.56 269.627C1666.56 264.467 1668.62 261.458 1672.11 261.458C1675.61 261.458 1677.67 264.467 1677.67 269.627C1677.67 274.83 1675.63 277.795 1672.11 277.795ZM1672.11 276.038C1674.4 276.038 1675.74 273.733 1675.74 269.627C1675.74 265.52 1674.4 263.171 1672.11 263.171C1669.83 263.171 1668.47 265.52 1668.47 269.627C1668.47 273.733 1669.81 276.038 1672.11 276.038ZM1685.93 261.678V277.575H1683.93V263.742H1683.84L1679.97 266.311V264.313L1683.93 261.678H1685.93ZM1697.01 268.77V270.505H1690.05V268.77H1697.01ZM1705.09 277.795C1701.56 277.795 1699.54 274.83 1699.54 269.627C1699.54 264.467 1701.6 261.458 1705.09 261.458C1708.59 261.458 1710.65 264.467 1710.65 269.627C1710.65 274.83 1708.61 277.795 1705.09 277.795ZM1705.09 276.038C1707.38 276.038 1708.72 273.733 1708.72 269.627C1708.72 265.52 1707.38 263.171 1705.09 263.171C1702.81 263.171 1701.45 265.52 1701.45 269.627C1701.45 273.733 1702.79 276.038 1705.09 276.038ZM1718.58 261.458C1721.32 261.48 1724.35 263.127 1724.35 268.99C1724.35 274.633 1722.05 277.795 1718.31 277.795C1715.52 277.795 1713.55 276.082 1713.15 273.557H1715.11C1715.46 274.984 1716.53 276.038 1718.31 276.038C1720.9 276.038 1722.48 273.798 1722.51 269.934H1722.29C1721.36 271.251 1719.92 272.042 1718.22 272.042C1715.37 272.042 1713.02 269.868 1713.02 266.794C1713.02 263.83 1715.19 261.436 1718.58 261.458ZM1718.58 263.193C1716.49 263.193 1714.93 264.818 1714.95 266.772C1714.95 268.748 1716.42 270.307 1718.51 270.307C1720.57 270.307 1722.2 268.595 1722.2 266.728C1722.2 264.906 1720.68 263.193 1718.58 263.193Z" fill="#4E4E4E"/>
<mask id="path-49-inside-15_14020_1131" fill="white">
<path d="M1776.28 326.027H1916.81V213.604H1776.28V326.027Z"/>
</mask>
<path d="M1776.28 326.027H1916.81V213.604H1776.28V326.027Z" fill="white"/>
<path d="M1776.28 324.622H1916.81V327.433H1776.28V324.622Z" fill="#CFCFCF" mask="url(#path-49-inside-15_14020_1131)"/>
<path d="M1828.36 261.678V277.575H1826.37V263.742H1826.28L1822.41 266.311V264.313L1826.37 261.678H1828.36ZM1837.89 261.458C1840.64 261.48 1843.67 263.127 1843.67 268.99C1843.67 274.633 1841.36 277.795 1837.63 277.795C1834.84 277.795 1832.87 276.082 1832.47 273.557H1834.43C1834.78 274.984 1835.85 276.038 1837.63 276.038C1840.22 276.038 1841.8 273.798 1841.82 269.934H1841.61C1840.68 271.251 1839.23 272.042 1837.54 272.042C1834.69 272.042 1832.34 269.868 1832.34 266.794C1832.34 263.83 1834.51 261.436 1837.89 261.458ZM1837.89 263.193C1835.81 263.193 1834.25 264.818 1834.27 266.772C1834.27 268.748 1835.74 270.307 1837.83 270.307C1839.89 270.307 1841.52 268.595 1841.52 266.728C1841.52 264.906 1840 263.193 1837.89 263.193ZM1851.6 277.795C1848.06 277.795 1846.04 274.83 1846.04 269.627C1846.04 264.467 1848.1 261.458 1851.6 261.458C1855.09 261.458 1857.15 264.467 1857.15 269.627C1857.15 274.83 1855.11 277.795 1851.6 277.795ZM1851.6 276.038C1853.88 276.038 1855.22 273.733 1855.22 269.627C1855.22 265.52 1853.88 263.171 1851.6 263.171C1849.31 263.171 1847.95 265.52 1847.95 269.627C1847.95 273.733 1849.29 276.038 1851.6 276.038ZM1864.99 277.795C1861.45 277.795 1859.43 274.83 1859.43 269.627C1859.43 264.467 1861.5 261.458 1864.99 261.458C1868.48 261.458 1870.55 264.467 1870.55 269.627C1870.55 274.83 1868.5 277.795 1864.99 277.795ZM1864.99 276.038C1867.27 276.038 1868.61 273.733 1868.61 269.627C1868.61 265.52 1867.27 263.171 1864.99 263.171C1862.71 263.171 1861.35 265.52 1861.35 269.627C1861.35 273.733 1862.68 276.038 1864.99 276.038Z" fill="#4E4E4E"/>
<mask id="path-52-inside-16_14020_1131" fill="white">
<path d="M0 438.449H140.529V326.026H0V438.449Z"/>
</mask>
<path d="M0 438.449H140.529V326.026H0V438.449Z" fill="white"/>
<path d="M0 437.044H140.529V439.855H0V437.044Z" fill="#CFCFCF" mask="url(#path-52-inside-16_14020_1131)"/>
<path d="M64.7309 389.996L64.709 388.547L70.1325 382.838C72.0208 380.84 72.9211 379.764 72.9211 378.293C72.9211 376.668 71.5378 375.592 69.7592 375.592C67.8708 375.592 66.6632 376.8 66.6632 378.578H64.7968C64.7748 375.768 66.9486 373.879 69.8251 373.879C72.7015 373.879 74.7655 375.811 74.7655 378.293C74.7655 380.071 73.9311 381.455 71.1206 384.353L67.4756 388.108V388.239H75.051V389.996H64.7309Z" fill="black"/>
<mask id="path-55-inside-17_14020_1131" fill="white">
<path d="M140.528 438.449H1368.75V326.026H140.528V438.449Z"/>
</mask>
<path d="M140.528 438.449H1368.75V326.026H140.528V438.449Z" fill="white"/>
<path d="M140.528 437.044H1368.75V439.855H140.528V437.044Z" fill="#CFCFCF" mask="url(#path-55-inside-17_14020_1131)"/>
<path d="M192.546 372.254V391.819H190.811V372.254H192.546ZM182.16 373.769C185.058 373.791 187.144 376.426 187.144 380.576C187.144 384.726 185.058 387.361 182.16 387.361C179.24 387.361 177.176 384.726 177.176 380.576C177.176 376.426 179.24 373.791 182.16 373.769ZM182.16 375.306C180.206 375.328 178.844 377.392 178.844 380.576C178.844 383.76 180.206 385.824 182.16 385.824C184.114 385.824 185.476 383.76 185.476 380.576C185.476 377.392 184.114 375.328 182.16 375.306ZM208.553 375.482C208.553 378.029 210.683 380.291 213.581 381.169L212.703 382.531C210.42 381.806 208.586 380.236 207.697 378.227C206.84 380.379 204.996 382.058 202.668 382.86L201.768 381.499C204.711 380.576 206.818 378.161 206.818 375.482V374.977H202.251V373.572H213.054V374.977H208.553V375.482ZM217.644 372.254V382.816H215.931V372.254H217.644ZM206.709 383.782V386.154H215.931V383.782H217.644V391.511H204.996V383.782H206.709ZM206.709 390.106H215.931V387.537H206.709V390.106ZM237.076 374.296C237.054 379.94 235.012 385.143 227.964 388.591L226.997 387.207C230.653 385.451 232.915 383.2 234.156 380.554L227.371 381.213L227.085 379.676L234.705 379.171C235.056 378.084 235.265 376.931 235.341 375.724H228.073V374.296H237.076ZM242.741 372.254V391.775H241.006V372.254H242.741ZM263.908 387.844V389.271H246.035V387.844H254.071V383.628H248.143V373.638H249.877V377.173H260.022V373.638H261.712V383.628H255.762V387.844H263.908ZM249.877 382.223H260.022V378.578H249.877V382.223ZM281.233 381.652V383.079H267.751V374.077H281.035V375.504H269.463V381.652H281.233ZM283.341 387.669V389.118H265.467V387.669H283.341ZM300.204 373.747V382.421H291.377V373.747H300.204ZM293.068 375.175V381.015H298.491V375.175H293.068ZM305.803 372.254V377.612H308.746V379.061H305.803V385.253H304.091V372.254H305.803ZM300.731 384.88C300.709 387.691 303.893 389.755 307.34 390.325L306.638 391.687C303.75 391.16 301.06 389.667 299.897 387.427C298.711 389.667 296.01 391.16 293.112 391.687L292.431 390.325C295.878 389.755 299.018 387.691 299.018 384.88V384.287H300.731V384.88ZM317.002 375.482C317.002 378.029 319.132 380.291 322.03 381.169L321.152 382.531C318.868 381.806 317.035 380.236 316.145 378.227C315.289 380.379 313.445 382.058 311.117 382.86L310.217 381.499C313.159 380.576 315.267 378.161 315.267 375.482V374.977H310.7V373.572H321.503V374.977H317.002V375.482ZM326.092 372.254V382.816H324.379V372.254H326.092ZM315.157 383.782V386.154H324.379V383.782H326.092V391.511H313.445V383.782H315.157ZM315.157 390.106H324.379V387.537H315.157V390.106ZM345.503 372.254V391.819H343.768V372.254H345.503ZM335.117 373.769C338.015 373.791 340.101 376.426 340.101 380.576C340.101 384.726 338.015 387.361 335.117 387.361C332.196 387.361 330.132 384.726 330.132 380.576C330.132 376.426 332.196 373.791 335.117 373.769ZM335.117 375.306C333.162 375.328 331.801 377.392 331.801 380.576C331.801 383.76 333.162 385.824 335.117 385.824C337.071 385.824 338.432 383.76 338.432 380.576C338.432 377.392 337.071 375.328 335.117 375.306ZM351.519 374.384V385.319C353.627 385.297 355.625 385.176 357.974 384.682L358.216 386.175C355.603 386.724 353.429 386.834 351.036 386.834H349.806V374.384H351.519ZM365.55 372.254V391.775H363.903V372.254H365.55ZM361.378 372.737V390.787H359.731V380.269H355.274V378.842H359.731V372.737H361.378ZM371.434 374.099L371.281 385.517H369.436L369.283 374.099H371.434ZM370.359 390.128C369.59 390.128 368.931 389.491 368.953 388.701C368.931 387.932 369.59 387.295 370.359 387.295C371.127 387.295 371.764 387.932 371.764 388.701C371.764 389.491 371.127 390.128 370.359 390.128Z" fill="black"/>
<mask id="path-58-inside-18_14020_1131" fill="white">
<path d="M1368.75 438.449H1551.44V326.026H1368.75V438.449Z"/>
</mask>
<path d="M1368.75 438.449H1551.44V326.026H1368.75V438.449Z" fill="white"/>
<path d="M1368.75 437.044H1551.44V439.855H1368.75V437.044Z" fill="#CFCFCF" mask="url(#path-58-inside-18_14020_1131)"/>
<path d="M1429.57 387.822V389.271H1411.7V387.822H1419.76V383.079H1421.49V387.822H1429.57ZM1421.49 375.965C1421.49 379.083 1425.35 381.762 1428.71 382.311L1428.01 383.672C1425.03 383.09 1421.87 381.191 1420.63 378.468C1419.37 381.202 1416.23 383.145 1413.3 383.76L1412.58 382.377C1415.87 381.806 1419.71 379.083 1419.71 375.965V375.482H1413.17V374.033H1428.03V375.482H1421.49V375.965ZM1437.8 375.943C1437.8 378.666 1439.78 381.235 1442.64 382.267L1441.67 383.606C1439.53 382.75 1437.83 381.048 1436.99 378.929C1436.16 381.29 1434.38 383.167 1432.07 384.09L1431.15 382.684C1434.07 381.608 1436.09 378.886 1436.11 375.877V373.462H1437.8V375.943ZM1447.31 372.276V386.9H1445.58V378.315H1441.23V376.865H1445.58V372.276H1447.31ZM1447.75 389.908V391.357H1434.69V385.231H1436.42V389.908H1447.75ZM1460.57 374.033V375.482H1453.15V379.522H1460.14V380.928H1453.15V385.648C1456.67 385.648 1459.14 385.506 1462.07 385.012L1462.27 386.439C1459.21 386.944 1456.64 387.054 1452.96 387.076H1451.42V374.033H1460.57ZM1465.67 372.254V380.115H1468.94V381.586H1465.67V391.775H1463.96V372.254H1465.67ZM1476.6 378.249C1476.58 381.389 1478.84 384.836 1481.68 386.175L1480.69 387.537C1478.49 386.472 1476.64 384.144 1475.77 381.499C1474.87 384.375 1472.9 386.9 1470.72 388.02L1469.67 386.659C1472.48 385.297 1474.89 381.586 1474.91 378.249V375.702H1470.37V374.274H1481V375.702H1476.6V378.249ZM1485.1 372.254V380.159H1488.37V381.63H1485.1V391.775H1483.39V372.254H1485.1ZM1505.57 372.254V391.775H1503.83V372.254H1505.57ZM1499.79 374.384C1499.77 380.005 1497.16 384.968 1490.61 388.108L1489.67 386.702C1494.95 384.199 1497.64 380.456 1498.03 375.79H1490.57V374.384H1499.79Z" fill="#4E4E4E"/>
<mask id="path-61-inside-19_14020_1131" fill="white">
<path d="M1551.44 438.449H1776.28V326.026H1551.44V438.449Z"/>
</mask>
<path d="M1551.44 438.449H1776.28V326.026H1551.44V438.449Z" fill="white"/>
<path d="M1551.44 437.044H1776.28V439.855H1551.44V437.044Z" fill="#CFCFCF" mask="url(#path-61-inside-19_14020_1131)"/>
<path d="M1603.52 389.996L1603.5 388.547L1608.92 382.838C1610.81 380.84 1611.71 379.764 1611.71 378.293C1611.71 376.668 1610.33 375.592 1608.55 375.592C1606.66 375.592 1605.45 376.8 1605.45 378.578H1603.58C1603.56 375.768 1605.74 373.879 1608.61 373.879C1611.49 373.879 1613.55 375.811 1613.55 378.293C1613.55 380.071 1612.72 381.455 1609.91 384.353L1606.26 388.108V388.239H1613.84V389.996H1603.52ZM1621.92 390.216C1618.38 390.216 1616.36 387.251 1616.36 382.047C1616.36 376.887 1618.43 373.879 1621.92 373.879C1625.41 373.879 1627.47 376.887 1627.47 382.047C1627.47 387.251 1625.43 390.216 1621.92 390.216ZM1621.92 388.459C1624.2 388.459 1625.54 386.154 1625.54 382.047C1625.54 377.941 1624.2 375.592 1621.92 375.592C1619.64 375.592 1618.27 377.941 1618.27 382.047C1618.27 386.154 1619.61 388.459 1621.92 388.459ZM1630.11 389.996L1630.09 388.547L1635.51 382.838C1637.4 380.84 1638.3 379.764 1638.3 378.293C1638.3 376.668 1636.92 375.592 1635.14 375.592C1633.25 375.592 1632.04 376.8 1632.04 378.578H1630.18C1630.15 375.768 1632.33 373.879 1635.2 373.879C1638.08 373.879 1640.14 375.811 1640.14 378.293C1640.14 380.071 1639.31 381.455 1636.5 384.353L1632.85 388.108V388.239H1640.43V389.996H1630.11ZM1648.8 390.216C1645.63 390.216 1643.37 388.525 1643.26 386H1645.26C1645.37 387.515 1646.88 388.459 1648.77 388.459C1650.86 388.459 1652.4 387.317 1652.4 385.67C1652.4 383.936 1651.01 382.706 1648.53 382.706H1647.24V380.972H1648.53C1650.46 380.972 1651.8 379.896 1651.8 378.249C1651.8 376.668 1650.64 375.592 1648.84 375.592C1647.15 375.592 1645.59 376.536 1645.5 378.095H1643.59C1643.7 375.57 1646.03 373.879 1648.86 373.879C1651.89 373.879 1653.74 375.855 1653.71 378.139C1653.74 379.94 1652.68 381.279 1651.01 381.74V381.85C1653.08 382.179 1654.35 383.65 1654.33 385.67C1654.35 388.283 1651.96 390.216 1648.8 390.216ZM1664.03 381.191V382.926H1657.07V381.191H1664.03ZM1672.11 390.216C1668.58 390.216 1666.56 387.251 1666.56 382.047C1666.56 376.887 1668.62 373.879 1672.11 373.879C1675.61 373.879 1677.67 376.887 1677.67 382.047C1677.67 387.251 1675.63 390.216 1672.11 390.216ZM1672.11 388.459C1674.4 388.459 1675.74 386.154 1675.74 382.047C1675.74 377.941 1674.4 375.592 1672.11 375.592C1669.83 375.592 1668.47 377.941 1668.47 382.047C1668.47 386.154 1669.81 388.459 1672.11 388.459ZM1685.93 374.099V389.996H1683.93V376.163H1683.84L1679.97 378.732V376.734L1683.93 374.099H1685.93ZM1697.01 381.191V382.926H1690.05V381.191H1697.01ZM1705.09 390.216C1701.56 390.216 1699.54 387.251 1699.54 382.047C1699.54 376.887 1701.6 373.879 1705.09 373.879C1708.59 373.879 1710.65 376.887 1710.65 382.047C1710.65 387.251 1708.61 390.216 1705.09 390.216ZM1705.09 388.459C1707.38 388.459 1708.72 386.154 1708.72 382.047C1708.72 377.941 1707.38 375.592 1705.09 375.592C1702.81 375.592 1701.45 377.941 1701.45 382.047C1701.45 386.154 1702.79 388.459 1705.09 388.459ZM1718.58 373.879C1721.32 373.901 1724.35 375.548 1724.35 381.411C1724.35 387.054 1722.05 390.216 1718.31 390.216C1715.52 390.216 1713.55 388.503 1713.15 385.978H1715.11C1715.46 387.405 1716.53 388.459 1718.31 388.459C1720.9 388.459 1722.48 386.219 1722.51 382.355H1722.29C1721.36 383.672 1719.92 384.463 1718.22 384.463C1715.37 384.463 1713.02 382.289 1713.02 379.215C1713.02 376.251 1715.19 373.857 1718.58 373.879ZM1718.58 375.614C1716.49 375.614 1714.93 377.239 1714.95 379.193C1714.95 381.169 1716.42 382.728 1718.51 382.728C1720.57 382.728 1722.2 381.015 1722.2 379.149C1722.2 377.327 1720.68 375.614 1718.58 375.614Z" fill="#4E4E4E"/>
<mask id="path-64-inside-20_14020_1131" fill="white">
<path d="M1776.28 438.449H1916.81V326.026H1776.28V438.449Z"/>
</mask>
<path d="M1776.28 438.449H1916.81V326.026H1776.28V438.449Z" fill="white"/>
<path d="M1776.28 437.044H1916.81V439.855H1776.28V437.044Z" fill="#CFCFCF" mask="url(#path-64-inside-20_14020_1131)"/>
<path d="M1828.36 374.099V389.996H1826.37V376.163H1826.28L1822.41 378.732V376.734L1826.37 374.099H1828.36ZM1837.89 373.879C1840.64 373.901 1843.67 375.548 1843.67 381.411C1843.67 387.054 1841.36 390.216 1837.63 390.216C1834.84 390.216 1832.87 388.503 1832.47 385.978H1834.43C1834.78 387.405 1835.85 388.459 1837.63 388.459C1840.22 388.459 1841.8 386.219 1841.82 382.355H1841.61C1840.68 383.672 1839.23 384.463 1837.54 384.463C1834.69 384.463 1832.34 382.289 1832.34 379.215C1832.34 376.251 1834.51 373.857 1837.89 373.879ZM1837.89 375.614C1835.81 375.614 1834.25 377.239 1834.27 379.193C1834.27 381.169 1835.74 382.728 1837.83 382.728C1839.89 382.728 1841.52 381.015 1841.52 379.149C1841.52 377.327 1840 375.614 1837.89 375.614ZM1851.6 390.216C1848.06 390.216 1846.04 387.251 1846.04 382.047C1846.04 376.887 1848.1 373.879 1851.6 373.879C1855.09 373.879 1857.15 376.887 1857.15 382.047C1857.15 387.251 1855.11 390.216 1851.6 390.216ZM1851.6 388.459C1853.88 388.459 1855.22 386.154 1855.22 382.047C1855.22 377.941 1853.88 375.592 1851.6 375.592C1849.31 375.592 1847.95 377.941 1847.95 382.047C1847.95 386.154 1849.29 388.459 1851.6 388.459ZM1864.99 390.216C1861.45 390.216 1859.43 387.251 1859.43 382.047C1859.43 376.887 1861.5 373.879 1864.99 373.879C1868.48 373.879 1870.55 376.887 1870.55 382.047C1870.55 387.251 1868.5 390.216 1864.99 390.216ZM1864.99 388.459C1867.27 388.459 1868.61 386.154 1868.61 382.047C1868.61 377.941 1867.27 375.592 1864.99 375.592C1862.71 375.592 1861.35 377.941 1861.35 382.047C1861.35 386.154 1862.68 388.459 1864.99 388.459Z" fill="#4E4E4E"/>
<rect x="1776.28" y="573.356" width="140.529" height="64.6431" rx="7.02643" fill="#111111"/>
<path d="M1836.14 597.989V599.123C1836.14 600.266 1836.14 601.707 1835.77 603.58H1838.13V605.04H1822.38V603.58H1833.95C1834.29 601.832 1834.33 600.516 1834.33 599.449H1824.36V597.989H1836.14ZM1836.15 606.577V611.092H1826.07V612.841H1836.6V614.301H1824.24V609.69H1834.35V608.038H1824.22V606.577H1836.15ZM1844.72 600.737C1844.72 602.36 1845.5 604.387 1847.24 605.578C1848.95 604.406 1849.74 602.408 1849.74 600.737V598.585H1851.58V600.737C1851.56 602.831 1852.7 604.983 1855 605.943L1854 607.308C1852.35 606.587 1851.24 605.242 1850.64 603.638C1850.06 605.29 1848.97 606.75 1847.22 607.519C1845.46 606.75 1844.35 605.233 1843.78 603.58C1843.18 605.165 1842.06 606.568 1840.44 607.308L1839.46 605.943C1841.71 604.944 1842.88 602.658 1842.9 600.737V598.585H1844.72V600.737ZM1855.12 610.708V612.207H1839.38V610.708H1855.12ZM1870.7 597.259V614.474H1868.85V597.259H1870.7ZM1865.57 599.104C1865.57 604.137 1863.42 608.518 1857.52 611.342L1856.56 609.863C1861.14 607.682 1863.37 604.579 1863.73 600.564H1857.38V599.104H1865.57Z" fill="white"/>
<path d="M883.185 597.539V613.437H880.748V599.955H880.66L876.861 602.436V600.13L880.814 597.539H883.185Z" fill="black"/>
<path d="M912.046 613.437L912.024 611.987L917.448 606.278C919.336 604.28 920.237 603.204 920.237 601.733C920.237 600.108 918.853 599.032 917.075 599.032C915.186 599.032 913.979 600.24 913.979 602.019H912.112C912.09 599.208 914.264 597.32 917.14 597.32C920.017 597.32 922.081 599.252 922.081 601.733C922.081 603.512 921.247 604.895 918.436 607.793L914.791 611.548V611.68H922.366V613.437H912.046ZM955.465 613.656C952.303 613.656 950.042 611.965 949.932 609.44H951.93C952.04 610.955 953.555 611.899 955.443 611.899C957.529 611.899 959.066 610.758 959.066 609.111C959.066 607.376 957.683 606.147 955.202 606.147H953.906V604.412H955.202C957.134 604.412 958.473 603.336 958.473 601.689C958.473 600.108 957.31 599.032 955.509 599.032C953.818 599.032 952.259 599.977 952.172 601.536H950.261C950.371 599.01 952.699 597.32 955.531 597.32C958.561 597.32 960.406 599.296 960.384 601.579C960.406 603.38 959.352 604.719 957.683 605.18V605.29C959.747 605.62 961.021 607.091 960.999 609.111C961.021 611.724 958.627 613.656 955.465 613.656ZM988.191 610.187V608.562L995.349 597.539H997.786V608.452H1000V610.187H997.786V613.437H995.898V610.187H988.191ZM990.321 608.452H995.898V600.042H995.7L990.321 608.32V608.452ZM1032.53 613.656C1029.66 613.656 1027.48 611.878 1027.37 609.44H1029.28C1029.44 610.867 1030.82 611.921 1032.53 611.921C1034.6 611.921 1036.09 610.406 1036.09 608.408C1036.09 606.344 1034.53 604.829 1032.4 604.807C1031.06 604.785 1030.03 605.202 1029.44 606.234H1027.53L1028.65 597.539H1037.25V599.296H1030.29L1029.7 603.951H1029.85C1030.56 603.402 1031.63 603.029 1032.75 603.029C1035.78 603.029 1038.02 605.268 1038.02 608.364C1038.02 611.438 1035.69 613.656 1032.53 613.656Z" fill="#9F9F9F"/>
<path d="M1075.06 615.516L1083.98 606.607C1084.49 606.094 1084.49 605.263 1083.98 604.751L1075.06 595.842" stroke="#313131" stroke-width="2.62294" stroke-linecap="round"/>
<path d="M840.375 615.516L831.453 606.607C830.94 606.094 830.94 605.263 831.453 604.751L840.375 595.842" stroke="#B8B8B8" stroke-width="2.62294" stroke-linecap="round"/>
</svg>
