<svg width="206" height="47" viewBox="0 0 206 47" fill="none" xmlns="http://www.w3.org/2000/svg">
<path d="M64.4934 31.2472L49.7871 16.5285C49.4448 16.1904 48.983 16.0008 48.5019 16.0008C48.0207 16.0008 47.559 16.1904 47.2166 16.5285L37.33 26.4151C37.1601 26.5671 36.9401 26.6511 36.7121 26.6511C36.4841 26.6511 36.2642 26.5671 36.0942 26.4151L24.6134 14.9343C24.4614 14.7644 24.3774 14.5444 24.3774 14.3164C24.3774 14.0884 24.4614 13.8684 24.6134 13.6985L32.0284 6.34533C32.1942 6.18524 32.4157 6.09577 32.6463 6.09577C32.8768 6.09577 33.0983 6.18524 33.2642 6.34533L38.3311 11.4122C38.4883 11.5795 38.5759 11.8005 38.5759 12.0301C38.5759 12.2597 38.4883 12.4807 38.3311 12.648L34.8337 16.1454C34.4956 16.4877 34.306 16.9495 34.306 17.4307C34.306 17.9118 34.4956 18.3736 34.8337 18.7159L35.4763 19.3585C35.8165 19.6959 36.2763 19.8852 36.7554 19.8852C37.2345 19.8852 37.6942 19.6959 38.0345 19.3585L44.1024 13.2906C44.4405 12.9483 44.6301 12.4866 44.6301 12.0054C44.6301 11.5243 44.4405 11.0625 44.1024 10.7202L33.9068 0.536939C33.74 0.366923 33.541 0.231888 33.3213 0.139694C33.1017 0.0474994 32.8659 0 32.6277 0C32.3895 0 32.1537 0.0474994 31.9341 0.139694C31.7145 0.231888 31.5155 0.366923 31.3486 0.536939L18.805 13.0682C18.4669 13.4105 18.2773 13.8723 18.2773 14.3535C18.2773 14.8346 18.4669 15.2964 18.805 15.6387L35.4145 32.2358C35.5824 32.4062 35.7825 32.5415 36.0031 32.6339C36.2238 32.7262 36.4606 32.7738 36.6998 32.7738C36.939 32.7738 37.1758 32.7262 37.3964 32.6339C37.6171 32.5415 37.8172 32.4062 37.985 32.2358L47.8716 22.3493C48.0415 22.1973 48.2615 22.1132 48.4895 22.1132C48.7175 22.1132 48.9375 22.1973 49.1074 22.3493L58.6851 31.9269C58.8371 32.0968 58.9211 32.3168 58.9211 32.5448C58.9211 32.7728 58.8371 32.9928 58.6851 33.1627L51.2701 40.5158C51.1043 40.6759 50.8827 40.7654 50.6522 40.7654C50.4217 40.7654 50.2002 40.6759 50.0343 40.5158L44.263 34.7569C44.0951 34.5865 43.8951 34.4512 43.6744 34.3589C43.4538 34.2665 43.2169 34.2189 42.9777 34.2189C42.7386 34.2189 42.5018 34.2665 42.2811 34.3589C42.0605 34.4512 41.8604 34.5865 41.6925 34.7569L41.0869 35.3625C40.7496 35.7027 40.5603 36.1624 40.5603 36.6416C40.5603 37.1207 40.7496 37.5804 41.0869 37.9206L49.4164 46.2624C49.7587 46.6005 50.2205 46.7901 50.7016 46.7901C51.1828 46.7901 51.6446 46.6005 51.9869 46.2624L64.4316 33.8053C64.6058 33.6427 64.7457 33.4469 64.8432 33.2295C64.9407 33.0121 64.994 32.7774 64.9997 32.5392C65.0055 32.301 64.9637 32.0641 64.8767 31.8422C64.7898 31.6204 64.6595 31.4181 64.4934 31.2472Z" fill="black"/>
<path d="M13.0826 46.2373C13.4228 46.5747 13.8825 46.7639 14.3617 46.7639C14.8408 46.7639 15.3005 46.5747 15.6407 46.2373L25.5273 36.3507C25.6932 36.1907 25.9147 36.1012 26.1452 36.1012C26.3758 36.1012 26.5973 36.1907 26.7632 36.3507L36.761 46.3362C36.9219 46.5017 37.1139 46.6338 37.3259 46.725C37.538 46.8162 37.766 46.8647 37.9968 46.8676H39.2326C39.5854 46.8561 39.9272 46.742 40.2162 46.5394C40.5052 46.3368 40.7289 46.0543 40.86 45.7266C40.9911 45.3989 41.0238 45.0401 40.9543 44.694C40.8848 44.348 40.7159 44.0297 40.4684 43.7781L27.2946 30.6042C26.9543 30.2668 26.4946 30.0776 26.0155 30.0776C25.5363 30.0776 25.0766 30.2668 24.7364 30.6042L14.8498 40.4908C14.6825 40.648 14.4615 40.7356 14.2319 40.7356C14.0023 40.7356 13.7813 40.648 13.614 40.4908L6.28555 33.1747C6.12827 33.0074 6.04071 32.7864 6.04071 32.5568C6.04071 32.3271 6.12827 32.1061 6.28555 31.9388L13.7005 24.5857C13.8678 24.4284 14.0888 24.3409 14.3184 24.3409C14.548 24.3409 14.769 24.4284 14.9363 24.5857L18.4213 28.0584C18.5882 28.2284 18.7872 28.3634 19.0068 28.4556C19.2264 28.5478 19.4622 28.5953 19.7004 28.5953C19.9386 28.5953 20.1744 28.5478 20.394 28.4556C20.6137 28.3634 20.8127 28.2284 20.9795 28.0584L21.5974 27.4528C21.9355 27.1105 22.1251 26.6487 22.1251 26.1676C22.1251 25.6864 21.9355 25.2246 21.5974 24.8823L15.5419 18.8391C15.2016 18.5018 14.7419 18.3125 14.2628 18.3125C13.7837 18.3125 13.3239 18.5018 12.9837 18.8391L0.526605 31.2962C0.189265 31.6365 0 32.0962 0 32.5753C0 33.0544 0.189265 33.5142 0.526605 33.8544L13.0826 46.2373Z" fill="black"/>
<path d="M98.7308 35.8208C98.3483 35.1212 97.8747 34.4755 97.3225 33.9004C96.6824 33.1835 96.2216 32.8507 95.957 32.8933C94.8048 33.0811 93.9342 33.192 93.3965 33.2347C91.9229 33.3997 89.775 33.542 86.9528 33.6615L87.0125 28.6686C87.0125 28.1992 86.4578 27.8151 85.3056 27.4823C84.5599 27.2719 83.7975 27.1263 83.0268 27.047C82.8905 27.0411 82.7547 27.068 82.6309 27.1254C82.5072 27.1827 82.3989 27.2689 82.3153 27.3768C82.2317 27.4846 82.1752 27.6109 82.1505 27.7451C82.1258 27.8793 82.1336 28.0175 82.1733 28.148L82.2757 28.4979C82.4112 28.9452 82.4971 29.406 82.5318 29.872L82.7451 33.8236C78.5119 33.8976 75.8291 33.9374 74.6968 33.9431C73.4517 33.947 72.2088 33.8356 70.9842 33.6103C70.8392 33.5878 70.6908 33.6031 70.5534 33.6547C70.416 33.7063 70.2942 33.7924 70.1999 33.9048C70.1055 34.0172 70.0417 34.1521 70.0146 34.2963C69.9876 34.4406 69.9982 34.5893 70.0454 34.7283C70.3307 35.4503 70.6972 36.1375 71.1378 36.7766C71.3667 37.2086 71.6996 37.5768 72.1064 37.848C72.5131 38.1192 72.981 38.2848 73.4678 38.33C73.6145 38.3236 73.7602 38.3036 73.9031 38.2702C77.5563 37.5264 81.2706 37.1235 84.9983 37.0668C85.9798 37.0668 87.3198 37.0071 89.0097 37.0071C91.8773 36.9055 94.746 37.1752 97.5444 37.8094C97.792 37.8691 98.0651 37.6899 98.3467 37.2717C98.6044 36.9369 98.756 36.5326 98.782 36.1109C98.7914 36.0114 98.7737 35.9111 98.7308 35.8208ZM94.6853 25.1523C94.0877 24.5379 93.3963 24.0222 92.6369 23.6246C91.5779 23.0004 90.4566 22.4884 89.2913 22.0969C88.2329 21.7393 87.1355 21.5101 86.0225 21.4141C85.9372 21.4079 85.8549 21.3794 85.7841 21.3314C85.7133 21.2834 85.6564 21.2175 85.6192 21.1405C85.582 21.0634 85.5657 20.9779 85.5721 20.8926C85.5785 20.8073 85.6072 20.7251 85.6555 20.6545C86.1932 19.8863 86.9186 18.828 86.9186 18.828C86.9186 18.828 86.9699 18.572 86.765 18.4269L85.408 17.5734C85.9201 17.5734 86.6114 17.5734 87.4734 17.5734C88.5338 17.5648 89.5938 17.6161 90.6483 17.727C91.5136 17.8237 92.3698 17.9892 93.2088 18.2221C93.3283 18.2221 93.5075 18.1367 93.7294 17.9063C93.9592 17.6812 94.1445 17.4148 94.2756 17.1211C94.3975 16.9124 94.4341 16.6648 94.378 16.4298C94.099 15.7632 93.7095 15.1486 93.2258 14.6118C92.6369 13.912 92.2358 13.5791 92.0054 13.6218C91.3758 13.7749 90.7373 13.8889 90.0936 13.9632C88.5146 14.1851 86.5602 14.3558 84.2387 14.4582C81.6442 14.5777 79.5446 14.6374 77.9401 14.6374C76.8605 14.6499 75.7816 14.5757 74.7139 14.4156C74.5682 14.395 74.4197 14.4125 74.2827 14.4663C74.1458 14.5201 74.0251 14.6084 73.9323 14.7227C73.8396 14.8369 73.7779 14.9732 73.7534 15.1183C73.7288 15.2633 73.7422 15.4123 73.7922 15.5507C74.0149 16.1485 74.301 16.7207 74.6456 17.2576C75.2601 18.1965 75.9003 18.6744 76.5574 18.6744C76.659 18.693 76.7631 18.693 76.8647 18.6744C78.6403 18.2629 80.4428 17.9777 82.2587 17.8209L82.0197 18.5293C81.9599 18.7128 81.8767 18.8878 81.7722 19.0499C80.4556 21.0249 78.8536 22.7937 77.0183 24.2988C76.1063 25.064 75.1198 25.736 74.0738 26.3045L73.2715 26.7056C73.1295 26.7764 73.01 26.8854 72.9265 27.0203C72.843 27.1552 72.7988 27.3108 72.7988 27.4695C72.7988 27.6282 72.843 27.7837 72.9265 27.9186C73.01 28.0536 73.1295 28.1626 73.2715 28.2334C73.7981 28.4307 74.3565 28.5291 74.9188 28.5235C76.516 28.4401 78.0611 27.927 79.391 27.0385C81.0317 26.0115 82.4982 24.7294 83.7352 23.2405C83.8429 23.1058 83.9965 23.0157 84.1667 22.9873C84.3368 22.959 84.5114 22.9944 84.6569 23.0869C85.7266 23.7924 86.8646 24.6061 88.0708 25.5278C89.1714 26.3574 90.2283 27.2433 91.2372 28.1821C91.6086 28.484 92.0836 28.628 92.5601 28.5833C93.1116 28.5864 93.6577 28.476 94.1647 28.259C94.6597 28.0456 94.9328 27.7725 95.0182 27.4055C95.05 27.1819 95.0699 26.9569 95.0779 26.7312C95.1222 26.1762 94.9844 25.6219 94.6853 25.1523Z" fill="black"/>
<path d="M115.025 25.3581C114.941 24.9962 114.737 24.6738 114.444 24.4449C113.476 23.7887 112.437 23.2446 111.346 22.8232C110.207 22.3873 109.021 22.0838 107.813 21.9185C108.53 20.5188 109.212 19.0509 109.844 17.5061L110.168 16.7379C110.262 16.5331 110.33 16.3539 110.407 16.2088C110.511 16.0217 110.603 15.8278 110.68 15.6284C110.843 15.2529 110.612 14.8432 109.972 14.3909C109.167 13.864 108.287 13.4639 107.36 13.2045C106.802 13.0257 106.232 12.8887 105.653 12.7949C105.507 12.783 105.36 12.8092 105.226 12.8709C105.093 12.9327 104.978 13.0278 104.892 13.1471C104.806 13.2665 104.752 13.406 104.736 13.5521C104.72 13.6982 104.742 13.846 104.8 13.9812C105.048 14.5174 105.188 15.0976 105.21 15.6882C105.216 15.8873 105.19 16.0861 105.133 16.2771C104.742 17.6733 104.237 19.035 103.622 20.3481C102.958 21.7634 102.152 23.1075 101.215 24.3595C100.483 25.3581 99.6724 26.297 98.7915 27.1674C98.5098 27.432 98.2453 27.6624 97.9978 27.8673C97.885 27.9668 97.8006 28.0942 97.7529 28.2368C97.7053 28.3794 97.6962 28.5321 97.7265 28.6793C97.7568 28.8266 97.8255 28.9632 97.9256 29.0754C98.0257 29.1876 98.1536 29.2713 98.2965 29.3182C98.6021 29.4037 98.918 29.4467 99.2353 29.4462C100.382 29.3959 101.491 29.0232 102.436 28.3708C103.154 27.9261 103.816 27.3959 104.407 26.7919C105.073 26.0898 105.687 25.3395 106.242 24.5473C106.396 24.3327 106.538 24.1105 106.669 23.8816C106.773 23.6965 106.887 23.517 107.01 23.3439C108.728 24.8101 110.202 26.5383 111.38 28.4647C111.528 28.6474 111.72 28.789 111.938 28.8757C112.157 28.9624 112.394 28.9913 112.626 28.9597C113.134 28.9548 113.636 28.8504 114.103 28.6525C114.494 28.5323 114.824 28.2665 115.025 27.91C115.182 27.5291 115.255 27.1184 115.238 26.7066C115.237 26.2487 115.165 25.7938 115.025 25.3581ZM123.448 38.1602C123.058 37.5046 122.588 36.8998 122.049 36.3594C121.392 35.6937 120.939 35.3779 120.675 35.4206C119.377 35.6254 118.532 35.7449 118.114 35.7875C116.279 35.9753 114.914 36.0948 113.983 36.1546L112.934 36.2228L110.698 36.3082C109.725 36.3509 108.991 36.3764 108.496 36.3764C108.453 35.523 108.436 34.8829 108.436 34.3708V32.8601C108.451 32.2259 108.525 31.5944 108.658 30.9739C108.671 30.8486 108.651 30.7221 108.6 30.6069C108.549 30.4917 108.469 30.3917 108.368 30.3168C108.061 30.024 107.694 29.8025 107.292 29.6681C106.155 29.2612 104.931 29.1582 103.742 29.3694C103.602 29.4005 103.472 29.4661 103.365 29.5603C103.257 29.6545 103.175 29.7742 103.126 29.9084C103.076 30.0427 103.062 30.1872 103.083 30.3286C103.104 30.47 103.16 30.6039 103.247 30.7179L103.451 30.9825C103.684 31.2845 103.86 31.6256 103.972 31.9896C104.197 33.2714 104.3 34.5717 104.279 35.8729C104.279 36.6496 104.279 37.3579 104.185 37.9981C104.185 38.2029 104.331 38.476 104.698 38.8515C105.061 39.1853 105.466 39.4721 105.901 39.705C106.179 39.8975 106.503 40.0151 106.84 40.0464C109.135 39.6708 111.453 39.454 113.779 39.3978H115.101C117.511 39.3325 119.918 39.6025 122.254 40.2C122.51 40.2598 122.774 40.072 123.064 39.6282C123.311 39.2785 123.458 38.8686 123.491 38.4419C123.501 38.3487 123.487 38.2544 123.448 38.1688V38.1602ZM122.86 15.398C122.903 14.7793 122.982 14.1637 123.099 13.5545C123.192 13.1021 122.868 12.6583 122.168 12.223C121.314 11.7391 120.385 11.4016 119.42 11.2245C118.955 11.1227 118.485 11.0486 118.012 11.0026C117.855 10.9904 117.698 11.0217 117.557 11.0933C117.417 11.1649 117.3 11.2738 117.217 11.408C117.135 11.5423 117.092 11.6966 117.092 11.854C117.092 12.0114 117.136 12.1657 117.218 12.2999L117.406 12.5986C117.722 13.0916 117.96 13.6297 118.114 14.1946C118.3 15.2138 118.392 16.2481 118.387 17.2842V18.2401C116.868 18.4193 115.724 18.5302 114.973 18.5473C114.666 18.5473 114.239 18.5473 113.685 18.5473C113.174 18.5428 112.663 18.5058 112.157 18.4364C112.013 18.4182 111.867 18.437 111.732 18.4912C111.597 18.5453 111.478 18.6329 111.387 18.7457C111.296 18.8585 111.234 18.9927 111.209 19.1357C111.184 19.2787 111.196 19.4258 111.244 19.563C111.346 19.8361 111.466 20.1092 111.602 20.4164C111.831 20.9914 112.171 21.5161 112.601 21.9612C112.964 22.3102 113.446 22.5085 113.949 22.516C114.318 22.5049 114.683 22.4417 115.033 22.3282L117.133 21.7479L118.396 21.4065V26.4676C118.396 27.3893 118.396 28.6354 118.276 30.1973L118.234 30.8715C118.248 31.2826 118.422 31.6718 118.72 31.9554C119.079 32.3405 119.504 32.6584 119.975 32.8943C120.357 33.1187 120.787 33.2502 121.229 33.2783C121.446 33.2677 121.657 33.2112 121.85 33.1126C122.043 33.014 122.212 32.8756 122.347 32.7065C122.672 32.3854 122.858 31.9508 122.868 31.4946C122.868 30.8715 122.868 29.9498 122.808 28.7122V26.4676V17.4122C122.766 17.25 122.8 16.5843 122.86 15.4065V15.398Z" fill="black"/>
<path d="M154.164 24.4783C153.916 24.0846 153.63 23.7159 153.311 23.3773C152.961 22.9875 152.569 22.6383 152.142 22.3361C151.758 22.0715 151.485 22.0117 151.288 22.1312C150.381 22.9063 149.245 23.3621 148.054 23.4285V17.7187C148.054 16.8653 148.054 16.1057 148.147 15.4058C148.186 14.7867 148.266 14.1708 148.386 13.5623C148.472 13.11 148.156 12.6662 147.448 12.2309C146.597 11.7468 145.671 11.4092 144.708 11.2323C144.243 11.1306 143.773 11.0564 143.3 11.0104C143.143 10.9982 142.986 11.0296 142.845 11.1011C142.705 11.1727 142.588 11.2816 142.505 11.4159C142.423 11.5501 142.38 11.7045 142.38 11.8619C142.38 12.0193 142.424 12.1735 142.506 12.3077L142.685 12.6064C143.011 13.0939 143.251 13.6338 143.394 14.2024C143.599 15.4261 143.693 16.6659 143.675 17.9065V29.2577C143.675 31.9462 143.59 35.1297 143.428 38.7826C143.443 39.23 143.629 39.6546 143.948 39.9689C144.329 40.4167 144.771 40.8076 145.263 41.1296C145.615 41.3997 146.034 41.5706 146.475 41.6246C146.71 41.6188 146.941 41.5615 147.152 41.4569C147.363 41.3522 147.548 41.2026 147.695 41.0187C147.865 40.8406 147.998 40.6304 148.086 40.4003C148.174 40.1702 148.215 39.9249 148.207 39.6787C148.105 35.9405 148.054 32.4668 148.054 29.2577V26.1084C149.01 26.064 149.969 26.0954 150.921 26.2023C151.69 26.2567 152.453 26.3795 153.2 26.5693C153.388 26.5693 153.601 26.4157 153.832 25.9889C154.047 25.6323 154.171 25.2275 154.19 24.8111C154.208 24.6997 154.199 24.5857 154.164 24.4783ZM131.709 20.0573L133.596 19.8695C134.5 19.8097 135.371 19.7756 136.216 19.7756C137.356 19.7722 138.496 19.8349 139.63 19.9634C139.818 19.9634 140.014 19.7842 140.236 19.3745C140.432 19.024 140.543 18.6322 140.56 18.2308C140.553 18.1256 140.53 18.022 140.492 17.9236C140.168 17.3604 139.765 16.8461 139.297 16.3958C138.759 15.8752 138.375 15.6533 138.153 15.7387C137.217 16.0313 136.265 16.2734 135.303 16.4641C134.235 16.653 133.158 16.7812 132.076 16.8482C130.762 16.9335 129.866 16.9677 129.397 16.9677C128.248 16.9823 127.103 16.8619 125.983 16.6092C125.88 16.5842 125.773 16.5861 125.671 16.6145C125.57 16.643 125.477 16.6971 125.403 16.7717C125.328 16.8463 125.274 16.9389 125.245 17.0404C125.217 17.142 125.215 17.2493 125.24 17.3517C125.366 17.8217 125.529 18.2811 125.727 18.7258C125.992 19.377 126.367 19.9775 126.836 20.5011C127.237 20.9193 127.587 21.0814 127.894 20.979L128.424 20.7913L131.709 20.0573ZM125.94 26.0316C126.051 25.4342 126.187 24.6746 126.281 24.1796C126.304 24.0397 126.375 23.9119 126.48 23.8172C126.586 23.7226 126.72 23.6667 126.862 23.6589L132.025 23.3005C133.919 23.1355 135.802 22.8676 137.667 22.4982C137.914 22.4982 138.29 22.686 138.81 23.181C139.305 23.649 139.712 24.2009 140.014 24.8111C140.049 24.8893 140.069 24.9732 140.074 25.0586C140.046 25.418 139.916 25.7617 139.698 26.0487C139.459 26.4157 139.237 26.5949 139.058 26.5693C137.823 26.4289 136.58 26.3662 135.337 26.3815C134.057 26.3815 126.589 26.7315 126.589 26.7315C126.5 26.7386 126.41 26.7258 126.327 26.6939C126.244 26.662 126.169 26.6119 126.107 26.5473C126.046 26.4826 126 26.4051 125.972 26.3203C125.945 26.2355 125.937 26.1456 125.949 26.0572L125.94 26.0316ZM130.677 30.1198C132.623 29.9405 134.142 29.7613 135.226 29.565C136.531 29.3993 137.821 29.131 139.084 28.7627C139.408 28.6603 139.886 28.942 140.5 29.6162C141.059 30.1865 141.507 30.8549 141.823 31.5877C141.878 31.8202 141.85 32.0642 141.746 32.2791C141.638 32.5712 141.476 32.8404 141.268 33.0728C141.064 33.2947 140.876 33.3886 140.714 33.3459C139.534 33.0493 138.319 32.9143 137.103 32.9448C136.736 32.9448 136.096 32.9448 135.192 33.0045C132.825 33.1448 130.475 33.4875 128.168 34.0287C127.818 34.1055 127.417 33.8921 126.964 33.3801C126.422 32.7152 125.987 31.9692 125.675 31.1695C125.649 31.09 125.641 31.0056 125.653 30.9226C125.664 30.8397 125.695 30.7605 125.742 30.6912C125.789 30.6219 125.851 30.5644 125.924 30.523C125.997 30.4816 126.078 30.4575 126.162 30.4526L130.677 30.1198Z" fill="black"/>
<path d="M170.201 28.4377C170.135 28.1293 169.966 27.8525 169.723 27.6524C168.775 26.9508 167.757 26.3501 166.684 25.8602C165.645 25.3772 164.554 25.0163 163.432 24.7848C163.799 23.8374 164.141 22.873 164.448 21.883C164.636 21.3111 164.815 20.8076 165.003 20.3723C165.131 20.1504 165.003 19.9626 164.576 19.8175L162.869 19.3225C163.074 19.3225 163.398 19.3225 163.851 19.3225C165.547 19.3243 167.236 19.5422 168.878 19.9711C169.006 19.9711 169.176 19.8858 169.407 19.6554C169.632 19.4279 169.814 19.162 169.944 18.8702C170.068 18.6621 170.107 18.415 170.055 18.1789C169.773 17.4851 169.375 16.8444 168.878 16.2841C168.289 15.5501 167.888 15.2087 167.683 15.2514C167.145 15.3538 166.505 15.4648 165.771 15.5843C163.996 15.8574 162.767 16.0195 162.067 16.0793C160.77 16.2073 159.506 16.2671 158.363 16.2671C157.22 16.2815 156.078 16.1987 154.949 16.0195C154.809 15.998 154.666 16.0116 154.533 16.0589C154.4 16.1063 154.28 16.1861 154.186 16.291C154.091 16.3959 154.024 16.5228 153.99 16.6601C153.956 16.7975 153.957 16.941 153.993 17.0779C154.203 17.7677 154.489 18.4319 154.846 19.0579C155.376 19.9968 155.965 20.4576 156.605 20.4576C156.695 20.4691 156.787 20.4691 156.878 20.4576C157.518 20.2955 158.585 20.0565 160.121 19.7493C159.816 21.4058 159.335 23.0252 158.687 24.5799C158.054 26.2019 157.262 27.7571 156.323 29.2228C155.825 30.004 155.253 30.7356 154.616 31.4078C154.437 31.6041 154.258 31.7748 154.087 31.9369C153.983 32.0397 153.907 32.1673 153.867 32.3077C153.827 32.448 153.823 32.5963 153.857 32.7385C153.89 32.8806 153.959 33.0118 154.058 33.1195C154.156 33.2272 154.281 33.3079 154.42 33.3537C154.732 33.4338 155.053 33.474 155.376 33.4732C156.433 33.4394 157.46 33.1081 158.337 32.5173C159.754 31.5375 160.909 30.2245 161.7 28.6937C162.024 28.0963 162.408 27.294 162.835 26.2869C164.18 27.9146 165.358 29.673 166.351 31.5358C166.582 31.9198 167.085 32.1161 167.862 32.1161C168.315 32.121 168.765 32.0488 169.193 31.9028C169.54 31.8161 169.843 31.6069 170.047 31.3139C170.305 30.8201 170.423 30.2653 170.388 29.7093C170.388 29.2786 170.324 28.8502 170.201 28.4377ZM183.293 24.4775C183.048 24.0813 182.762 23.7122 182.439 23.3765C182.089 22.9844 181.694 22.635 181.262 22.3353C180.886 22.0707 180.613 22.011 180.408 22.1304C179.502 22.9072 178.365 23.3632 177.173 23.4277V17.718C177.173 16.8645 177.173 16.1049 177.267 15.4051C177.305 14.7854 177.388 14.1693 177.515 13.5615C177.592 13.1092 177.284 12.6654 176.576 12.2301C175.722 11.7462 174.793 11.4086 173.828 11.2315C173.361 11.1337 172.887 11.0766 172.411 11.0608C172.258 11.0568 172.106 11.0943 171.972 11.1692C171.838 11.2441 171.727 11.3536 171.65 11.4864C171.573 11.6192 171.534 11.7702 171.535 11.9236C171.537 12.077 171.58 12.2271 171.66 12.3581C171.711 12.435 171.754 12.5203 171.805 12.6056C172.135 13.0908 172.375 13.6315 172.513 14.2017C172.718 15.4254 172.813 16.6651 172.795 17.9057V29.257C172.795 31.9454 172.71 35.1289 172.548 38.7818C172.567 39.2283 172.753 39.6514 173.068 39.9681C173.448 40.416 173.891 40.8069 174.383 41.1289C174.739 41.3975 175.16 41.5681 175.603 41.6239C175.838 41.6169 176.069 41.5591 176.28 41.4545C176.49 41.3499 176.676 41.201 176.823 41.0179C176.993 40.8394 177.124 40.6289 177.211 40.3988C177.297 40.1687 177.337 39.9236 177.327 39.6779C177.225 35.9397 177.173 32.4661 177.173 29.257V26.1076C178.13 26.0632 179.089 26.0946 180.041 26.2015C180.81 26.2552 181.573 26.3781 182.32 26.5685C182.508 26.5685 182.721 26.4149 182.96 25.9882C183.171 25.6298 183.291 25.2256 183.31 24.8104C183.335 24.6999 183.329 24.5848 183.293 24.4775Z" fill="black"/>
<path d="M197.707 17.164C197.108 16.791 196.593 16.2967 196.196 15.7131C196.114 15.5936 196.005 15.4957 195.877 15.4273C195.749 15.359 195.607 15.3224 195.462 15.3205C195.38 15.3097 195.297 15.3097 195.215 15.3205L194.225 15.5509C193.504 15.7175 192.774 15.8457 192.04 15.935C191.186 16.0374 190.102 16.1313 188.694 16.2166C187.286 16.302 186.27 16.3361 185.656 16.3361C184.76 16.3367 183.867 16.2365 182.993 16.0374C182.849 16.0051 182.698 16.0109 182.557 16.0542C182.415 16.0975 182.288 16.1768 182.186 16.2844C182.084 16.392 182.013 16.5241 181.977 16.6679C181.942 16.8116 181.945 16.962 181.986 17.1042C182.165 17.7282 182.402 18.334 182.694 18.9136C183.206 19.9122 183.761 20.4072 184.358 20.4072C184.449 20.4187 184.541 20.4187 184.632 20.4072C185.75 20.0999 186.919 19.8353 188.148 19.622C189.291 19.4129 190.445 19.2732 191.605 19.2038L193.115 19.1099C192.446 20.6405 191.638 22.1061 190.7 23.4882C189.562 25.2407 188.41 26.8595 187.243 28.3445C186.567 29.2971 185.798 30.1805 184.947 30.9818C184.637 31.1946 184.294 31.356 183.932 31.4597C183.787 31.5091 183.657 31.5966 183.558 31.7131C183.458 31.8297 183.392 31.9709 183.365 32.122C183.339 32.2731 183.354 32.4284 183.409 32.5717C183.463 32.715 183.556 32.8409 183.676 32.9362L184.077 33.235C184.703 33.673 185.39 34.0153 186.117 34.2506C186.481 34.3935 186.869 34.4659 187.26 34.464C187.576 34.4654 187.888 34.3881 188.166 34.2391C188.445 34.0901 188.682 33.874 188.856 33.6105C190.239 31.8353 191.781 29.619 193.482 26.9619C195.183 24.3047 196.839 21.5025 198.449 18.5551C198.484 18.468 198.504 18.3757 198.509 18.282C198.492 17.8468 198.245 17.4968 197.707 17.164ZM205.644 17.7187C205.644 16.8653 205.644 16.1057 205.738 15.4058C205.776 14.7862 205.859 14.17 205.986 13.5623C206.071 13.11 205.755 12.6662 205.047 12.2309C204.194 11.7455 203.264 11.4078 202.299 11.2323C201.837 11.1299 201.37 11.0558 200.899 11.0104C200.742 10.9982 200.585 11.0296 200.445 11.1011C200.304 11.1727 200.187 11.2816 200.105 11.4159C200.022 11.5501 199.979 11.7045 199.979 11.8619C199.979 12.0193 200.023 12.1735 200.105 12.3077L200.284 12.6064C200.607 13.0955 200.847 13.6349 200.993 14.2024C201.19 15.427 201.282 16.6662 201.266 17.9065V29.2577C201.266 31.9462 201.189 35.1297 201.018 38.7826C201.038 39.2309 201.227 39.655 201.548 39.9689C201.923 40.4186 202.363 40.8098 202.853 41.1296C203.21 41.3982 203.631 41.5689 204.074 41.6246C204.309 41.6188 204.54 41.5615 204.751 41.4569C204.962 41.3522 205.147 41.2026 205.294 41.0187C205.465 40.8413 205.598 40.631 205.684 40.4006C205.771 40.1702 205.809 39.9246 205.798 39.6787C205.695 35.9405 205.644 32.4668 205.644 29.2577V17.7187Z" fill="black"/>
</svg>
